<svg viewBox="0 0 2153.666748046875 400" xmlns="http://www.w3.org/2000/svg"><g><g><g><g><g><line x1="51.53200149536133" y1="376.5999994277954" x2="46.53200149536133" y2="376.5999994277954" style="visibility: inherit;" fill="rgb(0, 0, 0)" stroke="rgb(200, 195, 188)" stroke-width="1px"></line><line x1="51.53200149536133" y1="349.69999946866716" x2="46.53200149536133" y2="349.69999946866716" style="visibility: inherit;" fill="rgb(0, 0, 0)" stroke="rgb(200, 195, 188)" stroke-width="1px"></line><line x1="51.53200149536133" y1="322.7999995095389" x2="46.53200149536133" y2="322.7999995095389" style="visibility: inherit;" fill="rgb(0, 0, 0)" stroke="rgb(200, 195, 188)" stroke-width="1px"></line><line x1="51.53200149536133" y1="295.89999955041066" x2="46.53200149536133" y2="295.89999955041066" style="visibility: inherit;" fill="rgb(0, 0, 0)" stroke="rgb(200, 195, 188)" stroke-width="1px"></line><line x1="51.53200149536133" y1="268.99999959128246" x2="46.53200149536133" y2="268.99999959128246" style="visibility: inherit;" fill="rgb(0, 0, 0)" stroke="rgb(200, 195, 188)" stroke-width="1px"></line><line x1="51.53200149536133" y1="242.09999963215418" x2="46.53200149536133" y2="242.09999963215418" style="visibility: inherit;" fill="rgb(0, 0, 0)" stroke="rgb(200, 195, 188)" stroke-width="1px"></line><line x1="51.53200149536133" y1="215.19999967302593" x2="46.53200149536133" y2="215.19999967302593" style="visibility: inherit;" fill="rgb(0, 0, 0)" stroke="rgb(200, 195, 188)" stroke-width="1px"></line><line x1="51.53200149536133" y1="188.29999971389773" x2="46.53200149536133" y2="188.29999971389773" style="visibility: inherit;" fill="rgb(0, 0, 0)" stroke="rgb(200, 195, 188)" stroke-width="1px"></line><line x1="51.53200149536133" y1="161.39999975476948" x2="46.53200149536133" y2="161.39999975476948" style="visibility: inherit;" fill="rgb(0, 0, 0)" stroke="rgb(200, 195, 188)" stroke-width="1px"></line><line x1="51.53200149536133" y1="134.4999997956412" x2="46.53200149536133" y2="134.4999997956412" style="visibility: inherit;" fill="rgb(0, 0, 0)" stroke="rgb(200, 195, 188)" stroke-width="1px"></line><line x1="51.53200149536133" y1="107.599999836513" x2="46.53200149536133" y2="107.599999836513" style="visibility: inherit;" fill="rgb(0, 0, 0)" stroke="rgb(200, 195, 188)" stroke-width="1px"></line><line x1="51.53200149536133" y1="80.69999987738474" x2="46.53200149536133" y2="80.69999987738474" style="visibility: inherit;" fill="rgb(0, 0, 0)" stroke="rgb(200, 195, 188)" stroke-width="1px"></line><line x1="51.53200149536133" y1="53.7999999182565" x2="46.53200149536133" y2="53.7999999182565" style="visibility: inherit;" fill="rgb(0, 0, 0)" stroke="rgb(200, 195, 188)" stroke-width="1px"></line><line x1="51.53200149536133" y1="26.899999959128273" x2="46.53200149536133" y2="26.899999959128273" style="visibility: inherit;" fill="rgb(0, 0, 0)" stroke="rgb(200, 195, 188)" stroke-width="1px"></line><line x1="51.53200149536133" y1="0" x2="46.53200149536133" y2="0" style="visibility: inherit;" fill="rgb(0, 0, 0)" stroke="rgb(200, 195, 188)" stroke-width="1px"></line></g><g transform="translate(41.53200149536133, 0)"><text style="text-anchor: end; visibility: hidden; font-family: Roboto, sans-serif; font-size: 12px; font-weight: 200;" x="0" y="376.5999994277954" dx="0em" dy="0.3em" fill="rgb(232, 230, 227)" stroke="none" stroke-width="1px">0.11</text><text style="text-anchor: end; visibility: inherit; font-family: Roboto, sans-serif; font-size: 12px; font-weight: 200;" x="0" y="349.69999946866716" dx="0em" dy="0.3em" fill="rgb(232, 230, 227)" stroke="none" stroke-width="1px">0.12</text><text style="text-anchor: end; visibility: inherit; font-family: Roboto, sans-serif; font-size: 12px; font-weight: 200;" x="0" y="322.7999995095389" dx="0em" dy="0.3em" fill="rgb(232, 230, 227)" stroke="none" stroke-width="1px">0.13</text><text style="text-anchor: end; visibility: inherit; font-family: Roboto, sans-serif; font-size: 12px; font-weight: 200;" x="0" y="295.89999955041066" dx="0em" dy="0.3em" fill="rgb(232, 230, 227)" stroke="none" stroke-width="1px">0.14</text><text style="text-anchor: end; visibility: inherit; font-family: Roboto, sans-serif; font-size: 12px; font-weight: 200;" x="0" y="268.99999959128246" dx="0em" dy="0.3em" fill="rgb(232, 230, 227)" stroke="none" stroke-width="1px">0.15</text><text style="text-anchor: end; visibility: inherit; font-family: Roboto, sans-serif; font-size: 12px; font-weight: 200;" x="0" y="242.09999963215418" dx="0em" dy="0.3em" fill="rgb(232, 230, 227)" stroke="none" stroke-width="1px">0.16</text><text style="text-anchor: end; visibility: inherit; font-family: Roboto, sans-serif; font-size: 12px; font-weight: 200;" x="0" y="215.19999967302593" dx="0em" dy="0.3em" fill="rgb(232, 230, 227)" stroke="none" stroke-width="1px">0.17</text><text style="text-anchor: end; visibility: inherit; font-family: Roboto, sans-serif; font-size: 12px; font-weight: 200;" x="0" y="188.29999971389773" dx="0em" dy="0.3em" fill="rgb(232, 230, 227)" stroke="none" stroke-width="1px">0.18</text><text style="text-anchor: end; visibility: inherit; font-family: Roboto, sans-serif; font-size: 12px; font-weight: 200;" x="0" y="161.39999975476948" dx="0em" dy="0.3em" fill="rgb(232, 230, 227)" stroke="none" stroke-width="1px">0.19</text><text style="text-anchor: end; visibility: inherit; font-family: Roboto, sans-serif; font-size: 12px; font-weight: 200;" x="0" y="134.4999997956412" dx="0em" dy="0.3em" fill="rgb(232, 230, 227)" stroke="none" stroke-width="1px">0.2</text><text style="text-anchor: end; visibility: inherit; font-family: Roboto, sans-serif; font-size: 12px; font-weight: 200;" x="0" y="107.599999836513" dx="0em" dy="0.3em" fill="rgb(232, 230, 227)" stroke="none" stroke-width="1px">0.21</text><text style="text-anchor: end; visibility: inherit; font-family: Roboto, sans-serif; font-size: 12px; font-weight: 200;" x="0" y="80.69999987738474" dx="0em" dy="0.3em" fill="rgb(232, 230, 227)" stroke="none" stroke-width="1px">0.22</text><text style="text-anchor: end; visibility: inherit; font-family: Roboto, sans-serif; font-size: 12px; font-weight: 200;" x="0" y="53.7999999182565" dx="0em" dy="0.3em" fill="rgb(232, 230, 227)" stroke="none" stroke-width="1px">0.23</text><text style="text-anchor: end; visibility: inherit; font-family: Roboto, sans-serif; font-size: 12px; font-weight: 200;" x="0" y="26.899999959128273" dx="0em" dy="0.3em" fill="rgb(232, 230, 227)" stroke="none" stroke-width="1px">0.24</text><text style="text-anchor: end; visibility: hidden; font-family: Roboto, sans-serif; font-size: 12px; font-weight: 200;" x="0" y="0" dx="0em" dy="0.3em" fill="rgb(232, 230, 227)" stroke="none" stroke-width="1px">0.25</text></g><line x1="51.53200149536133" y1="0" x2="51.53200149536133" y2="376.5999994277954" fill="rgb(0, 0, 0)" stroke="rgb(200, 195, 188)" stroke-width="1px"></line></g></g><g transform="translate(51, 0)" clip-path="url(#clip_0)"><clipPath id="clip_0"><rect width="2102" height="376"></rect></clipPath><g><g><g><line x1="0" y1="0" x2="0" y2="376.5999994277954" fill="rgb(0, 0, 0)" stroke="rgb(194, 189, 181)" stroke-width="1px" opacity="0.25"></line><line x1="175.17816654205322" y1="0" x2="175.17816654205322" y2="376.5999994277954" fill="rgb(0, 0, 0)" stroke="rgb(194, 189, 181)" stroke-width="1px" opacity="0.25"></line><line x1="350.35633308410644" y1="0" x2="350.35633308410644" y2="376.5999994277954" fill="rgb(0, 0, 0)" stroke="rgb(194, 189, 181)" stroke-width="1px" opacity="0.25"></line><line x1="525.5344996261597" y1="0" x2="525.5344996261597" y2="376.5999994277954" fill="rgb(0, 0, 0)" stroke="rgb(194, 189, 181)" stroke-width="1px" opacity="0.25"></line><line x1="700.7126661682129" y1="0" x2="700.7126661682129" y2="376.5999994277954" fill="rgb(0, 0, 0)" stroke="rgb(194, 189, 181)" stroke-width="1px" opacity="0.25"></line><line x1="875.8908327102662" y1="0" x2="875.8908327102662" y2="376.5999994277954" fill="rgb(0, 0, 0)" stroke="rgb(194, 189, 181)" stroke-width="1px" opacity="0.25"></line><line x1="1051.0689992523194" y1="0" x2="1051.0689992523194" y2="376.5999994277954" fill="rgb(0, 0, 0)" stroke="rgb(194, 189, 181)" stroke-width="1px" opacity="0.25"></line><line x1="1226.2471657943727" y1="0" x2="1226.2471657943727" y2="376.5999994277954" fill="rgb(0, 0, 0)" stroke="rgb(194, 189, 181)" stroke-width="1px" opacity="0.25"></line><line x1="1401.4253323364258" y1="0" x2="1401.4253323364258" y2="376.5999994277954" fill="rgb(0, 0, 0)" stroke="rgb(194, 189, 181)" stroke-width="1px" opacity="0.25"></line><line x1="1576.603498878479" y1="0" x2="1576.603498878479" y2="376.5999994277954" fill="rgb(0, 0, 0)" stroke="rgb(194, 189, 181)" stroke-width="1px" opacity="0.25"></line><line x1="1751.7816654205324" y1="0" x2="1751.7816654205324" y2="376.5999994277954" fill="rgb(0, 0, 0)" stroke="rgb(194, 189, 181)" stroke-width="1px" opacity="0.25"></line><line x1="1926.9598319625854" y1="0" x2="1926.9598319625854" y2="376.5999994277954" fill="rgb(0, 0, 0)" stroke="rgb(194, 189, 181)" stroke-width="1px" opacity="0.25"></line><line x1="2102.1379985046387" y1="0" x2="2102.1379985046387" y2="376.5999994277954" fill="rgb(0, 0, 0)" stroke="rgb(194, 189, 181)" stroke-width="1px" opacity="0.25"></line></g><g><line x1="0" y1="376.5999994277954" x2="2102.1379985046387" y2="376.5999994277954" fill="rgb(0, 0, 0)" stroke="rgb(194, 189, 181)" stroke-width="1px" opacity="0.25"></line><line x1="0" y1="349.69999946866716" x2="2102.1379985046387" y2="349.69999946866716" fill="rgb(0, 0, 0)" stroke="rgb(194, 189, 181)" stroke-width="1px" opacity="0.25"></line><line x1="0" y1="322.7999995095389" x2="2102.1379985046387" y2="322.7999995095389" fill="rgb(0, 0, 0)" stroke="rgb(194, 189, 181)" stroke-width="1px" opacity="0.25"></line><line x1="0" y1="295.89999955041066" x2="2102.1379985046387" y2="295.89999955041066" fill="rgb(0, 0, 0)" stroke="rgb(194, 189, 181)" stroke-width="1px" opacity="0.25"></line><line x1="0" y1="268.99999959128246" x2="2102.1379985046387" y2="268.99999959128246" fill="rgb(0, 0, 0)" stroke="rgb(194, 189, 181)" stroke-width="1px" opacity="0.25"></line><line x1="0" y1="242.09999963215418" x2="2102.1379985046387" y2="242.09999963215418" fill="rgb(0, 0, 0)" stroke="rgb(194, 189, 181)" stroke-width="1px" opacity="0.25"></line><line x1="0" y1="215.19999967302593" x2="2102.1379985046387" y2="215.19999967302593" fill="rgb(0, 0, 0)" stroke="rgb(194, 189, 181)" stroke-width="1px" opacity="0.25"></line><line x1="0" y1="188.29999971389773" x2="2102.1379985046387" y2="188.29999971389773" fill="rgb(0, 0, 0)" stroke="rgb(194, 189, 181)" stroke-width="1px" opacity="0.25"></line><line x1="0" y1="161.39999975476948" x2="2102.1379985046387" y2="161.39999975476948" fill="rgb(0, 0, 0)" stroke="rgb(194, 189, 181)" stroke-width="1px" opacity="0.25"></line><line x1="0" y1="134.4999997956412" x2="2102.1379985046387" y2="134.4999997956412" fill="rgb(0, 0, 0)" stroke="rgb(194, 189, 181)" stroke-width="1px" opacity="0.25"></line><line x1="0" y1="107.599999836513" x2="2102.1379985046387" y2="107.599999836513" fill="rgb(0, 0, 0)" stroke="rgb(194, 189, 181)" stroke-width="1px" opacity="0.25"></line><line x1="0" y1="80.69999987738474" x2="2102.1379985046387" y2="80.69999987738474" fill="rgb(0, 0, 0)" stroke="rgb(194, 189, 181)" stroke-width="1px" opacity="0.25"></line><line x1="0" y1="53.7999999182565" x2="2102.1379985046387" y2="53.7999999182565" fill="rgb(0, 0, 0)" stroke="rgb(194, 189, 181)" stroke-width="1px" opacity="0.25"></line><line x1="0" y1="26.899999959128273" x2="2102.1379985046387" y2="26.899999959128273" fill="rgb(0, 0, 0)" stroke="rgb(194, 189, 181)" stroke-width="1px" opacity="0.25"></line><line x1="0" y1="0" x2="2102.1379985046387" y2="0" fill="rgb(0, 0, 0)" stroke="rgb(194, 189, 181)" stroke-width="1px" opacity="0.25"></line></g></g></g><g><g><line x1="0" y1="672.499998978206" x2="2102.1379985046387" y2="672.499998978206" fill="rgb(0, 0, 0)" stroke="rgb(168, 160, 149)" stroke-width="1.5px"></line></g></g><g><g><line x1="175.17816654205322" y1="0" x2="175.17816654205322" y2="376.5999994277954" fill="rgb(0, 0, 0)" stroke="rgb(168, 160, 149)" stroke-width="1.5px"></line></g></g><g><g><g><g><g><path style="fill: none;" stroke="rgb(255, 112, 67)" stroke-width="2px" d="M252.67138171892825,402.8217752149042L261.28173896080324,359.81667856637097L269.8920962026782,336.6932427941315L278.5024534445533,314.72439505051904L287.11281068642825,290.1749373865767L295.7231679283032,283.27090734734907L304.33352517017823,272.92154198541346L312.9438824120532,280.3864906710904L321.5542396539283,275.3433066014012L330.16459689580324,287.07678031233235L338.77495413767826,270.4186716344357L347.38531137955323,270.73079778908516L355.9956686214282,272.35067211354897L364.6060258633033,271.0497902790291L373.21638310517824,261.94307654120007L381.82674034705326,251.0430361026437L390.4370975889282,251.66326017390824L399.0474548308032,249.27708800591935L407.65781207267827,233.0499373570745L416.26816931455323,230.85213903975125L424.87852655642826,228.93625535313777L433.4888837983032,229.08970040114633L442.0992410401782,223.2452918893157L450.70959828205326,209.22207958476716L459.31995552392823,206.4648567691871L467.93031276580325,192.416559908121L476.5406700076782,191.9630080134909L485.1510272495533,188.63661093849308L493.76138449142826,191.66745010899496L502.3717417333032,190.02887430036395L510.98209897517825,184.23840780365305L519.5924562170533,188.1261704588106L528.2028134589283,182.50835057339395L536.8131707008032,179.26594387410051L545.4235279426782,171.15459963270348L554.0338851845532,174.32802692901996L562.6442424264283,175.09635578330818L571.2545996683033,169.97770723184362L579.8649569101782,173.47827809022837L588.4753141520532,166.6658034979653L597.0856713939282,166.55859204308118L605.6960286358033,170.4421344650274L614.3063858776783,160.8152460312362L622.9167431195532,152.91478269200144L631.5271003614282,142.49371856428425L640.1374576033032,139.5037674081893L648.7478148451783,139.03903435241958L657.3581720870533,141.70894298383146L665.9685293289282,139.7605571715582L674.5788865708032,133.45320602084692L683.1892438126783,129.92185441921998L691.7996010545532,128.9729226545409L700.4099582964283,128.05592200900426L709.0203155383032,125.33410811055843L717.6306727801782,123.43263251384587L726.2410300220533,120.80358398488083L734.8513872639282,120.18499917012974L743.4617445058033,121.58572687870748L752.0721017476782,116.66043110504458L760.6824589895532,117.14525709030534L769.2928162314283,114.98563383867335L777.9031734733032,117.90611644018306L786.5135307151783,114.20967488496649L795.1238879570532,120.62528881864755L803.7342451989282,114.81579436432345L812.3446024408033,115.87209386583919L820.9549596826782,111.52647943645488L829.5653169245533,114.85471969324094L838.1756741664283,105.99709162726708L846.7860314083032,104.22232770478212L855.3963886501783,103.0830411506824L864.0067458920532,95.17709580323579L872.6171031339283,96.09900258375258L881.2274603758033,100.44809711865001L889.8378176176782,101.56062026241798L898.4481748595533,102.61167507645986L907.0585321014282,100.85002333679066L915.6688893433032,93.87932534368045L924.2792465851783,93.12551007253515L932.8896038270533,91.85930476432935L941.4999610689283,92.25063727128338L950.1103183108032,95.2809516528192L958.7206755526782,89.41004336578062L967.3310327945533,89.5398354622879L975.9413900364283,91.58443022537512L984.5517472783033,93.81074082173332L993.1621045201782,85.57347645671251L1001.7724617620532,86.76592881251342L1010.3828190039283,83.50899944753719L1018.9931762458033,85.30525673078532L1027.6035334876783,84.5870499618767L1036.2138907295532,85.34394675052962L1044.8242479714283,80.5910289053099L1053.4346052133033,81.41789441830831L1062.0449624551782,75.31903701293356L1070.655319697053,76.63430660517639L1079.2656769389284,74.50184883046862L1087.8760341808033,75.47367491438628L1096.4863914226783,72.71967107725742L1105.0967486645534,77.02081934309803L1113.7071059064283,77.93952433830012L1122.3174631483032,71.97502495133183L1130.9278203901783,72.29033758559227L1139.5381776320532,72.4589539939423L1148.1485348739282,68.79657737784328L1156.758892115803,68.68976292243676L1165.3692493576784,65.8551237639768L1173.9796065995533,67.20947199767632L1182.5899638414282,66.12411372142712L1191.2003210833034,69.37742909613863L1199.8106783251783,69.96559610128172L1208.4210355670532,64.33340754784017L1217.0313928089283,61.29561114842587L1225.6417500508032,60.75926490081319L1234.2521072926781,63.68699688024124L1242.862464534553,61.03385336690714L1251.4728217764284,60.04791093779557L1260.0831790183033,56.651643321847494L1268.6935362601782,56.55520495677981L1277.3038935020534,52.20271290688433L1285.9142507439283,53.11001047965641L1294.5246079858032,57.75550793932207L1303.1349652276783,56.73329148112459L1311.7453224695532,57.926857693968216L1320.3556797114281,58.273469903486586L1328.966036953303,57.45562037294149L1337.5763941951784,60.31908597872634L1346.1867514370533,57.069155102992084L1354.7971086789282,55.610435528488175L1363.4074659208034,52.21376810961162L1372.0178231626783,51.677960272466045L1380.6281804045532,50.965046086882865L1389.2385376464283,50.635808317570806L1397.8488948883032,52.74254158241016L1406.4592521301781,48.4374537516951L1415.0696093720535,46.97217088894718L1423.6799666139284,45.73048035790737L1432.2903238558033,45.97713122227451L1440.9006810976782,45.06515321137363L1449.5110383395534,45.390982582114496L1458.1213955814283,45.70294863394751L1466.7317528233032,45.69179202171924L1475.3421100651783,47.05286455182345L1483.9524673070532,45.71846573096826L1492.5628245489281,45.85258819965387L1501.1731817908035,48.47332085945879L1509.7835390326784,47.339569038898354L1518.3938962745533,45.76396689563822L1527.0042535164282,42.55329145134658L1535.6146107583033,45.8067971347145L1544.2249680001783,44.170489636243325L1552.8353252420532,47.0472509710844L1561.4456824839283,44.49926594698962L1570.0560397258032,47.155642238795934L1578.666396967678,47.08310686328586L1587.2767542095535,46.82811783577649L1595.8871114514284,44.12740959369701L1604.4974686933033,45.40189211856858L1613.1078259351782,42.33954192067845L1621.7181831770533,42.40886942464617L1630.3285404189282,44.84404928072417L1638.9388976608031,44.71891618992983L1647.5492549026783,46.626749826550544L1656.1596121445532,44.41376331518792L1664.7699693864283,38.46210742032051L1673.3803266283035,40.70631009067099L1681.9906838701784,40.06554101549228L1690.6010411120533,43.46038710887413L1699.2113983539282,44.189943058477546L1707.8217555958033,39.408803910205485L1716.4321128376782,38.666631276546994L1725.0424700795531,36.2068920504944L1733.6528273214283,38.11413250887967L1742.2631845633032,39.31627809007064L1750.8735418051783,38.97583320782787L1759.4838990470535,36.58943469333856L1768.0942562889284,39.0271084347724L1776.7046135308033,41.08778383665627L1785.3149707726782,40.472623242739644L1793.9253280145533,39.4008201332498L1802.5356852564282,41.286613555061095L1811.1460424983031,41.690867405044415L1819.7563997401783,41.348480116885945L1828.3667569820532,36.67985695678123L1836.9771142239283,35.003892509730385L1845.5874714658034,33.975113150788836L1854.1978287076784,36.22515909489101L1862.8081859495533,34.26128786458397L1871.4185431914284,36.77820824097857L1880.0289004333033,38.48626380160911L1888.6392576751782,39.45549244179805L1897.2496149170531,35.48714489628666" fill="none"></path></g></g></g></g><g opacity="0.2"><g><g><g><path style="fill: none;" stroke="rgb(255, 112, 67)" stroke-width="2px" d="M244.06102447705322,385.97056680388044L252.67138171892825,348.97867283845557L261.28173896080324,295.9591220292828L269.8920962026782,302.2178169963416L278.5024534445533,281.89067693437687L287.11281068642825,253.43090912936523L295.7231679283032,272.9283880020808L304.33352517017823,257.4096592329925L312.9438824120532,291.578648839432L321.5542396539283,267.78066460334895L330.16459689580324,304.67401175102486L338.77495413767826,245.43404631278412L347.38531137955323,271.1989584914925L355.9956686214282,274.7803947624867L364.6060258633033,269.0985103333203L373.21638310517824,248.28318573063342L381.82674034705326,234.69310456617967L390.4370975889282,252.5935918725179L399.0474548308032,245.69783992987027L407.65781207267827,208.70925290463828L416.26816931455323,227.5554449379045L424.87852655642826,226.0624315880173L433.4888837983032,229.31986788835246L442.0992410401782,214.47868105963906L450.70959828205326,188.18726391809426L459.31995552392823,202.3290228749742L467.93031276580325,171.3441156227724L476.5406700076782,191.28268019103814L485.1510272495533,183.64701541177098L493.76138449142826,196.21370881785572L502.3717417333032,187.57101060262818L510.98209897517825,175.55270809083848L519.5924562170533,193.9578144285545L528.2028134589283,174.08162075653343L536.8131707008032,174.40233382906135L545.4235279426782,158.98758327646317L554.0338851845532,179.08816787212024L562.6442424264283,176.24884906454082L571.2545996683033,162.2997344054448L579.8649569101782,178.72913437747798L588.4753141520532,156.44709160995308L597.0856713939282,166.3977748607585L605.6960286358033,176.26744809786825L614.3063858776783,146.37491338066593L622.9167431195532,141.06408768320694L631.5271003614282,126.8621223727541L640.1374576033032,135.01884067405481L648.7478148451783,138.34193476876575L657.3581720870533,145.7138059309468L665.9685293289282,136.83797845314925L674.5788865708032,123.99217929478205L683.1892438126783,124.62482701678033L691.7996010545532,127.54952500752243L700.4099582964283,126.68042104069946L709.0203155383032,121.25138726288988L717.6306727801782,120.58041911877729L726.2410300220533,116.86001119143333L734.8513872639282,119.2571219480031L743.4617445058033,123.68681844157399L752.0721017476782,109.27248744455039L760.6824589895532,117.87249606819655L769.2928162314283,111.74619896122526L777.9031734733032,122.28684034244762L786.5135307151783,108.66501255214186L795.1238879570532,130.2487097191691L803.7342451989282,106.10155268283731L812.3446024408033,117.45654311811256L820.9549596826782,105.00805779237835L829.5653169245533,119.84708007842006L838.1756741664283,92.71064952830619L846.7860314083032,101.56018182105454L855.3963886501783,101.37411131953291L864.0067458920532,83.31817778206569L872.6171031339283,97.48186275452778L881.2274603758033,106.9717389209961L889.8378176176782,103.22940497806995L898.4481748595533,104.18825729752261L907.0585321014282,98.20754572728686L915.6688893433032,83.42327835401524L924.2792465851783,91.994787165817L932.8896038270533,89.9599968020206L941.4999610689283,92.83763603171434L950.1103183108032,99.82642322512275L958.7206755526782,80.60368093522268L967.3310327945533,89.7345236070488L975.9413900364283,94.65132237000593L984.5517472783033,97.15020671627056L993.1621045201782,73.21757990918121L1001.7724617620532,88.55460734621487L1010.3828190039283,78.62360540007279L1018.9931762458033,87.9996426556576L1027.6035334876783,83.50973980851376L1036.2138907295532,86.47929193350889L1044.8242479714283,73.4616521374805L1053.4346052133033,82.65819268780595L1062.0449624551782,66.1707509048716L1070.655319697053,78.60721099354063L1079.2656769389284,71.3031621684071L1087.8760341808033,76.93141404026291L1096.4863914226783,68.58866532156411L1105.0967486645534,83.47254174185883L1113.7071059064283,79.31758183110338L1122.3174631483032,63.02827587087938L1130.9278203901783,72.76330653698287L1139.5381776320532,72.71187860646754L1148.1485348739282,63.303012453694826L1156.758892115803,68.52954123932703L1165.3692493576784,61.6031650262868L1173.9796065995533,69.24099434822571L1182.5899638414282,64.49607630705329L1191.2003210833034,74.25740215820595L1199.8106783251783,70.84784660899648L1208.4210355670532,55.88512471767782L1217.0313928089283,56.73891654930443L1225.6417500508032,59.954745529394124L1234.2521072926781,68.07859484938339L1242.862464534553,57.054138096905945L1251.4728217764284,58.56899729412821L1260.0831790183033,51.55724189792528L1268.6935362601782,56.41054740917836L1277.3038935020534,45.67397483204094L1285.9142507439283,54.47095683881454L1294.5246079858032,64.72375412882042L1303.1349652276783,55.199966793828324L1311.7453224695532,59.717207013233605L1320.3556797114281,58.79338821776414L1328.966036953303,56.228846077123755L1337.5763941951784,64.61428438740388L1346.1867514370533,52.194258789390595L1354.7971086789282,53.42235616673221L1363.4074659208034,47.11876698129683L1372.0178231626783,50.87424851674753L1380.6281804045532,49.895674808508055L1389.2385376464283,50.14195166360258L1397.8488948883032,55.90264147966939L1406.4592521301781,41.97982200562256L1415.0696093720535,44.77424659482536L1423.6799666139284,43.8679445613475L1432.2903238558033,46.34710751882527L1440.9006810976782,43.69718619502219L1449.5110383395534,45.87972663822588L1458.1213955814283,46.170897711697066L1466.7317528233032,45.67505710337681L1475.3421100651783,49.09447334697971L1483.9524673070532,43.716867499685506L1492.5628245489281,46.05377190268234L1501.1731817908035,52.40441984916611L1509.7835390326784,45.63894130805775L1518.3938962745533,43.40056368074816L1527.0042535164282,37.73727828490913L1535.6146107583033,50.68705565976648L1544.2249680001783,41.716028388536415L1552.8353252420532,51.36239297334609L1561.4456824839283,40.67728841084755L1570.0560397258032,51.14020667650541L1578.666396967678,46.97430380002066L1587.2767542095535,46.4456342945125L1595.8871114514284,40.07634723057771L1604.4974686933033,47.31361590587602L1613.1078259351782,37.74601662384314L1621.7181831770533,42.51286068059774L1630.3285404189282,48.49681906484106L1638.9388976608031,44.531216553738396L1647.5492549026783,49.48850028148157L1656.1596121445532,41.094283548143885L1664.7699693864283,29.534623578019477L1673.3803266283035,44.07261409619661L1681.9906838701784,39.10438740272406L1690.6010411120533,48.552656248946974L1699.2113983539282,45.28427698288252L1707.8217555958033,32.237095187797344L1716.4321128376782,37.55337232605924L1725.0424700795531,32.517283211415645L1733.6528273214283,40.97499319645746L1742.2631845633032,41.11949646185718L1750.8735418051783,38.465165884463495L1759.4838990470535,33.00983692160478L1768.0942562889284,42.68361904692304L1776.7046135308033,44.17879693948199L1785.3149707726782,39.549882351864845L1793.9253280145533,37.79311546901504L1802.5356852564282,44.11530368777794L1811.1460424983031,42.297248180019324L1819.7563997401783,40.834899184648314L1828.3667569820532,29.67692221662395L1836.9771142239283,32.48994583915419L1845.5874714658034,32.431944112376534L1854.1978287076784,39.60022801104431L1862.8081859495533,31.315481019123162L1871.4185431914284,40.55358880557056L1880.0289004333033,41.048347142554945L1888.6392576751782,40.909335402081666L1897.2496149170531,29.534623578019477" fill="none"></path></g></g></g></g></g></g><g transform="translate(51, 376)" clip-path="url(#clip_1)"><clipPath id="clip_1"><rect width="2102" height="23"></rect></clipPath><g><g><line x1="0" y1="0" x2="0" y2="5" style="visibility: inherit;" fill="rgb(0, 0, 0)" stroke="rgb(200, 195, 188)" stroke-width="1px"></line><line x1="175.17816654205322" y1="0" x2="175.17816654205322" y2="5" style="visibility: inherit;" fill="rgb(0, 0, 0)" stroke="rgb(200, 195, 188)" stroke-width="1px"></line><line x1="350.35633308410644" y1="0" x2="350.35633308410644" y2="5" style="visibility: inherit;" fill="rgb(0, 0, 0)" stroke="rgb(200, 195, 188)" stroke-width="1px"></line><line x1="525.5344996261597" y1="0" x2="525.5344996261597" y2="5" style="visibility: inherit;" fill="rgb(0, 0, 0)" stroke="rgb(200, 195, 188)" stroke-width="1px"></line><line x1="700.7126661682129" y1="0" x2="700.7126661682129" y2="5" style="visibility: inherit;" fill="rgb(0, 0, 0)" stroke="rgb(200, 195, 188)" stroke-width="1px"></line><line x1="875.8908327102662" y1="0" x2="875.8908327102662" y2="5" style="visibility: inherit;" fill="rgb(0, 0, 0)" stroke="rgb(200, 195, 188)" stroke-width="1px"></line><line x1="1051.0689992523194" y1="0" x2="1051.0689992523194" y2="5" style="visibility: inherit;" fill="rgb(0, 0, 0)" stroke="rgb(200, 195, 188)" stroke-width="1px"></line><line x1="1226.2471657943727" y1="0" x2="1226.2471657943727" y2="5" style="visibility: inherit;" fill="rgb(0, 0, 0)" stroke="rgb(200, 195, 188)" stroke-width="1px"></line><line x1="1401.4253323364258" y1="0" x2="1401.4253323364258" y2="5" style="visibility: inherit;" fill="rgb(0, 0, 0)" stroke="rgb(200, 195, 188)" stroke-width="1px"></line><line x1="1576.603498878479" y1="0" x2="1576.603498878479" y2="5" style="visibility: inherit;" fill="rgb(0, 0, 0)" stroke="rgb(200, 195, 188)" stroke-width="1px"></line><line x1="1751.7816654205324" y1="0" x2="1751.7816654205324" y2="5" style="visibility: inherit;" fill="rgb(0, 0, 0)" stroke="rgb(200, 195, 188)" stroke-width="1px"></line><line x1="1926.9598319625854" y1="0" x2="1926.9598319625854" y2="5" style="visibility: inherit;" fill="rgb(0, 0, 0)" stroke="rgb(200, 195, 188)" stroke-width="1px"></line><line x1="2102.1379985046387" y1="0" x2="2102.1379985046387" y2="5" style="visibility: inherit;" fill="rgb(0, 0, 0)" stroke="rgb(200, 195, 188)" stroke-width="1px"></line></g><g transform="translate(0, 8)"><text style="text-anchor: middle; visibility: hidden; font-family: Roboto, sans-serif; font-size: 12px; font-weight: 200;" x="0" y="0" dx="0em" dy="0.95em" fill="rgb(232, 230, 227)" stroke="none" stroke-width="1px">-500k</text><text style="text-anchor: middle; visibility: inherit; font-family: Roboto, sans-serif; font-size: 12px; font-weight: 200;" x="175.17816654205322" y="0" dx="0em" dy="0.95em" fill="rgb(232, 230, 227)" stroke="none" stroke-width="1px">0</text><text style="text-anchor: middle; visibility: inherit; font-family: Roboto, sans-serif; font-size: 12px; font-weight: 200;" x="350.35633308410644" y="0" dx="0em" dy="0.95em" fill="rgb(232, 230, 227)" stroke="none" stroke-width="1px">500k</text><text style="text-anchor: middle; visibility: inherit; font-family: Roboto, sans-serif; font-size: 12px; font-weight: 200;" x="525.5344996261597" y="0" dx="0em" dy="0.95em" fill="rgb(232, 230, 227)" stroke="none" stroke-width="1px">1M</text><text style="text-anchor: middle; visibility: inherit; font-family: Roboto, sans-serif; font-size: 12px; font-weight: 200;" x="700.7126661682129" y="0" dx="0em" dy="0.95em" fill="rgb(232, 230, 227)" stroke="none" stroke-width="1px">1.5M</text><text style="text-anchor: middle; visibility: inherit; font-family: Roboto, sans-serif; font-size: 12px; font-weight: 200;" x="875.8908327102662" y="0" dx="0em" dy="0.95em" fill="rgb(232, 230, 227)" stroke="none" stroke-width="1px">2M</text><text style="text-anchor: middle; visibility: inherit; font-family: Roboto, sans-serif; font-size: 12px; font-weight: 200;" x="1051.0689992523194" y="0" dx="0em" dy="0.95em" fill="rgb(232, 230, 227)" stroke="none" stroke-width="1px">2.5M</text><text style="text-anchor: middle; visibility: inherit; font-family: Roboto, sans-serif; font-size: 12px; font-weight: 200;" x="1226.2471657943727" y="0" dx="0em" dy="0.95em" fill="rgb(232, 230, 227)" stroke="none" stroke-width="1px">3M</text><text style="text-anchor: middle; visibility: inherit; font-family: Roboto, sans-serif; font-size: 12px; font-weight: 200;" x="1401.4253323364258" y="0" dx="0em" dy="0.95em" fill="rgb(232, 230, 227)" stroke="none" stroke-width="1px">3.5M</text><text style="text-anchor: middle; visibility: inherit; font-family: Roboto, sans-serif; font-size: 12px; font-weight: 200;" x="1576.603498878479" y="0" dx="0em" dy="0.95em" fill="rgb(232, 230, 227)" stroke="none" stroke-width="1px">4M</text><text style="text-anchor: middle; visibility: inherit; font-family: Roboto, sans-serif; font-size: 12px; font-weight: 200;" x="1751.7816654205324" y="0" dx="0em" dy="0.95em" fill="rgb(232, 230, 227)" stroke="none" stroke-width="1px">4.5M</text><text style="text-anchor: middle; visibility: inherit; font-family: Roboto, sans-serif; font-size: 12px; font-weight: 200;" x="1926.9598319625854" y="0" dx="0em" dy="0.95em" fill="rgb(232, 230, 227)" stroke="none" stroke-width="1px">5M</text><text style="text-anchor: middle; visibility: hidden; font-family: Roboto, sans-serif; font-size: 12px; font-weight: 200;" x="2102.1379985046387" y="0" dx="0em" dy="0.95em" fill="rgb(232, 230, 227)" stroke="none" stroke-width="1px">5.5M</text></g><line x1="0" y1="0" x2="2102.1379985046387" y2="0" fill="rgb(0, 0, 0)" stroke="rgb(200, 195, 188)" stroke-width="1px"></line></g></g></g></g></svg>