<svg viewBox="0 0 330 200" xmlns="http://www.w3.org/2000/svg"><g><g><g><g><g><line x1="51.53200149536133" y1="176.5999994277954" x2="46.53200149536133" y2="176.5999994277954" style="visibility: inherit;" fill="rgb(0, 0, 0)" stroke="rgb(200, 195, 188)" stroke-width="1px"></line><line x1="51.53200149536133" y1="163.98571375438146" x2="46.53200149536133" y2="163.98571375438146" style="visibility: inherit;" fill="rgb(0, 0, 0)" stroke="rgb(200, 195, 188)" stroke-width="1px"></line><line x1="51.53200149536133" y1="151.3714280809675" x2="46.53200149536133" y2="151.3714280809675" style="visibility: inherit;" fill="rgb(0, 0, 0)" stroke="rgb(200, 195, 188)" stroke-width="1px"></line><line x1="51.53200149536133" y1="138.75714240755352" x2="46.53200149536133" y2="138.75714240755352" style="visibility: inherit;" fill="rgb(0, 0, 0)" stroke="rgb(200, 195, 188)" stroke-width="1px"></line><line x1="51.53200149536133" y1="126.1428567341396" x2="46.53200149536133" y2="126.1428567341396" style="visibility: inherit;" fill="rgb(0, 0, 0)" stroke="rgb(200, 195, 188)" stroke-width="1px"></line><line x1="51.53200149536133" y1="113.52857106072561" x2="46.53200149536133" y2="113.52857106072561" style="visibility: inherit;" fill="rgb(0, 0, 0)" stroke="rgb(200, 195, 188)" stroke-width="1px"></line><line x1="51.53200149536133" y1="100.91428538731165" x2="46.53200149536133" y2="100.91428538731165" style="visibility: inherit;" fill="rgb(0, 0, 0)" stroke="rgb(200, 195, 188)" stroke-width="1px"></line><line x1="51.53200149536133" y1="88.29999971389772" x2="46.53200149536133" y2="88.29999971389772" style="visibility: inherit;" fill="rgb(0, 0, 0)" stroke="rgb(200, 195, 188)" stroke-width="1px"></line><line x1="51.53200149536133" y1="75.68571404048376" x2="46.53200149536133" y2="75.68571404048376" style="visibility: inherit;" fill="rgb(0, 0, 0)" stroke="rgb(200, 195, 188)" stroke-width="1px"></line><line x1="51.53200149536133" y1="63.07142836706978" x2="46.53200149536133" y2="63.07142836706978" style="visibility: inherit;" fill="rgb(0, 0, 0)" stroke="rgb(200, 195, 188)" stroke-width="1px"></line><line x1="51.53200149536133" y1="50.45714269365585" x2="46.53200149536133" y2="50.45714269365585" style="visibility: inherit;" fill="rgb(0, 0, 0)" stroke="rgb(200, 195, 188)" stroke-width="1px"></line><line x1="51.53200149536133" y1="37.84285702024188" x2="46.53200149536133" y2="37.84285702024188" style="visibility: inherit;" fill="rgb(0, 0, 0)" stroke="rgb(200, 195, 188)" stroke-width="1px"></line><line x1="51.53200149536133" y1="25.228571346827923" x2="46.53200149536133" y2="25.228571346827923" style="visibility: inherit;" fill="rgb(0, 0, 0)" stroke="rgb(200, 195, 188)" stroke-width="1px"></line><line x1="51.53200149536133" y1="12.614285673413972" x2="46.53200149536133" y2="12.614285673413972" style="visibility: inherit;" fill="rgb(0, 0, 0)" stroke="rgb(200, 195, 188)" stroke-width="1px"></line><line x1="51.53200149536133" y1="0" x2="46.53200149536133" y2="0" style="visibility: inherit;" fill="rgb(0, 0, 0)" stroke="rgb(200, 195, 188)" stroke-width="1px"></line></g><g transform="translate(41.53200149536133, 0)"><text style="text-anchor: end; visibility: hidden; font-family: Roboto, sans-serif; font-size: 12px; font-weight: 200;" x="0" y="176.5999994277954" dx="0em" dy="0.3em" fill="rgb(232, 230, 227)" stroke="none" stroke-width="1px">0.11</text><text style="text-anchor: end; visibility: inherit; font-family: Roboto, sans-serif; font-size: 12px; font-weight: 200;" x="0" y="163.98571375438146" dx="0em" dy="0.3em" fill="rgb(232, 230, 227)" stroke="none" stroke-width="1px">0.12</text><text style="text-anchor: end; visibility: hidden; font-family: Roboto, sans-serif; font-size: 12px; font-weight: 200;" x="0" y="151.3714280809675" dx="0em" dy="0.3em" fill="rgb(232, 230, 227)" stroke="none" stroke-width="1px">0.13</text><text style="text-anchor: end; visibility: hidden; font-family: Roboto, sans-serif; font-size: 12px; font-weight: 200;" x="0" y="138.75714240755352" dx="0em" dy="0.3em" fill="rgb(232, 230, 227)" stroke="none" stroke-width="1px">0.14</text><text style="text-anchor: end; visibility: inherit; font-family: Roboto, sans-serif; font-size: 12px; font-weight: 200;" x="0" y="126.1428567341396" dx="0em" dy="0.3em" fill="rgb(232, 230, 227)" stroke="none" stroke-width="1px">0.15</text><text style="text-anchor: end; visibility: hidden; font-family: Roboto, sans-serif; font-size: 12px; font-weight: 200;" x="0" y="113.52857106072561" dx="0em" dy="0.3em" fill="rgb(232, 230, 227)" stroke="none" stroke-width="1px">0.16</text><text style="text-anchor: end; visibility: hidden; font-family: Roboto, sans-serif; font-size: 12px; font-weight: 200;" x="0" y="100.91428538731165" dx="0em" dy="0.3em" fill="rgb(232, 230, 227)" stroke="none" stroke-width="1px">0.17</text><text style="text-anchor: end; visibility: inherit; font-family: Roboto, sans-serif; font-size: 12px; font-weight: 200;" x="0" y="88.29999971389772" dx="0em" dy="0.3em" fill="rgb(232, 230, 227)" stroke="none" stroke-width="1px">0.18</text><text style="text-anchor: end; visibility: hidden; font-family: Roboto, sans-serif; font-size: 12px; font-weight: 200;" x="0" y="75.68571404048376" dx="0em" dy="0.3em" fill="rgb(232, 230, 227)" stroke="none" stroke-width="1px">0.19</text><text style="text-anchor: end; visibility: hidden; font-family: Roboto, sans-serif; font-size: 12px; font-weight: 200;" x="0" y="63.07142836706978" dx="0em" dy="0.3em" fill="rgb(232, 230, 227)" stroke="none" stroke-width="1px">0.2</text><text style="text-anchor: end; visibility: inherit; font-family: Roboto, sans-serif; font-size: 12px; font-weight: 200;" x="0" y="50.45714269365585" dx="0em" dy="0.3em" fill="rgb(232, 230, 227)" stroke="none" stroke-width="1px">0.21</text><text style="text-anchor: end; visibility: hidden; font-family: Roboto, sans-serif; font-size: 12px; font-weight: 200;" x="0" y="37.84285702024188" dx="0em" dy="0.3em" fill="rgb(232, 230, 227)" stroke="none" stroke-width="1px">0.22</text><text style="text-anchor: end; visibility: hidden; font-family: Roboto, sans-serif; font-size: 12px; font-weight: 200;" x="0" y="25.228571346827923" dx="0em" dy="0.3em" fill="rgb(232, 230, 227)" stroke="none" stroke-width="1px">0.23</text><text style="text-anchor: end; visibility: inherit; font-family: Roboto, sans-serif; font-size: 12px; font-weight: 200;" x="0" y="12.614285673413972" dx="0em" dy="0.3em" fill="rgb(232, 230, 227)" stroke="none" stroke-width="1px">0.24</text><text style="text-anchor: end; visibility: hidden; font-family: Roboto, sans-serif; font-size: 12px; font-weight: 200;" x="0" y="0" dx="0em" dy="0.3em" fill="rgb(232, 230, 227)" stroke="none" stroke-width="1px">0.25</text></g><line x1="51.53200149536133" y1="0" x2="51.53200149536133" y2="176.5999994277954" fill="rgb(0, 0, 0)" stroke="rgb(200, 195, 188)" stroke-width="1px"></line></g></g><g transform="translate(51, 0)" clip-path="url(#clip_0)"><clipPath id="clip_0"><rect width="278" height="176"></rect></clipPath><g><g><g><line x1="0" y1="0" x2="0" y2="176.5999994277954" fill="rgb(0, 0, 0)" stroke="rgb(194, 189, 181)" stroke-width="1px" opacity="0.25"></line><line x1="23.205666542053223" y1="0" x2="23.205666542053223" y2="176.5999994277954" fill="rgb(0, 0, 0)" stroke="rgb(194, 189, 181)" stroke-width="1px" opacity="0.25"></line><line x1="46.411333084106445" y1="0" x2="46.411333084106445" y2="176.5999994277954" fill="rgb(0, 0, 0)" stroke="rgb(194, 189, 181)" stroke-width="1px" opacity="0.25"></line><line x1="69.61699962615967" y1="0" x2="69.61699962615967" y2="176.5999994277954" fill="rgb(0, 0, 0)" stroke="rgb(194, 189, 181)" stroke-width="1px" opacity="0.25"></line><line x1="92.82266616821289" y1="0" x2="92.82266616821289" y2="176.5999994277954" fill="rgb(0, 0, 0)" stroke="rgb(194, 189, 181)" stroke-width="1px" opacity="0.25"></line><line x1="116.02833271026611" y1="0" x2="116.02833271026611" y2="176.5999994277954" fill="rgb(0, 0, 0)" stroke="rgb(194, 189, 181)" stroke-width="1px" opacity="0.25"></line><line x1="139.23399925231934" y1="0" x2="139.23399925231934" y2="176.5999994277954" fill="rgb(0, 0, 0)" stroke="rgb(194, 189, 181)" stroke-width="1px" opacity="0.25"></line><line x1="162.43966579437256" y1="0" x2="162.43966579437256" y2="176.5999994277954" fill="rgb(0, 0, 0)" stroke="rgb(194, 189, 181)" stroke-width="1px" opacity="0.25"></line><line x1="185.64533233642578" y1="0" x2="185.64533233642578" y2="176.5999994277954" fill="rgb(0, 0, 0)" stroke="rgb(194, 189, 181)" stroke-width="1px" opacity="0.25"></line><line x1="208.850998878479" y1="0" x2="208.850998878479" y2="176.5999994277954" fill="rgb(0, 0, 0)" stroke="rgb(194, 189, 181)" stroke-width="1px" opacity="0.25"></line><line x1="232.05666542053223" y1="0" x2="232.05666542053223" y2="176.5999994277954" fill="rgb(0, 0, 0)" stroke="rgb(194, 189, 181)" stroke-width="1px" opacity="0.25"></line><line x1="255.26233196258545" y1="0" x2="255.26233196258545" y2="176.5999994277954" fill="rgb(0, 0, 0)" stroke="rgb(194, 189, 181)" stroke-width="1px" opacity="0.25"></line><line x1="278.4679985046387" y1="0" x2="278.4679985046387" y2="176.5999994277954" fill="rgb(0, 0, 0)" stroke="rgb(194, 189, 181)" stroke-width="1px" opacity="0.25"></line></g><g><line x1="0" y1="176.5999994277954" x2="278.4679985046387" y2="176.5999994277954" fill="rgb(0, 0, 0)" stroke="rgb(194, 189, 181)" stroke-width="1px" opacity="0.25"></line><line x1="0" y1="163.98571375438146" x2="278.4679985046387" y2="163.98571375438146" fill="rgb(0, 0, 0)" stroke="rgb(194, 189, 181)" stroke-width="1px" opacity="0.25"></line><line x1="0" y1="151.3714280809675" x2="278.4679985046387" y2="151.3714280809675" fill="rgb(0, 0, 0)" stroke="rgb(194, 189, 181)" stroke-width="1px" opacity="0.25"></line><line x1="0" y1="138.75714240755352" x2="278.4679985046387" y2="138.75714240755352" fill="rgb(0, 0, 0)" stroke="rgb(194, 189, 181)" stroke-width="1px" opacity="0.25"></line><line x1="0" y1="126.1428567341396" x2="278.4679985046387" y2="126.1428567341396" fill="rgb(0, 0, 0)" stroke="rgb(194, 189, 181)" stroke-width="1px" opacity="0.25"></line><line x1="0" y1="113.52857106072561" x2="278.4679985046387" y2="113.52857106072561" fill="rgb(0, 0, 0)" stroke="rgb(194, 189, 181)" stroke-width="1px" opacity="0.25"></line><line x1="0" y1="100.91428538731165" x2="278.4679985046387" y2="100.91428538731165" fill="rgb(0, 0, 0)" stroke="rgb(194, 189, 181)" stroke-width="1px" opacity="0.25"></line><line x1="0" y1="88.29999971389772" x2="278.4679985046387" y2="88.29999971389772" fill="rgb(0, 0, 0)" stroke="rgb(194, 189, 181)" stroke-width="1px" opacity="0.25"></line><line x1="0" y1="75.68571404048376" x2="278.4679985046387" y2="75.68571404048376" fill="rgb(0, 0, 0)" stroke="rgb(194, 189, 181)" stroke-width="1px" opacity="0.25"></line><line x1="0" y1="63.07142836706978" x2="278.4679985046387" y2="63.07142836706978" fill="rgb(0, 0, 0)" stroke="rgb(194, 189, 181)" stroke-width="1px" opacity="0.25"></line><line x1="0" y1="50.45714269365585" x2="278.4679985046387" y2="50.45714269365585" fill="rgb(0, 0, 0)" stroke="rgb(194, 189, 181)" stroke-width="1px" opacity="0.25"></line><line x1="0" y1="37.84285702024188" x2="278.4679985046387" y2="37.84285702024188" fill="rgb(0, 0, 0)" stroke="rgb(194, 189, 181)" stroke-width="1px" opacity="0.25"></line><line x1="0" y1="25.228571346827923" x2="278.4679985046387" y2="25.228571346827923" fill="rgb(0, 0, 0)" stroke="rgb(194, 189, 181)" stroke-width="1px" opacity="0.25"></line><line x1="0" y1="12.614285673413972" x2="278.4679985046387" y2="12.614285673413972" fill="rgb(0, 0, 0)" stroke="rgb(194, 189, 181)" stroke-width="1px" opacity="0.25"></line><line x1="0" y1="0" x2="278.4679985046387" y2="0" fill="rgb(0, 0, 0)" stroke="rgb(194, 189, 181)" stroke-width="1px" opacity="0.25"></line></g></g></g><g><g><line x1="0" y1="315.3571418353489" x2="278.4679985046387" y2="315.3571418353489" fill="rgb(0, 0, 0)" stroke="rgb(168, 160, 149)" stroke-width="1.5px"></line></g></g><g><g><line x1="23.205666542053223" y1="0" x2="23.205666542053223" y2="176.5999994277954" fill="rgb(0, 0, 0)" stroke="rgb(168, 160, 149)" stroke-width="1.5px"></line></g></g><g><g><g><g><g><path style="fill: none;" stroke="rgb(255, 112, 67)" stroke-width="2px" d="M33.471110838928226,188.89624370829242L34.61171576080322,168.72975391789777L35.752320682678224,157.88642213257975L36.89292560455323,147.58451425991356L38.03353052642822,136.0724743873906L39.17413544830322,132.83494995077456L40.31474037017822,127.98179562317799L41.455345292053224,131.48235307305083L42.595950213928226,129.11743988883785L43.73655513580322,134.6196476790261L44.877160057678225,126.80811823809542L46.01776497955322,126.9544843528491L47.15836990142822,127.71409615637556L48.298974823303226,127.10407031574651L49.43957974517822,122.83363578751162L50.580184667053224,117.72225199001623L51.72078958892822,118.01309524757556L52.86139451080322,116.89414143944565L54.001999432678225,109.28470224758449L55.14260435455322,108.25408307028387L56.283209276428224,107.35566284066691L57.42381419830322,107.42761821887106L58.56441912017822,104.68698481097596L59.705024042053225,98.11104405494326L60.84562896392822,96.81809251911328L61.98623388580322,90.2303887979362L63.12683880767822,90.01770354978471L64.26744372955322,88.4578476750269L65.40804865142822,89.87910682688464L66.54865357330323,89.11072528863103L67.68925849517822,86.39538704763383L68.82986341705322,88.21848551741454L69.97046833892823,85.5841068927267L71.11107326080322,84.06363683932808L72.25167818267822,80.25996347085795L73.39228310455321,81.7480868366709L74.53288802642822,82.10838124833796L75.67349294830322,79.70808031197792L76.81409787017822,81.34961194375434L77.95470279205323,78.15502083668189L79.09530771392822,78.10474589536494L80.23591263580323,79.92586536040896L81.37651755767823,75.4115039836641L82.51712247955322,71.70671953515621L83.65772740142822,66.81994332222973L84.79833232330321,65.4178578913806L85.93893724517822,65.19992943278338L87.07954216705322,66.45193650526349L88.22014708892821,65.53827497086259L89.36075201080322,62.580552689134116L90.50135693267823,60.924586964826595L91.64196185455323,60.479601969197375L92.78256677642823,60.0495905148078L93.92317169830322,58.77324337291074L95.06377662017822,57.881579565683936L96.20438154205323,56.6487331253857L97.34498646392822,56.35865856856927L98.48559138580322,57.01550538988944L99.62619630767821,54.70587386537491L100.76680122955322,54.93322455270821L101.90740615142823,53.92050690644707L103.04801107330323,55.29001627059774L104.18861599517822,53.55663449277518L105.32922091705322,56.565124717784485L106.46982583892822,53.84086364803342L107.61043076080323,54.33619687067467L108.75103568267822,52.298396799222914L109.89164060455322,53.859117001923494L111.03224552642821,49.705486853863654L112.17285044830322,48.8732422756068L113.31345537017823,48.33899372247934L114.45406029205323,44.63163858186165L115.59466521392822,45.06395068265591L116.73527013580322,47.10338268887281L117.87587505767821,47.62508100764964L119.01647997955322,48.11795482560078L120.15708490142822,47.29185897671535L121.29768982330322,44.023071766240015L122.43829474517821,43.66958324617843L123.57889966705324,43.07581835758478L124.71950458892823,43.25932690938819L125.86010951080323,44.680339970615954L127.00071443267822,41.92727995546203L128.14131935455322,41.98814369471786L129.28192427642824,42.94692073810578L130.42252919830324,43.99091025122403L131.56313412017823,40.12818883762992L132.70373904205323,40.68736856591478L133.84434396392822,39.16008836181204L134.98494888580322,40.002411876617614L136.12555380767822,39.66562134244073L137.2661587295532,40.0205548863762L138.4067636514282,37.79175698403555L139.5473685733032,38.17950114055242L140.68797349517823,35.31954836323998L141.82857841705322,35.93632109183902L142.96918333892825,34.93634222204247L144.10978826080324,35.3920631092558L145.25039318267824,34.100621057211L146.39099810455323,36.117569497042176L147.53160302642823,36.54838017647265L148.67220794830322,33.751432247831886L149.81281287017822,33.89929260660664L150.95341779205322,33.978362329557726L152.0940227139282,32.26095471062472L153.2346276358032,32.21086593528661L154.37523255767823,30.88161135609745L155.51583747955323,31.51670933182707L156.65644240142822,31.00774950374478L157.79704732330322,32.533334990163894L158.9376522451782,32.809145645845085L160.0782571670532,30.1680290849681L161.2188620889282,28.743507461990298L162.3594670108032,28.491997246468753L163.50007193267822,29.864906079918875L164.64067685455322,28.620760717070848L165.78128177642824,28.158420216057845L166.92188669830324,26.565799770108896L168.06249162017824,26.520576681310043L169.20309654205323,24.479551469709115L170.34370146392823,24.90501283740917L171.48430638580322,27.083437824040306L172.62491130767822,26.604087249937688L173.7655162295532,27.163789302049967L174.9061211514282,27.32632705057789L176.0467260733032,26.942810781736316L177.18733099517823,28.28558302048156L178.32793591705322,26.7615846358106L179.46854083892822,26.077543540712043L180.60914576080322,24.484735614154893L181.7497506826782,24.233477876828584L182.8903556045532,23.899169207265786L184.0309605264282,23.744778899351655L185.17156544830323,24.7326947090448L186.31217037017822,22.713898878996865L187.45277529205325,22.02678004438185L188.59338021392824,21.44451093284625L189.73398513580324,21.56017355252837L190.87459005767823,21.132517375024477L192.01519497955323,21.285309373892837L193.15579990142822,21.431600411223986L194.29640482330322,21.42636871256195L195.43700974517822,22.064619929775976L196.5776146670532,21.438876883154816L197.7182195889282,21.50177127489438L198.85882451080323,22.730718133431722L199.99942943267823,22.19906499703648L201.14003435455322,21.460213860496523L202.28063927642822,19.9546236255357L203.4212441983032,21.48029835387904L204.5618491201782,20.712980500101107L205.7024540420532,22.06198753902502L206.8430589639282,20.8671544150716L207.98366388580322,22.112815732983915L209.12426880767822,22.078801534117645L210.26487372955324,21.959228878300678L211.40547865142824,20.69277886573948L212.54608357330324,21.290425210681146L213.68668849517823,19.85438951228281L214.82729341705323,19.886899435755016L215.96789833892822,21.028834544207946L217.10850326080322,20.970155564398453L218.2491081826782,21.864800863515466L219.3897131045532,20.827059447598955L220.53031802642823,18.03613425050655L221.67092294830323,19.08851393957168L222.81152787017822,18.788036460862585L223.95213279205322,20.37999030860452L225.09273771392822,20.722102843066192L226.2333426358032,18.48007105301851L227.3739475576782,18.13204214468458L228.5145524795532,16.97859034815398L229.6551574014282,17.87295748668629L230.79576232330322,18.436682683906202L231.93636724517825,18.277036995906677L233.07697216705324,17.157977046534306L234.21757708892824,18.30108161901561L235.35818201080323,19.267399397418412L236.49878693267823,18.97893056922207L237.63939185455322,18.47632720010309L238.77999677642822,19.360637125007024L239.92060169830322,19.550204915193454L241.0612066201782,19.389648369827704L242.2018115420532,17.200378989435258L243.34241646392823,16.414464701490786L244.48302138580323,15.932036569583053L245.62362630767822,16.987156359930108L246.76423122955322,16.066233208906628L247.9048361514282,17.246499108286464L249.0454410733032,18.047461964070614L250.1860459951782,18.501964825363334L251.3266509170532,16.641077477165208" fill="none"></path></g></g></g></g><g opacity="0.2"><g><g><g><path style="fill: none;" stroke="rgb(255, 112, 67)" stroke-width="2px" d="M32.33050591705322,180.9941635164016L33.471110838928226,163.6474602156768L34.61171576080322,138.78486686254783L35.752320682678224,141.71977267582636L36.89292560455323,132.18771497862514L38.03353052642822,118.84200338617502L39.17413544830322,127.98500594325597L40.31474037017822,120.70776883251467L41.455345292053224,136.73072038353422L42.595950213928226,125.57107086452056L43.73655513580322,142.87156235434648L44.877160057678225,115.09201408458674L46.01776497955322,127.174020146537L47.15836990142822,128.85347220274852L48.298974823303226,126.18905162796314L49.43957974517822,116.42806830743962L50.580184667053224,110.05523684298717L51.72078958892822,118.44935806672521L52.86139451080322,115.21571549907759L54.001999432678225,97.87056293026211L55.14260435455322,106.70815588657611L56.283209276428224,106.00803332381354L57.42381419830322,107.53555124640866L58.56441912017822,100.5760356079571L59.705024042053225,88.24713422928637L60.84562896392822,94.87866536972082L61.98623388580322,80.34883368803422L63.12683880767822,89.6986756866981L64.26744372955322,86.1180639031127L65.40804865142822,92.01099553268202L66.54865357330323,87.95815298838343L67.68925849517822,82.32237970126197L68.82986341705322,90.95313321599303L69.97046833892823,81.6325389609772L71.11107326080322,81.78293176105944L72.25167818267822,74.5544534208985L73.39228310455321,83.98027188474578L74.53288802642822,82.64882286574495L75.67349294830322,76.1076289078121L76.81409787017822,83.81190939126537L77.95470279205323,73.3631341762525L79.09530771392822,78.02933348339118L80.23591263580323,82.65754455793818L81.37651755767823,68.63996191860146L82.51712247955322,66.1495428624214L83.65772740142822,59.48977900286142L84.79833232330321,63.31472974511062L85.93893724517822,64.87303674488793L87.07954216705322,68.32994711398248L88.22014708892821,64.16778266926165L89.36075201080322,58.143969266542385L90.50135693267823,58.44063837836567L91.64196185455323,59.81212447575361L92.78256677642823,59.40457333322352L93.92317169830322,56.858722660065254L95.06377662017822,56.54408385484383L96.20438154205323,54.799463464938384L97.34498646392822,55.92354673334462L98.48559138580322,58.00077562186966L99.62619630767821,51.24142657860318L100.76680122955322,55.2742505837082L101.90740615142823,52.40143043705532L103.04801107330323,57.344280316823735L104.18861599517822,50.95656182604145L105.32922091705322,61.07786005529842L106.46982583892822,49.75447204340682L107.61043076080323,55.079196704636416L108.75103568267822,49.241696692045274L109.89164060455322,56.20019730597436L111.03224552642821,43.475041631773855L112.17285044830322,47.62487540822146L113.31345537017823,47.537620892788176L114.45406029205323,39.07060587093504L115.59466521392822,45.712418833847295L116.73527013580322,50.16253069819815L117.87587505767821,48.407628485814875L119.01647997955322,48.85726555252747L120.15708490142822,46.052715203387216L121.29768982330322,39.11989095052706L122.43829474517821,43.13935046608597L123.57889966705324,42.18517102469427L124.71950458892823,43.53458973709326L125.86010951080323,46.81185956245752L127.00071443267822,37.797689932731124L128.14131935455322,42.07943930360159L129.28192427642824,44.38508630318767L130.42252919830324,45.55689452090135L131.56313412017823,34.33410671723872L132.70373904205323,41.526138158342114L133.84434396392822,36.86916805565792L134.98494888580322,41.265897148825985L136.12555380767822,39.160435541175396L137.2661587295532,40.552955202279364L138.4067636514282,34.448560130524655L139.5473685733032,38.76111737532773L140.68797349517823,31.029619197271394L141.82857841705322,36.86148018473759L142.96918333892825,33.4363739173477L144.10978826080324,36.07564444007586L145.25039318267824,32.163457979143786L146.39099810455323,39.1429921567889L147.53160302642823,37.19459619561841L148.67220794830322,29.556010354870725L149.81281287017822,34.12108314476877L150.95341779205322,34.09696691398443L152.0940227139282,29.684843282225266L153.2346276358032,32.135732772279475L154.37523255767823,28.887729487313667L155.51583747955323,32.46935629542156L156.65644240142822,30.24430976162133L157.79704732330322,34.821713219792585L158.9376522451782,33.22286162936694L160.0782571670532,26.206354243652616L161.2188620889282,26.606725027523588L162.3594670108032,28.114731923186405L163.50007193267822,31.924269330094095L164.64067685455322,26.754542672798785L165.78128177642824,27.464909464538344L166.92188669830324,24.17686910118542L168.06249162017824,26.4527420481118L169.20309654205323,21.418013652307643L170.34370146392823,25.543204888959256L171.48430638580322,30.35107530398694L172.62491130767822,25.885061388783747L173.7655162295532,28.003342380218363L174.9061211514282,27.570133673369774L176.0467260733032,26.36753637847392L177.18733099517823,30.299741378599542L178.32793591705322,24.475587058804113L179.46854083892822,25.05148189806416L180.60914576080322,22.095523724319186L181.7497506826782,23.856591270839047L182.8903556045532,23.397706202921572L184.0309605264282,23.5131934374804L185.17156544830323,26.214568423584605L186.31217037017822,19.68570513392498L187.45277529205325,20.996101792459356L188.59338021392824,20.57110726554278L189.73398513580324,21.733667482051565L190.87459005767823,20.491033108768594L192.01519497955323,21.514497372195418L193.15579990142822,21.651036967220726L194.29640482330322,21.41852116456889L195.43700974517822,23.021996755596987L196.5776146670532,20.500262313223082L197.7182195889282,21.596112862503762L198.85882451080323,24.57413842123771L199.99942943267823,21.401585292443635L201.14003435455322,20.351937155686656L202.28063927642822,17.69623827309447L203.4212441983032,23.768810446394095L204.5618491201782,19.562003719434138L205.7024540420532,24.085498097410927L206.8430589639282,19.074904729141515L207.98366388580322,23.981307709852384L209.12426880767822,22.027780235818195L210.26487372955324,21.779869894575263L211.40547865142824,18.793103846897647L212.54608357330324,22.18689472809368L213.68668849517823,17.70033596468526L214.82729341705323,19.93566432096332L215.96789833892822,22.741737206887294L217.10850326080322,20.88213709468425L218.2491081826782,23.206768812190965L219.3897131045532,19.270447323724138L220.53031802642823,13.84974645486798L221.67092294830323,20.66708347316933L222.81152787017822,18.337320242798878L223.95213279205322,22.767921080217448L225.09273771392822,21.235271644758633L226.2333426358032,15.117023367946967L227.3739475576782,17.609998782183673L228.5145524795532,15.248412653358141L229.6551574014282,19.2145081944847L230.79576232330322,19.282270479736106L231.93636724517825,18.0375684639073L233.07697216705324,15.479387122475838L234.21757708892824,20.015738477737504L235.35818201080323,20.71687606502257L236.49878693267823,18.546227326927625L237.63939185455322,17.722422146424623L238.77999677642822,20.687102012362878L239.92060169830322,19.834556600473068L241.0612066201782,19.148813551779117L242.2018115420532,13.916474918846493L243.34241646392823,15.23559326957411L244.48302138580323,15.208394371721461L245.62362630767822,18.569836045450714L246.76423122955322,14.684848482371287L247.9048361514282,19.01689795735626L249.0454410733032,19.24890624774685L250.1860459951782,19.18371911730251L251.3266509170532,13.84974645486798" fill="none"></path></g></g></g></g></g></g><g transform="translate(51, 176)" clip-path="url(#clip_1)"><clipPath id="clip_1"><rect width="278" height="23"></rect></clipPath><g><g><line x1="0" y1="0" x2="0" y2="5" style="visibility: inherit;" fill="rgb(0, 0, 0)" stroke="rgb(200, 195, 188)" stroke-width="1px"></line><line x1="23.205666542053223" y1="0" x2="23.205666542053223" y2="5" style="visibility: inherit;" fill="rgb(0, 0, 0)" stroke="rgb(200, 195, 188)" stroke-width="1px"></line><line x1="46.411333084106445" y1="0" x2="46.411333084106445" y2="5" style="visibility: inherit;" fill="rgb(0, 0, 0)" stroke="rgb(200, 195, 188)" stroke-width="1px"></line><line x1="69.61699962615967" y1="0" x2="69.61699962615967" y2="5" style="visibility: inherit;" fill="rgb(0, 0, 0)" stroke="rgb(200, 195, 188)" stroke-width="1px"></line><line x1="92.82266616821289" y1="0" x2="92.82266616821289" y2="5" style="visibility: inherit;" fill="rgb(0, 0, 0)" stroke="rgb(200, 195, 188)" stroke-width="1px"></line><line x1="116.02833271026611" y1="0" x2="116.02833271026611" y2="5" style="visibility: inherit;" fill="rgb(0, 0, 0)" stroke="rgb(200, 195, 188)" stroke-width="1px"></line><line x1="139.23399925231934" y1="0" x2="139.23399925231934" y2="5" style="visibility: inherit;" fill="rgb(0, 0, 0)" stroke="rgb(200, 195, 188)" stroke-width="1px"></line><line x1="162.43966579437256" y1="0" x2="162.43966579437256" y2="5" style="visibility: inherit;" fill="rgb(0, 0, 0)" stroke="rgb(200, 195, 188)" stroke-width="1px"></line><line x1="185.64533233642578" y1="0" x2="185.64533233642578" y2="5" style="visibility: inherit;" fill="rgb(0, 0, 0)" stroke="rgb(200, 195, 188)" stroke-width="1px"></line><line x1="208.850998878479" y1="0" x2="208.850998878479" y2="5" style="visibility: inherit;" fill="rgb(0, 0, 0)" stroke="rgb(200, 195, 188)" stroke-width="1px"></line><line x1="232.05666542053223" y1="0" x2="232.05666542053223" y2="5" style="visibility: inherit;" fill="rgb(0, 0, 0)" stroke="rgb(200, 195, 188)" stroke-width="1px"></line><line x1="255.26233196258545" y1="0" x2="255.26233196258545" y2="5" style="visibility: inherit;" fill="rgb(0, 0, 0)" stroke="rgb(200, 195, 188)" stroke-width="1px"></line><line x1="278.4679985046387" y1="0" x2="278.4679985046387" y2="5" style="visibility: inherit;" fill="rgb(0, 0, 0)" stroke="rgb(200, 195, 188)" stroke-width="1px"></line></g><g transform="translate(0, 8)"><text style="text-anchor: middle; visibility: hidden; font-family: Roboto, sans-serif; font-size: 12px; font-weight: 200;" x="0" y="0" dx="0em" dy="0.95em" fill="rgb(232, 230, 227)" stroke="none" stroke-width="1px">-500k</text><text style="text-anchor: middle; visibility: inherit; font-family: Roboto, sans-serif; font-size: 12px; font-weight: 200;" x="23.205666542053223" y="0" dx="0em" dy="0.95em" fill="rgb(232, 230, 227)" stroke="none" stroke-width="1px">0</text><text style="text-anchor: middle; visibility: hidden; font-family: Roboto, sans-serif; font-size: 12px; font-weight: 200;" x="46.411333084106445" y="0" dx="0em" dy="0.95em" fill="rgb(232, 230, 227)" stroke="none" stroke-width="1px">500k</text><text style="text-anchor: middle; visibility: inherit; font-family: Roboto, sans-serif; font-size: 12px; font-weight: 200;" x="69.61699962615967" y="0" dx="0em" dy="0.95em" fill="rgb(232, 230, 227)" stroke="none" stroke-width="1px">1M</text><text style="text-anchor: middle; visibility: hidden; font-family: Roboto, sans-serif; font-size: 12px; font-weight: 200;" x="92.82266616821289" y="0" dx="0em" dy="0.95em" fill="rgb(232, 230, 227)" stroke="none" stroke-width="1px">1.5M</text><text style="text-anchor: middle; visibility: inherit; font-family: Roboto, sans-serif; font-size: 12px; font-weight: 200;" x="116.02833271026611" y="0" dx="0em" dy="0.95em" fill="rgb(232, 230, 227)" stroke="none" stroke-width="1px">2M</text><text style="text-anchor: middle; visibility: hidden; font-family: Roboto, sans-serif; font-size: 12px; font-weight: 200;" x="139.23399925231934" y="0" dx="0em" dy="0.95em" fill="rgb(232, 230, 227)" stroke="none" stroke-width="1px">2.5M</text><text style="text-anchor: middle; visibility: inherit; font-family: Roboto, sans-serif; font-size: 12px; font-weight: 200;" x="162.43966579437256" y="0" dx="0em" dy="0.95em" fill="rgb(232, 230, 227)" stroke="none" stroke-width="1px">3M</text><text style="text-anchor: middle; visibility: hidden; font-family: Roboto, sans-serif; font-size: 12px; font-weight: 200;" x="185.64533233642578" y="0" dx="0em" dy="0.95em" fill="rgb(232, 230, 227)" stroke="none" stroke-width="1px">3.5M</text><text style="text-anchor: middle; visibility: inherit; font-family: Roboto, sans-serif; font-size: 12px; font-weight: 200;" x="208.850998878479" y="0" dx="0em" dy="0.95em" fill="rgb(232, 230, 227)" stroke="none" stroke-width="1px">4M</text><text style="text-anchor: middle; visibility: hidden; font-family: Roboto, sans-serif; font-size: 12px; font-weight: 200;" x="232.05666542053223" y="0" dx="0em" dy="0.95em" fill="rgb(232, 230, 227)" stroke="none" stroke-width="1px">4.5M</text><text style="text-anchor: middle; visibility: inherit; font-family: Roboto, sans-serif; font-size: 12px; font-weight: 200;" x="255.26233196258545" y="0" dx="0em" dy="0.95em" fill="rgb(232, 230, 227)" stroke="none" stroke-width="1px">5M</text><text style="text-anchor: middle; visibility: hidden; font-family: Roboto, sans-serif; font-size: 12px; font-weight: 200;" x="278.4679985046387" y="0" dx="0em" dy="0.95em" fill="rgb(232, 230, 227)" stroke="none" stroke-width="1px">5.5M</text></g><line x1="0" y1="0" x2="278.4679985046387" y2="0" fill="rgb(0, 0, 0)" stroke="rgb(200, 195, 188)" stroke-width="1px"></line></g></g></g></g></svg>