<svg viewBox="0 0 330 200" xmlns="http://www.w3.org/2000/svg"><g><g><g><g><g><line x1="41.149001121520996" y1="176.5999994277954" x2="36.149001121520996" y2="176.5999994277954" style="visibility: inherit;" fill="rgb(0, 0, 0)" stroke="rgb(200, 195, 188)" stroke-width="1px"></line><line x1="41.149001121520996" y1="156.97777726915146" x2="36.149001121520996" y2="156.97777726915146" style="visibility: inherit;" fill="rgb(0, 0, 0)" stroke="rgb(200, 195, 188)" stroke-width="1px"></line><line x1="41.149001121520996" y1="137.35555511050754" x2="36.149001121520996" y2="137.35555511050754" style="visibility: inherit;" fill="rgb(0, 0, 0)" stroke="rgb(200, 195, 188)" stroke-width="1px"></line><line x1="41.149001121520996" y1="117.73333295186357" x2="36.149001121520996" y2="117.73333295186357" style="visibility: inherit;" fill="rgb(0, 0, 0)" stroke="rgb(200, 195, 188)" stroke-width="1px"></line><line x1="41.149001121520996" y1="98.11111079321968" x2="36.149001121520996" y2="98.11111079321968" style="visibility: inherit;" fill="rgb(0, 0, 0)" stroke="rgb(200, 195, 188)" stroke-width="1px"></line><line x1="41.149001121520996" y1="78.48888863457573" x2="36.149001121520996" y2="78.48888863457573" style="visibility: inherit;" fill="rgb(0, 0, 0)" stroke="rgb(200, 195, 188)" stroke-width="1px"></line><line x1="41.149001121520996" y1="58.86666647593177" x2="36.149001121520996" y2="58.86666647593177" style="visibility: inherit;" fill="rgb(0, 0, 0)" stroke="rgb(200, 195, 188)" stroke-width="1px"></line><line x1="41.149001121520996" y1="39.244444317287865" x2="36.149001121520996" y2="39.244444317287865" style="visibility: inherit;" fill="rgb(0, 0, 0)" stroke="rgb(200, 195, 188)" stroke-width="1px"></line><line x1="41.149001121520996" y1="19.622222158643904" x2="36.149001121520996" y2="19.622222158643904" style="visibility: inherit;" fill="rgb(0, 0, 0)" stroke="rgb(200, 195, 188)" stroke-width="1px"></line><line x1="41.149001121520996" y1="0" x2="36.149001121520996" y2="0" style="visibility: inherit;" fill="rgb(0, 0, 0)" stroke="rgb(200, 195, 188)" stroke-width="1px"></line></g><g transform="translate(31.149001121520996, 0)"><text style="text-anchor: end; visibility: hidden; font-family: Roboto, sans-serif; font-size: 12px; font-weight: 200;" x="0" y="176.5999994277954" dx="0em" dy="0.3em" fill="rgb(232, 230, 227)" stroke="none" stroke-width="1px">2</text><text style="text-anchor: end; visibility: inherit; font-family: Roboto, sans-serif; font-size: 12px; font-weight: 200;" x="0" y="156.97777726915146" dx="0em" dy="0.3em" fill="rgb(232, 230, 227)" stroke="none" stroke-width="1px">2.2</text><text style="text-anchor: end; visibility: hidden; font-family: Roboto, sans-serif; font-size: 12px; font-weight: 200;" x="0" y="137.35555511050754" dx="0em" dy="0.3em" fill="rgb(232, 230, 227)" stroke="none" stroke-width="1px">2.4</text><text style="text-anchor: end; visibility: inherit; font-family: Roboto, sans-serif; font-size: 12px; font-weight: 200;" x="0" y="117.73333295186357" dx="0em" dy="0.3em" fill="rgb(232, 230, 227)" stroke="none" stroke-width="1px">2.6</text><text style="text-anchor: end; visibility: hidden; font-family: Roboto, sans-serif; font-size: 12px; font-weight: 200;" x="0" y="98.11111079321968" dx="0em" dy="0.3em" fill="rgb(232, 230, 227)" stroke="none" stroke-width="1px">2.8</text><text style="text-anchor: end; visibility: inherit; font-family: Roboto, sans-serif; font-size: 12px; font-weight: 200;" x="0" y="78.48888863457573" dx="0em" dy="0.3em" fill="rgb(232, 230, 227)" stroke="none" stroke-width="1px">3</text><text style="text-anchor: end; visibility: hidden; font-family: Roboto, sans-serif; font-size: 12px; font-weight: 200;" x="0" y="58.86666647593177" dx="0em" dy="0.3em" fill="rgb(232, 230, 227)" stroke="none" stroke-width="1px">3.2</text><text style="text-anchor: end; visibility: inherit; font-family: Roboto, sans-serif; font-size: 12px; font-weight: 200;" x="0" y="39.244444317287865" dx="0em" dy="0.3em" fill="rgb(232, 230, 227)" stroke="none" stroke-width="1px">3.4</text><text style="text-anchor: end; visibility: hidden; font-family: Roboto, sans-serif; font-size: 12px; font-weight: 200;" x="0" y="19.622222158643904" dx="0em" dy="0.3em" fill="rgb(232, 230, 227)" stroke="none" stroke-width="1px">3.6</text><text style="text-anchor: end; visibility: hidden; font-family: Roboto, sans-serif; font-size: 12px; font-weight: 200;" x="0" y="0" dx="0em" dy="0.3em" fill="rgb(232, 230, 227)" stroke="none" stroke-width="1px">3.8</text></g><line x1="41.149001121520996" y1="0" x2="41.149001121520996" y2="176.5999994277954" fill="rgb(0, 0, 0)" stroke="rgb(200, 195, 188)" stroke-width="1px"></line></g></g><g transform="translate(41, 0)" clip-path="url(#clip_0)"><clipPath id="clip_0"><rect width="288" height="176"></rect></clipPath><g><g><g><line x1="0" y1="0" x2="0" y2="176.5999994277954" fill="rgb(0, 0, 0)" stroke="rgb(194, 189, 181)" stroke-width="1px" opacity="0.25"></line><line x1="24.07091657320658" y1="0" x2="24.07091657320658" y2="176.5999994277954" fill="rgb(0, 0, 0)" stroke="rgb(194, 189, 181)" stroke-width="1px" opacity="0.25"></line><line x1="48.14183314641316" y1="0" x2="48.14183314641316" y2="176.5999994277954" fill="rgb(0, 0, 0)" stroke="rgb(194, 189, 181)" stroke-width="1px" opacity="0.25"></line><line x1="72.21274971961975" y1="0" x2="72.21274971961975" y2="176.5999994277954" fill="rgb(0, 0, 0)" stroke="rgb(194, 189, 181)" stroke-width="1px" opacity="0.25"></line><line x1="96.28366629282633" y1="0" x2="96.28366629282633" y2="176.5999994277954" fill="rgb(0, 0, 0)" stroke="rgb(194, 189, 181)" stroke-width="1px" opacity="0.25"></line><line x1="120.35458286603293" y1="0" x2="120.35458286603293" y2="176.5999994277954" fill="rgb(0, 0, 0)" stroke="rgb(194, 189, 181)" stroke-width="1px" opacity="0.25"></line><line x1="144.4254994392395" y1="0" x2="144.4254994392395" y2="176.5999994277954" fill="rgb(0, 0, 0)" stroke="rgb(194, 189, 181)" stroke-width="1px" opacity="0.25"></line><line x1="168.4964160124461" y1="0" x2="168.4964160124461" y2="176.5999994277954" fill="rgb(0, 0, 0)" stroke="rgb(194, 189, 181)" stroke-width="1px" opacity="0.25"></line><line x1="192.56733258565265" y1="0" x2="192.56733258565265" y2="176.5999994277954" fill="rgb(0, 0, 0)" stroke="rgb(194, 189, 181)" stroke-width="1px" opacity="0.25"></line><line x1="216.63824915885925" y1="0" x2="216.63824915885925" y2="176.5999994277954" fill="rgb(0, 0, 0)" stroke="rgb(194, 189, 181)" stroke-width="1px" opacity="0.25"></line><line x1="240.70916573206586" y1="0" x2="240.70916573206586" y2="176.5999994277954" fill="rgb(0, 0, 0)" stroke="rgb(194, 189, 181)" stroke-width="1px" opacity="0.25"></line><line x1="264.7800823052724" y1="0" x2="264.7800823052724" y2="176.5999994277954" fill="rgb(0, 0, 0)" stroke="rgb(194, 189, 181)" stroke-width="1px" opacity="0.25"></line><line x1="288.850998878479" y1="0" x2="288.850998878479" y2="176.5999994277954" fill="rgb(0, 0, 0)" stroke="rgb(194, 189, 181)" stroke-width="1px" opacity="0.25"></line></g><g><line x1="0" y1="176.5999994277954" x2="288.850998878479" y2="176.5999994277954" fill="rgb(0, 0, 0)" stroke="rgb(194, 189, 181)" stroke-width="1px" opacity="0.25"></line><line x1="0" y1="156.97777726915146" x2="288.850998878479" y2="156.97777726915146" fill="rgb(0, 0, 0)" stroke="rgb(194, 189, 181)" stroke-width="1px" opacity="0.25"></line><line x1="0" y1="137.35555511050754" x2="288.850998878479" y2="137.35555511050754" fill="rgb(0, 0, 0)" stroke="rgb(194, 189, 181)" stroke-width="1px" opacity="0.25"></line><line x1="0" y1="117.73333295186357" x2="288.850998878479" y2="117.73333295186357" fill="rgb(0, 0, 0)" stroke="rgb(194, 189, 181)" stroke-width="1px" opacity="0.25"></line><line x1="0" y1="98.11111079321968" x2="288.850998878479" y2="98.11111079321968" fill="rgb(0, 0, 0)" stroke="rgb(194, 189, 181)" stroke-width="1px" opacity="0.25"></line><line x1="0" y1="78.48888863457573" x2="288.850998878479" y2="78.48888863457573" fill="rgb(0, 0, 0)" stroke="rgb(194, 189, 181)" stroke-width="1px" opacity="0.25"></line><line x1="0" y1="58.86666647593177" x2="288.850998878479" y2="58.86666647593177" fill="rgb(0, 0, 0)" stroke="rgb(194, 189, 181)" stroke-width="1px" opacity="0.25"></line><line x1="0" y1="39.244444317287865" x2="288.850998878479" y2="39.244444317287865" fill="rgb(0, 0, 0)" stroke="rgb(194, 189, 181)" stroke-width="1px" opacity="0.25"></line><line x1="0" y1="19.622222158643904" x2="288.850998878479" y2="19.622222158643904" fill="rgb(0, 0, 0)" stroke="rgb(194, 189, 181)" stroke-width="1px" opacity="0.25"></line><line x1="0" y1="0" x2="288.850998878479" y2="0" fill="rgb(0, 0, 0)" stroke="rgb(194, 189, 181)" stroke-width="1px" opacity="0.25"></line></g></g></g><g><g><line x1="0" y1="372.82222101423474" x2="288.850998878479" y2="372.82222101423474" fill="rgb(0, 0, 0)" stroke="rgb(168, 160, 149)" stroke-width="1.5px"></line></g></g><g><g><line x1="24.07091657320658" y1="0" x2="24.07091657320658" y2="176.5999994277954" fill="rgb(0, 0, 0)" stroke="rgb(168, 160, 149)" stroke-width="1.5px"></line></g></g><g><g><g><g><g><path style="fill: none;" stroke="rgb(255, 112, 67)" stroke-width="2px" d="M33.53598610445658,-5.501972445422335L34.71911979586284,3.2451598598859133L35.902253487269085,13.421413723178878L37.08538717867533,17.22439594586671L38.26852087008159,21.619514082431536L39.451654561487835,25.074855734576882L40.63478825289408,27.358387168100464L41.81792194430034,29.67580800108492L43.00105563570658,29.052089854710733L44.18418932711283,31.4397040931604L45.36732301851908,32.80538816659403L46.550456709925335,35.702957084387904L47.73359040133158,36.468515603455096L48.91672409273783,38.17151190390659L50.099857784144085,41.83469003419774L51.28299147555033,47.964261091950995L52.46612516695659,50.027005774100516L53.649258858362835,50.024247079397355L54.83239254976908,53.45441317582697L56.01552624117534,57.0152374736178L57.198659932581585,58.170511344044726L58.38179362398784,59.56426060029492L59.56492731539408,60.020079552742914L60.74806100680033,61.69630385857057L61.93119469820658,64.18309536796764L63.11432838961283,67.24650905058614L64.29746208101909,71.47507615750438L65.48059577242533,73.35233243310334L66.66372946383159,74.5992647432L67.84686315523784,74.53173403564766L69.02999684664408,78.19164048563871L70.21313053805034,81.62965490401453L71.39626422945658,82.65676226664097L72.57939792086283,83.61096853042145L73.76253161226909,84.15008920957699L74.94566530367533,87.44931744799943L76.12879899508158,87.38074977144642L77.31193268648784,87.82872567374373L78.49506637789409,89.653130947986L79.67820006930033,91.05703796602464L80.86133376070659,93.18646735613433L82.04446745211283,95.84447680464805L83.2276011435191,100.16751868453363L84.41073483492534,102.7629063654195L85.59386852633158,104.37688678115606L86.77700221773783,105.75686271262187L87.96013590914407,105.23158382750535L89.14326960055034,105.2910736599017L90.32640329195658,105.57737485833228L91.50953698336284,105.3556448555515L92.69267067476908,104.9151301118169L93.87580436617534,104.86218696465941L95.05893805758159,105.39830148249413L96.24207174898784,107.0783526999326L97.42520544039408,108.39948349185742L98.60833913180034,109.35112132344102L99.79147282320659,109.88352674141201L100.97460651461284,108.70452847042478L102.15774020601908,108.98065836240666L103.34087389742533,108.84628869962324L104.52400758883158,109.68506558824421L105.70714128023783,110.33778476751937L106.89027497164409,111.3658338102877L108.07340866305033,112.10811659111951L109.25654235445658,113.59120856833576L110.43967604586283,113.92243703053697L111.6228097372691,114.0379751792943L112.80594342867533,114.29623598628162L113.98907712008159,116.2533774490538L115.17221081148783,117.9493585322852L116.35534450289407,119.23461157149686L117.53847819430034,121.83362289676809L118.72161188570658,124.56007899014465L119.90474557711283,124.55599247904293L121.08787926851907,123.69405222567605L122.27101295992533,123.16588470658546L123.45414665133158,122.5641878627409L124.63728034273784,124.03449120189947L125.82041403414408,124.81377862403929L127.00354772555033,124.92492993632374L128.1866814169566,124.21907394741271L129.36981510836284,123.47756678837143L130.5529487997691,126.38478774529953L131.73608249117532,127.87086867446318L132.91921618258158,129.82231177105209L134.10234987398783,130.10096923583237L135.2854835653941,130.18177418395084L136.46861725680034,129.08116317893484L137.65175094820657,129.78863860996574L138.83488463961282,129.12263966623587L140.01801833101908,128.0682276800493L141.20115202242533,127.59019838020764L142.3842857138316,127.83690375415057L143.56741940523784,128.87071674089825L144.75055309664407,131.6747050662021L145.93368678805032,133.44778227366922L147.11682047945658,133.68407434312013L148.29995417086286,133.36334326024962L149.4830878622691,134.12139529407614L150.66622155367534,134.39652356543039L151.8493552450816,134.52688752498491L153.03248893648782,136.38688412455195L154.21562262789408,136.92260417699947L155.39875631930033,137.84505770827363L156.5818900107066,137.55155126075167L157.7650237021128,137.24328535153242L158.94815739351907,139.77507210626675L160.13129108492535,140.6416239072984L161.3144247763316,142.59605347349705L162.49755846773783,142.51472970118297L163.6806921591441,142.95321805145338L164.86382585055034,144.22316593158672L166.04695954195657,144.9914222979927L167.23009323336282,145.45054222332453L168.41322692476908,146.00694623319265L169.59636061617533,147.48940542616336L170.77949430758156,148.12579414272037L171.96262799898784,149.43740253350444L173.1457616903941,149.7311809367807L174.32889538180035,151.82430750393823L175.51202907320658,152.76576410151506L176.69516276461283,153.00943517897096L177.8782964560191,153.02517868678504L179.06143014742534,152.70340098680123L180.24456383883157,153.52750021510823L181.42769753023782,155.20747898788883L182.61083122164408,156.90523514648476L183.79396491305036,159.9283542561885L184.9770986044566,160.43502384271824L186.16023229586284,161.02844408972425L187.3433659872691,159.60004202516316L188.52649967867532,158.78490901866175L189.70963337008158,159.13075647425592L190.89276706148783,158.8739808681875L192.07590075289409,159.25771442672018L193.2590344443003,160.07495986787714L194.4421681357066,160.02915497281626L195.62530182711285,161.24197419181218L196.8084355185191,162.64731781511333L197.99156920992533,162.83964114309907L199.17470290133159,162.83780624020866L200.35783659273784,161.64361656951476L201.54097028414407,161.20995292572113L202.72410397555032,162.0532820486779L203.90723766695658,162.79612325600195L205.09037135836283,161.64837013838797L206.27350504976908,159.91066511086913L207.45663874117534,159.67266331138578L208.6397724325816,160.95918651490297L209.82290612398785,160.62296032168695L211.00603981539408,161.64768834350983L212.18917350680033,160.62911461273217L213.37230719820658,160.0509711188723L214.5554408896128,159.77856359558442L215.73857458101907,159.6463420713346L216.92170827242532,160.29538340250542L218.1048419638316,162.54555616830314L219.28797565523783,162.73616130952186L220.47110934664408,163.45289324512865L221.65424303805034,163.90835430133157L222.8373767294566,164.6892641638298L224.02051042086282,165.0976564700226L225.20364411226907,165.722775847902L226.38677780367533,165.097860352473L227.56991149508158,164.4095770786375L228.75304518648784,163.18571697219156L229.9361788778941,164.12240628968615L231.11931256930035,163.15801146710905L232.3024462607066,160.9381886912258L233.48557995211283,160.46201266072705L234.66871364351908,160.63889757641073L235.85184733492534,161.61333079410875L237.03498102633156,163.91953112781383L238.21811471773782,165.34323209971387L239.40124840914407,165.64948313142364L240.58438210055036,166.09753911865235L241.76751579195658,165.87890296523767L242.95064948336284,165.35914148200135L244.1337831747691,165.44624085780583L245.31691686617535,166.43789423372039L246.50005055758157,166.26370786066207L247.68318424898783,167.36586119913642L248.86631794039408,167.7491310515987L250.0494516318003,168.46463524826973L251.23258532320656,169.0013515876745L252.41571901461285,168.52869688842964L253.5988527060191,169.3242293531839L254.78198639742533,170.23082985345914L255.96512008883158,171.00894854163917L257.14825378023784,172.1311095613331L258.33138747164406,172.44273597694038L259.51452116305035,172.8741811926459L260.6976548544566,173.54937044604915" fill="none"></path></g></g></g></g><g opacity="0.2"><g><g><g><path style="fill: none;" stroke="rgb(255, 112, 67)" stroke-width="2px" d="M32.352852413050336,-0.8675163134970703L33.53598610445658,6.898184849322641L34.71911979586284,16.145480967236633L35.902253487269085,28.531964728838762L37.08538717867533,22.894376511038175L38.26852087008159,28.188273248468047L39.451654561487835,30.246585922785084L40.63478825289408,30.779210642586417L41.81792194430034,33.14921520936512L43.00105563570658,28.116952529510037L44.18418932711283,35.020115092507424L45.36732301851908,34.85356752970613L46.550456709925335,40.04886904561811L47.73359040133158,37.61678340697499L48.91672409273783,40.72591295821933L50.099857784144085,47.32933669119766L51.28299147555033,57.158496660892865L52.46612516695659,53.121098362147585L53.649258858362835,50.02010905695027L54.83239254976908,58.599647692379925L56.01552624117534,62.3564648091306L57.198659932581585,59.90342037606754L58.38179362398784,61.654883200830135L59.56492731539408,60.70380772949054L60.74806100680033,64.21063976145788L61.93119469820658,67.91328213727488L63.11432838961283,71.84162920880392L64.29746208101909,77.81792651499816L65.48059577242533,76.1682167658234L66.66372946383159,76.46966317619142L67.84686315523784,74.430437975364L69.02999684664408,83.68150012665032L70.21313053805034,86.78667651242931L71.39626422945658,84.19742330714828L72.57939792086283,85.04227792417878L73.76253161226909,84.95877022766183L74.94566530367533,92.39815980325147L76.12879899508158,87.27789825664661L77.31193268648784,88.50068952707325L78.49506637789409,92.38973885906489L79.67820006930033,93.16289849295131L80.86133376070659,96.38061144117933L82.04446745211283,99.83149097732912L83.2276011435191,106.65208150427478L84.41073483492534,106.65598788671687L85.59386852633158,106.79785740474915L86.77700221773783,107.82682660981463L87.96013590914407,104.44366549983192L89.14326960055034,105.38030840849618L90.32640329195658,106.0068266559779L91.50953698336284,105.02304985138042L92.69267067476908,104.25435799621523L93.87580436617534,104.78277224392328L95.05893805758159,106.20247325924615L96.24207174898784,109.59842952609014L97.42520544039408,110.3811796797446L98.60833913180034,110.77857807081641L99.79147282320659,110.68213486836842L100.97460651461284,106.93603106394399L102.15774020601908,109.39485320037952L103.34087389742533,108.64473420544807L104.52400758883158,110.94323092117573L105.70714128023783,111.31686353643207L106.89027497164409,112.90790737444027L108.07340866305033,113.2215407623672L109.25654235445658,115.81584653416019L110.43967604586283,114.41927972383878L111.6228097372691,114.2112824024302L112.80594342867533,114.68362719676256L113.98907712008159,119.18908964321204L115.17221081148783,120.49333015713223L116.35534450289407,121.16249113031435L117.53847819430034,125.73213988467492L118.72161188570658,128.64976313020938L119.90474557711283,124.54986271239036L121.08787926851907,122.40114184562574L122.27101295992533,122.37363342794956L123.45414665133158,121.66164259697402L124.63728034273784,126.23994621063744L125.82041403414408,125.982709757249L127.00354772555033,125.09165690475042L128.1866814169566,123.16028996404614L129.36981510836284,122.36530604980949L130.5529487997691,130.74561918069156L131.73608249117532,130.09999006820865L132.91921618258158,132.74947641593536L134.10234987398783,130.51895543300276L135.2854835653941,130.30298160612853L136.46861725680034,127.43024667141086L137.65175094820657,130.84985175651218L138.83488463961282,128.12364125064101L140.01801833101908,126.48660970076942L141.20115202242533,126.87315443044517L142.3842857138316,128.20696181506494L143.56741940523784,130.4214362210198L144.75055309664407,135.88068755415787L145.93368678805032,136.10739808486997L147.11682047945658,134.03851244729645L148.29995417086286,132.88224663594383L149.4830878622691,135.25847334481597L150.66622155367534,134.8092159724618L151.8493552450816,134.72243346431674L153.03248893648782,139.1768790239025L154.21562262789408,137.72618425567066L155.39875631930033,139.22873800518488L156.5818900107066,137.11129158946875L157.7650237021128,136.78088648770353L158.94815739351907,143.57275223836828L160.13129108492535,141.94145160884585L161.3144247763316,145.52769782279498L162.49755846773783,142.39274404271177L163.6806921591441,143.61095057685907L164.86382585055034,146.1280877517867L166.04695954195657,146.14380684760164L167.23009323336282,146.13922211132225L168.41322692476908,146.84155224799488L169.59636061617533,149.71309421561946L170.77949430758156,149.08037721755593L171.96262799898784,151.40481511968056L173.1457616903941,150.17184854169514L174.32889538180035,154.9639973546745L175.51202907320658,154.1779489978803L176.69516276461283,153.3749417951548L177.8782964560191,153.0487939485061L179.06143014742534,152.22073443682552L180.24456383883157,154.76364905756873L181.42769753023782,157.72744714705965L182.61083122164408,159.45186938437865L183.79396491305036,164.46303292074407L184.9770986044566,161.19502822251283L186.16023229586284,161.9185744602333L187.3433659872691,157.45743892832155L188.52649967867532,157.56220950890958L189.70963337008158,159.64952765764707L190.89276706148783,158.48881745908483L192.07590075289409,159.83331476451923L193.2590344443003,161.3008280296126L194.4421681357066,159.960447630225L195.62530182711285,163.061203020306L196.8084355185191,164.75533325006498L197.99156920992533,163.1281261350777L199.17470290133159,162.83505388587304L200.35783659273784,159.85233206347394L201.54097028414407,160.55945746003053L202.72410397555032,163.31827573311307L203.90723766695658,163.91038506698797L205.09037135836283,159.92674046196703L206.27350504976908,157.30410756959083L207.45663874117534,159.31566061216068L208.6397724325816,162.88897132017877L209.82290612398785,160.11862103186294L211.00603981539408,163.1847803762441L212.18917350680033,159.10125401656566L213.37230719820658,159.18375587808254L214.5554408896128,159.36995231065254L215.73857458101907,159.44800978495982L216.92170827242532,161.26894539926175L218.1048419638316,165.9208153169996L219.28797565523783,163.02206902135003L220.47110934664408,164.5279911485389L221.65424303805034,164.59154588563595L222.8373767294566,165.86062895757715L224.02051042086282,165.71024492931178L225.20364411226907,166.6604549147211L226.38677780367533,164.16048710932947L227.56991149508158,163.37715216788428L228.75304518648784,161.3499268125227L229.9361788778941,165.52744026592808L231.11931256930035,161.71141923324336L232.3024462607066,157.6084545274009L233.48557995211283,159.7477486149789L234.66871364351908,160.9042249499362L235.85184733492534,163.0749806206557L237.03498102633156,167.37883162837144L238.21811471773782,167.47878355756387L239.40124840914407,166.1088596789883L240.58438210055036,166.76962309949548L241.76751579195658,165.55094873511558L242.95064948336284,164.5794992571468L244.1337831747691,165.57688992151262L245.31691686617535,167.92537429759227L246.50005055758157,166.00242830107456L247.68318424898783,169.01909120684792L248.86631794039408,168.32403583029208L250.0494516318003,169.5378915432763L251.23258532320656,169.80642609678173L252.41571901461285,167.8197148395623L253.5988527060191,170.51752805031535L254.78198639742533,171.59073060387203L255.96512008883158,172.17612657390924L257.14825378023784,173.81435109087397L258.33138747164406,172.91017560035132L259.51452116305035,173.52134901620417L260.6976548544566,174.56215432615411" fill="none"></path></g></g></g></g></g></g><g transform="translate(41, 176)" clip-path="url(#clip_1)"><clipPath id="clip_1"><rect width="288" height="23"></rect></clipPath><g><g><line x1="0" y1="0" x2="0" y2="5" style="visibility: inherit;" fill="rgb(0, 0, 0)" stroke="rgb(200, 195, 188)" stroke-width="1px"></line><line x1="24.07091657320658" y1="0" x2="24.07091657320658" y2="5" style="visibility: inherit;" fill="rgb(0, 0, 0)" stroke="rgb(200, 195, 188)" stroke-width="1px"></line><line x1="48.14183314641316" y1="0" x2="48.14183314641316" y2="5" style="visibility: inherit;" fill="rgb(0, 0, 0)" stroke="rgb(200, 195, 188)" stroke-width="1px"></line><line x1="72.21274971961975" y1="0" x2="72.21274971961975" y2="5" style="visibility: inherit;" fill="rgb(0, 0, 0)" stroke="rgb(200, 195, 188)" stroke-width="1px"></line><line x1="96.28366629282633" y1="0" x2="96.28366629282633" y2="5" style="visibility: inherit;" fill="rgb(0, 0, 0)" stroke="rgb(200, 195, 188)" stroke-width="1px"></line><line x1="120.35458286603293" y1="0" x2="120.35458286603293" y2="5" style="visibility: inherit;" fill="rgb(0, 0, 0)" stroke="rgb(200, 195, 188)" stroke-width="1px"></line><line x1="144.4254994392395" y1="0" x2="144.4254994392395" y2="5" style="visibility: inherit;" fill="rgb(0, 0, 0)" stroke="rgb(200, 195, 188)" stroke-width="1px"></line><line x1="168.4964160124461" y1="0" x2="168.4964160124461" y2="5" style="visibility: inherit;" fill="rgb(0, 0, 0)" stroke="rgb(200, 195, 188)" stroke-width="1px"></line><line x1="192.56733258565265" y1="0" x2="192.56733258565265" y2="5" style="visibility: inherit;" fill="rgb(0, 0, 0)" stroke="rgb(200, 195, 188)" stroke-width="1px"></line><line x1="216.63824915885925" y1="0" x2="216.63824915885925" y2="5" style="visibility: inherit;" fill="rgb(0, 0, 0)" stroke="rgb(200, 195, 188)" stroke-width="1px"></line><line x1="240.70916573206586" y1="0" x2="240.70916573206586" y2="5" style="visibility: inherit;" fill="rgb(0, 0, 0)" stroke="rgb(200, 195, 188)" stroke-width="1px"></line><line x1="264.7800823052724" y1="0" x2="264.7800823052724" y2="5" style="visibility: inherit;" fill="rgb(0, 0, 0)" stroke="rgb(200, 195, 188)" stroke-width="1px"></line><line x1="288.850998878479" y1="0" x2="288.850998878479" y2="5" style="visibility: inherit;" fill="rgb(0, 0, 0)" stroke="rgb(200, 195, 188)" stroke-width="1px"></line></g><g transform="translate(0, 8)"><text style="text-anchor: middle; visibility: hidden; font-family: Roboto, sans-serif; font-size: 12px; font-weight: 200;" x="0" y="0" dx="0em" dy="0.95em" fill="rgb(232, 230, 227)" stroke="none" stroke-width="1px">-500k</text><text style="text-anchor: middle; visibility: inherit; font-family: Roboto, sans-serif; font-size: 12px; font-weight: 200;" x="24.07091657320658" y="0" dx="0em" dy="0.95em" fill="rgb(232, 230, 227)" stroke="none" stroke-width="1px">0</text><text style="text-anchor: middle; visibility: hidden; font-family: Roboto, sans-serif; font-size: 12px; font-weight: 200;" x="48.14183314641316" y="0" dx="0em" dy="0.95em" fill="rgb(232, 230, 227)" stroke="none" stroke-width="1px">500k</text><text style="text-anchor: middle; visibility: inherit; font-family: Roboto, sans-serif; font-size: 12px; font-weight: 200;" x="72.21274971961975" y="0" dx="0em" dy="0.95em" fill="rgb(232, 230, 227)" stroke="none" stroke-width="1px">1M</text><text style="text-anchor: middle; visibility: hidden; font-family: Roboto, sans-serif; font-size: 12px; font-weight: 200;" x="96.28366629282633" y="0" dx="0em" dy="0.95em" fill="rgb(232, 230, 227)" stroke="none" stroke-width="1px">1.5M</text><text style="text-anchor: middle; visibility: inherit; font-family: Roboto, sans-serif; font-size: 12px; font-weight: 200;" x="120.35458286603293" y="0" dx="0em" dy="0.95em" fill="rgb(232, 230, 227)" stroke="none" stroke-width="1px">2M</text><text style="text-anchor: middle; visibility: hidden; font-family: Roboto, sans-serif; font-size: 12px; font-weight: 200;" x="144.4254994392395" y="0" dx="0em" dy="0.95em" fill="rgb(232, 230, 227)" stroke="none" stroke-width="1px">2.5M</text><text style="text-anchor: middle; visibility: inherit; font-family: Roboto, sans-serif; font-size: 12px; font-weight: 200;" x="168.4964160124461" y="0" dx="0em" dy="0.95em" fill="rgb(232, 230, 227)" stroke="none" stroke-width="1px">3M</text><text style="text-anchor: middle; visibility: hidden; font-family: Roboto, sans-serif; font-size: 12px; font-weight: 200;" x="192.56733258565265" y="0" dx="0em" dy="0.95em" fill="rgb(232, 230, 227)" stroke="none" stroke-width="1px">3.5M</text><text style="text-anchor: middle; visibility: inherit; font-family: Roboto, sans-serif; font-size: 12px; font-weight: 200;" x="216.63824915885925" y="0" dx="0em" dy="0.95em" fill="rgb(232, 230, 227)" stroke="none" stroke-width="1px">4M</text><text style="text-anchor: middle; visibility: hidden; font-family: Roboto, sans-serif; font-size: 12px; font-weight: 200;" x="240.70916573206586" y="0" dx="0em" dy="0.95em" fill="rgb(232, 230, 227)" stroke="none" stroke-width="1px">4.5M</text><text style="text-anchor: middle; visibility: inherit; font-family: Roboto, sans-serif; font-size: 12px; font-weight: 200;" x="264.7800823052724" y="0" dx="0em" dy="0.95em" fill="rgb(232, 230, 227)" stroke="none" stroke-width="1px">5M</text><text style="text-anchor: middle; visibility: hidden; font-family: Roboto, sans-serif; font-size: 12px; font-weight: 200;" x="288.850998878479" y="0" dx="0em" dy="0.95em" fill="rgb(232, 230, 227)" stroke="none" stroke-width="1px">5.5M</text></g><line x1="0" y1="0" x2="288.850998878479" y2="0" fill="rgb(0, 0, 0)" stroke="rgb(200, 195, 188)" stroke-width="1px"></line></g></g></g></g></svg>