<svg viewBox="0 0 1513 400" xmlns="http://www.w3.org/2000/svg"><g><g><g><g><g><line x1="61.91500186920166" y1="376.5999994277954" x2="56.91500186920166" y2="376.5999994277954" style="visibility: inherit;" fill="rgb(0, 0, 0)" stroke="rgb(200, 195, 188)" stroke-width="1px"></line><line x1="61.91500186920166" y1="347.6307687025804" x2="56.91500186920166" y2="347.6307687025804" style="visibility: inherit;" fill="rgb(0, 0, 0)" stroke="rgb(200, 195, 188)" stroke-width="1px"></line><line x1="61.91500186920166" y1="318.66153797736536" x2="56.91500186920166" y2="318.66153797736536" style="visibility: inherit;" fill="rgb(0, 0, 0)" stroke="rgb(200, 195, 188)" stroke-width="1px"></line><line x1="61.91500186920166" y1="289.69230725215033" x2="56.91500186920166" y2="289.69230725215033" style="visibility: inherit;" fill="rgb(0, 0, 0)" stroke="rgb(200, 195, 188)" stroke-width="1px"></line><line x1="61.91500186920166" y1="260.7230765269353" x2="56.91500186920166" y2="260.7230765269353" style="visibility: inherit;" fill="rgb(0, 0, 0)" stroke="rgb(200, 195, 188)" stroke-width="1px"></line><line x1="61.91500186920166" y1="231.75384580172027" x2="56.91500186920166" y2="231.75384580172027" style="visibility: inherit;" fill="rgb(0, 0, 0)" stroke="rgb(200, 195, 188)" stroke-width="1px"></line><line x1="61.91500186920166" y1="202.78461507650525" x2="56.91500186920166" y2="202.78461507650525" style="visibility: inherit;" fill="rgb(0, 0, 0)" stroke="rgb(200, 195, 188)" stroke-width="1px"></line><line x1="61.91500186920166" y1="173.81538435129025" x2="56.91500186920166" y2="173.81538435129025" style="visibility: inherit;" fill="rgb(0, 0, 0)" stroke="rgb(200, 195, 188)" stroke-width="1px"></line><line x1="61.91500186920166" y1="144.8461536260752" x2="56.91500186920166" y2="144.8461536260752" style="visibility: inherit;" fill="rgb(0, 0, 0)" stroke="rgb(200, 195, 188)" stroke-width="1px"></line><line x1="61.91500186920166" y1="115.87692290086014" x2="56.91500186920166" y2="115.87692290086014" style="visibility: inherit;" fill="rgb(0, 0, 0)" stroke="rgb(200, 195, 188)" stroke-width="1px"></line><line x1="61.91500186920166" y1="86.90769217564517" x2="56.91500186920166" y2="86.90769217564517" style="visibility: inherit;" fill="rgb(0, 0, 0)" stroke="rgb(200, 195, 188)" stroke-width="1px"></line><line x1="61.91500186920166" y1="57.93846145043011" x2="56.91500186920166" y2="57.93846145043011" style="visibility: inherit;" fill="rgb(0, 0, 0)" stroke="rgb(200, 195, 188)" stroke-width="1px"></line><line x1="61.91500186920166" y1="28.969230725215056" x2="56.91500186920166" y2="28.969230725215056" style="visibility: inherit;" fill="rgb(0, 0, 0)" stroke="rgb(200, 195, 188)" stroke-width="1px"></line><line x1="61.91500186920166" y1="0" x2="56.91500186920166" y2="0" style="visibility: inherit;" fill="rgb(0, 0, 0)" stroke="rgb(200, 195, 188)" stroke-width="1px"></line></g><g transform="translate(51.91500186920166, 0)"><text style="text-anchor: end; visibility: hidden; font-family: Roboto, sans-serif; font-size: 12px; font-weight: 200;" x="0" y="376.5999994277954" dx="0em" dy="0.3em" fill="rgb(232, 230, 227)" stroke="none" stroke-width="1px">0.016</text><text style="text-anchor: end; visibility: inherit; font-family: Roboto, sans-serif; font-size: 12px; font-weight: 200;" x="0" y="347.6307687025804" dx="0em" dy="0.3em" fill="rgb(232, 230, 227)" stroke="none" stroke-width="1px">0.018</text><text style="text-anchor: end; visibility: inherit; font-family: Roboto, sans-serif; font-size: 12px; font-weight: 200;" x="0" y="318.66153797736536" dx="0em" dy="0.3em" fill="rgb(232, 230, 227)" stroke="none" stroke-width="1px">0.02</text><text style="text-anchor: end; visibility: inherit; font-family: Roboto, sans-serif; font-size: 12px; font-weight: 200;" x="0" y="289.69230725215033" dx="0em" dy="0.3em" fill="rgb(232, 230, 227)" stroke="none" stroke-width="1px">0.022</text><text style="text-anchor: end; visibility: inherit; font-family: Roboto, sans-serif; font-size: 12px; font-weight: 200;" x="0" y="260.7230765269353" dx="0em" dy="0.3em" fill="rgb(232, 230, 227)" stroke="none" stroke-width="1px">0.024</text><text style="text-anchor: end; visibility: inherit; font-family: Roboto, sans-serif; font-size: 12px; font-weight: 200;" x="0" y="231.75384580172027" dx="0em" dy="0.3em" fill="rgb(232, 230, 227)" stroke="none" stroke-width="1px">0.026</text><text style="text-anchor: end; visibility: inherit; font-family: Roboto, sans-serif; font-size: 12px; font-weight: 200;" x="0" y="202.78461507650525" dx="0em" dy="0.3em" fill="rgb(232, 230, 227)" stroke="none" stroke-width="1px">0.028</text><text style="text-anchor: end; visibility: inherit; font-family: Roboto, sans-serif; font-size: 12px; font-weight: 200;" x="0" y="173.81538435129025" dx="0em" dy="0.3em" fill="rgb(232, 230, 227)" stroke="none" stroke-width="1px">0.03</text><text style="text-anchor: end; visibility: inherit; font-family: Roboto, sans-serif; font-size: 12px; font-weight: 200;" x="0" y="144.8461536260752" dx="0em" dy="0.3em" fill="rgb(232, 230, 227)" stroke="none" stroke-width="1px">0.032</text><text style="text-anchor: end; visibility: inherit; font-family: Roboto, sans-serif; font-size: 12px; font-weight: 200;" x="0" y="115.87692290086014" dx="0em" dy="0.3em" fill="rgb(232, 230, 227)" stroke="none" stroke-width="1px">0.034</text><text style="text-anchor: end; visibility: inherit; font-family: Roboto, sans-serif; font-size: 12px; font-weight: 200;" x="0" y="86.90769217564517" dx="0em" dy="0.3em" fill="rgb(232, 230, 227)" stroke="none" stroke-width="1px">0.036</text><text style="text-anchor: end; visibility: inherit; font-family: Roboto, sans-serif; font-size: 12px; font-weight: 200;" x="0" y="57.93846145043011" dx="0em" dy="0.3em" fill="rgb(232, 230, 227)" stroke="none" stroke-width="1px">0.038</text><text style="text-anchor: end; visibility: inherit; font-family: Roboto, sans-serif; font-size: 12px; font-weight: 200;" x="0" y="28.969230725215056" dx="0em" dy="0.3em" fill="rgb(232, 230, 227)" stroke="none" stroke-width="1px">0.04</text><text style="text-anchor: end; visibility: hidden; font-family: Roboto, sans-serif; font-size: 12px; font-weight: 200;" x="0" y="0" dx="0em" dy="0.3em" fill="rgb(232, 230, 227)" stroke="none" stroke-width="1px">0.042</text></g><line x1="61.91500186920166" y1="0" x2="61.91500186920166" y2="376.5999994277954" fill="rgb(0, 0, 0)" stroke="rgb(200, 195, 188)" stroke-width="1px"></line></g></g><g transform="translate(61, 0)" clip-path="url(#clip_0)"><clipPath id="clip_0"><rect width="1451" height="376"></rect></clipPath><g><g><g><line x1="0" y1="0" x2="0" y2="376.5999994277954" fill="rgb(0, 0, 0)" stroke="rgb(194, 189, 181)" stroke-width="1px" opacity="0.25"></line><line x1="120.92374984423319" y1="0" x2="120.92374984423319" y2="376.5999994277954" fill="rgb(0, 0, 0)" stroke="rgb(194, 189, 181)" stroke-width="1px" opacity="0.25"></line><line x1="241.84749968846637" y1="0" x2="241.84749968846637" y2="376.5999994277954" fill="rgb(0, 0, 0)" stroke="rgb(194, 189, 181)" stroke-width="1px" opacity="0.25"></line><line x1="362.7712495326996" y1="0" x2="362.7712495326996" y2="376.5999994277954" fill="rgb(0, 0, 0)" stroke="rgb(194, 189, 181)" stroke-width="1px" opacity="0.25"></line><line x1="483.69499937693274" y1="0" x2="483.69499937693274" y2="376.5999994277954" fill="rgb(0, 0, 0)" stroke="rgb(194, 189, 181)" stroke-width="1px" opacity="0.25"></line><line x1="604.618749221166" y1="0" x2="604.618749221166" y2="376.5999994277954" fill="rgb(0, 0, 0)" stroke="rgb(194, 189, 181)" stroke-width="1px" opacity="0.25"></line><line x1="725.5424990653992" y1="0" x2="725.5424990653992" y2="376.5999994277954" fill="rgb(0, 0, 0)" stroke="rgb(194, 189, 181)" stroke-width="1px" opacity="0.25"></line><line x1="846.4662489096324" y1="0" x2="846.4662489096324" y2="376.5999994277954" fill="rgb(0, 0, 0)" stroke="rgb(194, 189, 181)" stroke-width="1px" opacity="0.25"></line><line x1="967.3899987538655" y1="0" x2="967.3899987538655" y2="376.5999994277954" fill="rgb(0, 0, 0)" stroke="rgb(194, 189, 181)" stroke-width="1px" opacity="0.25"></line><line x1="1088.3137485980988" y1="0" x2="1088.3137485980988" y2="376.5999994277954" fill="rgb(0, 0, 0)" stroke="rgb(194, 189, 181)" stroke-width="1px" opacity="0.25"></line><line x1="1209.237498442332" y1="0" x2="1209.237498442332" y2="376.5999994277954" fill="rgb(0, 0, 0)" stroke="rgb(194, 189, 181)" stroke-width="1px" opacity="0.25"></line><line x1="1330.161248286565" y1="0" x2="1330.161248286565" y2="376.5999994277954" fill="rgb(0, 0, 0)" stroke="rgb(194, 189, 181)" stroke-width="1px" opacity="0.25"></line><line x1="1451.0849981307983" y1="0" x2="1451.0849981307983" y2="376.5999994277954" fill="rgb(0, 0, 0)" stroke="rgb(194, 189, 181)" stroke-width="1px" opacity="0.25"></line></g><g><line x1="0" y1="376.5999994277954" x2="1451.0849981307983" y2="376.5999994277954" fill="rgb(0, 0, 0)" stroke="rgb(194, 189, 181)" stroke-width="1px" opacity="0.25"></line><line x1="0" y1="347.6307687025804" x2="1451.0849981307983" y2="347.6307687025804" fill="rgb(0, 0, 0)" stroke="rgb(194, 189, 181)" stroke-width="1px" opacity="0.25"></line><line x1="0" y1="318.66153797736536" x2="1451.0849981307983" y2="318.66153797736536" fill="rgb(0, 0, 0)" stroke="rgb(194, 189, 181)" stroke-width="1px" opacity="0.25"></line><line x1="0" y1="289.69230725215033" x2="1451.0849981307983" y2="289.69230725215033" fill="rgb(0, 0, 0)" stroke="rgb(194, 189, 181)" stroke-width="1px" opacity="0.25"></line><line x1="0" y1="260.7230765269353" x2="1451.0849981307983" y2="260.7230765269353" fill="rgb(0, 0, 0)" stroke="rgb(194, 189, 181)" stroke-width="1px" opacity="0.25"></line><line x1="0" y1="231.75384580172027" x2="1451.0849981307983" y2="231.75384580172027" fill="rgb(0, 0, 0)" stroke="rgb(194, 189, 181)" stroke-width="1px" opacity="0.25"></line><line x1="0" y1="202.78461507650525" x2="1451.0849981307983" y2="202.78461507650525" fill="rgb(0, 0, 0)" stroke="rgb(194, 189, 181)" stroke-width="1px" opacity="0.25"></line><line x1="0" y1="173.81538435129025" x2="1451.0849981307983" y2="173.81538435129025" fill="rgb(0, 0, 0)" stroke="rgb(194, 189, 181)" stroke-width="1px" opacity="0.25"></line><line x1="0" y1="144.8461536260752" x2="1451.0849981307983" y2="144.8461536260752" fill="rgb(0, 0, 0)" stroke="rgb(194, 189, 181)" stroke-width="1px" opacity="0.25"></line><line x1="0" y1="115.87692290086014" x2="1451.0849981307983" y2="115.87692290086014" fill="rgb(0, 0, 0)" stroke="rgb(194, 189, 181)" stroke-width="1px" opacity="0.25"></line><line x1="0" y1="86.90769217564517" x2="1451.0849981307983" y2="86.90769217564517" fill="rgb(0, 0, 0)" stroke="rgb(194, 189, 181)" stroke-width="1px" opacity="0.25"></line><line x1="0" y1="57.93846145043011" x2="1451.0849981307983" y2="57.93846145043011" fill="rgb(0, 0, 0)" stroke="rgb(194, 189, 181)" stroke-width="1px" opacity="0.25"></line><line x1="0" y1="28.969230725215056" x2="1451.0849981307983" y2="28.969230725215056" fill="rgb(0, 0, 0)" stroke="rgb(194, 189, 181)" stroke-width="1px" opacity="0.25"></line><line x1="0" y1="0" x2="1451.0849981307983" y2="0" fill="rgb(0, 0, 0)" stroke="rgb(194, 189, 181)" stroke-width="1px" opacity="0.25"></line></g></g></g><g><g><line x1="0" y1="608.3538452295156" x2="1451.0849981307983" y2="608.3538452295156" fill="rgb(0, 0, 0)" stroke="rgb(168, 160, 149)" stroke-width="1.5px"></line></g></g><g><g><line x1="120.92374984423319" y1="0" x2="120.92374984423319" y2="376.5999994277954" fill="rgb(0, 0, 0)" stroke="rgb(168, 160, 149)" stroke-width="1.5px"></line></g></g><g><g><g><g><g><path style="fill: none;" stroke="rgb(255, 112, 67)" stroke-width="2px" d="M162.52925891063944,404.3489962590239L168.4729030629832,363.9505637425925L174.41654721532694,332.5713520007575L180.3601913676707,323.86760015303014L186.30383552001445,296.4995834920392L192.2474796723582,304.2979464402177L198.19112382470195,297.01238849572195L204.13476797704567,314.5170113703541L210.07841212938945,336.5106237399752L216.02205628173317,347.58668666279334L221.96570043407695,322.6208470619421L227.9093445864207,318.35038847786024L233.85298873876445,287.6802857838413L239.7966328911082,256.0825844988065L245.74027704345193,257.5043733932513L251.6839211957957,252.77120665799822L257.62756534813946,239.07345373148263L263.57120950048323,213.00320502787565L269.51485365282696,228.98741017438692L275.4584978051707,255.95685268116603L281.40214195751446,229.17485045282385L287.3457861098582,243.01535724803236L293.28943026220196,219.63492366280855L299.2330744145457,229.32648058878414L305.1767185668894,199.68033971597276L311.1203627192332,144.42268821177694L317.0640068715769,182.78737771785086L323.0076510239207,114.57366791326993L328.95129517626447,110.19102120133508L334.8949393286082,77.73291562623041L340.83858348095197,40.00961021658773L346.7822276332957,104.89975522657987L352.72587178563947,-93.34272422510143L364.61316009032697,-43.03972572611511L370.5568042426707,6.080719000734194L376.5004483950144,-15.224814141642751L382.44409254735814,1.4747193727327814L388.387736699702,35.17540582783065L394.3313808520457,23.587033702580296L400.2750250043894,85.64069765957703L406.2186691567332,18.50976711834263L412.1623133090769,60.48579136005611L418.1059574614207,148.24809712358112L424.0496016137645,105.8919611537668L429.9932457661082,134.35137399973925L435.9368899184519,58.94112231785293L441.88053407079565,80.53881481640782L447.8241782231395,97.64203002204344L453.7678223754832,172.49642235266418L459.71146652782693,123.82213844793506L465.65511068017065,127.93203511551569L471.5987548325145,124.48851261713567L477.5423989848582,83.95575937125342L483.48604313720193,172.9957571091399L489.4296872895457,14.915711334125149L495.37333144188943,126.73508852082307L501.3169755942332,66.8135030648478L507.260619746577,0.7809506362382359L513.2042638989207,105.94967653044938L519.1479080512644,98.42492491504345L525.0915522036082,152.32211414568053L531.0351963559519,54.726415335495034L536.9788405082957,165.91241694944136L542.9224846606395,167.94681687340162L548.8661288129832,256.3268028970202L554.8097729653269,89.15400075016017L560.7534171176708,177.40950083710823L566.6970612700145,92.30493151223465L572.6407054223582,173.4098083407883L578.584349574702,142.70296153625725L584.5279937270457,152.32674301379487L590.4716378793895,177.75425459375623L596.4152820317332,167.4880638463671L602.358926184077,54.562279031481296L608.3025703364207,127.21692951681783L614.2462144887644,173.3544881421732L620.1898586411082,209.70348525109128L626.133502793452,238.58180195622217L632.0771469457957,176.98991459157818L638.0207910981394,172.59869555347322L643.9644352504832,-30.698989899532553L649.908079402827,35.58839721559384L655.8517235551707,176.41708372547765L661.7953677075144,208.39261969982567L667.7390118598581,241.73824685694183L673.682656012202,198.17517250858154L679.6263001645457,254.55579349946237L685.5699443168894,250.5382212918332L691.5135884692331,210.69102598388451L697.457232621577,169.65521914829637L703.4008767739207,166.91922403848577L709.3445209262644,183.67877423226636L715.2881650786082,235.6421456395221L721.231809230952,176.67236214605015L727.1754533832957,241.5887300764325L733.1190975356394,259.03780313623133L739.0627416879831,265.3005292076691L745.006385840327,264.67819425392236L750.9500299926708,295.07946701433883L756.8936741450145,165.4421611150802L762.8373182973583,208.00788144777985L768.780962449702,282.24856174234844L774.7246066020457,223.27443507445543L780.6682507543894,244.68561315821276L786.6118949067331,227.0976983962467L792.5555390590769,226.85210090060747L798.4991832114206,242.80170469659066L804.4428273637645,182.4037197154364L810.3864715161083,261.62786175122L816.330115668452,160.0514994475669L822.2737598207957,206.03229243004148L828.2174039731394,268.71327290711434L834.1610481254831,296.86161336098183L840.1046922778269,245.76682790290425L846.0483364301707,239.12925918553682L851.9919805825144,273.9829795720167L857.9356247348582,225.6478009125167L863.879268887202,253.2316363556841L869.8229130395457,188.52429808590827L875.7665571918894,239.59312102641044L881.7102013442333,139.95491121447353L887.653845496577,162.27831984413513L893.5974896489207,184.08757041903974L899.5411338012644,241.96811860123043L905.4847779536082,241.92233564140992L911.4284221059519,272.5046612644422L917.3720662582956,240.24783678042306L923.3157104106396,313.0114873048198L929.2593545629833,276.46749468268814L935.202998715327,302.2159531367226L941.1466428676707,230.48708233572486L947.0902870200144,268.6995752782249L953.0339311723582,217.39182615566006L958.9775753247019,187.0608888765898L964.9212194770456,271.2429871717642L970.8648636293893,220.9831368396608L976.8085077817333,238.20414925263464L982.752151934077,237.0552869800682L988.6957960864207,247.7485965132946L994.6394402387645,173.90569876200135L1000.5830843911082,201.7435553062374L1006.5267285434519,207.58624988868235L1012.4703726957956,211.96925722666788L1018.4140168481395,253.10973224433488L1024.3576610004832,172.64988002989085L1030.301305152827,198.89226300265037L1036.2449493051708,286.0405549618627L1042.1885934575146,267.32683085063263L1048.1322376098583,277.6998380634606L1054.075881762202,162.4262681122201L1060.0195259145457,188.0927555880027L1065.9631700668895,159.00328705320598L1071.9068142192332,235.3813606037341L1077.850458371577,250.00383073862153L1083.7941025239206,254.83748902498562L1089.7377466762644,262.3678427339483L1095.6813908286083,250.84661338325418L1101.625034980952,188.54066958616053L1107.5686791332957,227.09184257475053L1113.5123232856395,240.39649699079425L1119.4559674379832,272.6564749484591L1125.399611590327,245.96092219771805L1131.3432557426706,162.8431377309528L1137.2868998950144,221.50468244340962L1143.230544047358,250.9058628053778L1149.174188199702,309.940486477637L1155.1178323520458,179.04890200412618L1161.0614765043895,152.29012961738383L1167.0051206567332,204.31831892215675L1172.948764809077,275.3374968323361L1178.8924089614206,251.93168853173543L1184.8360531137644,300.9491911504657L1190.779697266108,243.88522629999164L1196.7233414184518,239.26653101959806L1202.6669855707955,150.065137302779L1208.6106297231395,268.5447572178706L1214.5542738754832,166.40143184425247L1220.497918027827,224.78420247488694L1226.4415621801706,255.60365051989487L1232.3852063325144,216.73844436518107L1238.328850484858,250.43233400019295L1244.2724946372018,260.0177492452566L1250.2161387895455,290.4233275103352L1256.1597829418895,283.44360251416265L1262.1034270942332,182.08130373865225L1268.047071246577,202.81871840878196L1273.9907153989207,202.93364651981878L1279.9343595512644,242.42138907053655L1285.878003703608,260.9998492800708L1291.821647855952,298.2124330520964L1297.7652920082958,289.7617590543189L1303.7089361606395,355.80040791406884L1309.6525803129832,322.73972817563083" fill="none"></path></g></g></g></g><g opacity="0.2"><g><g><g><path style="fill: none;" stroke="rgb(255, 112, 67)" stroke-width="2px" d="M156.5856147582957,389.20271822408364L162.52925891063944,333.92393293892997L168.4729030629832,305.04926130868347L174.41654721532694,286.2931097796397L180.3601913676707,310.9435430292104L186.30383552001445,255.6957843973819L192.2474796723582,315.95305251569727L198.19112382470195,286.1078401897405L204.13476797704567,340.73965230381776L210.07841212938945,369.4751896286747L216.02205628173317,364.1929693493087L221.96570043407695,285.18265236728206L227.9093445864207,311.9457848707094L233.85298873876445,241.67980402426392L239.7966328911082,208.68892072631027L245.74027704345193,259.6369787606364L251.6839211957957,245.67161230198624L257.62756534813946,218.5270947799461L263.57120950048323,173.89814079941505L269.51485365282696,252.96360428526486L275.4584978051707,296.41090142898173L281.40214195751446,189.00191563811393L287.3457861098582,263.77609619240707L293.28943026220196,184.5642948216565L299.2330744145457,243.86381062137133L305.1767185668894,155.21113823773857L311.1203627192332,61.53622194990634L317.0640068715769,240.33440739698835L323.0076510239207,12.25310809240662L328.95129517626447,103.61705132178508L334.8949393286082,29.045758100540137L340.83858348095197,-16.575347314234662L346.7822276332957,202.23497213919416L352.72587178563947,-390.70644229845504L358.6695159379832,95.10598165981223L364.61316009032697,-80.65445160944752L370.5568042426707,79.76138603191282L376.5004483950144,-47.18311383982883L382.44409254735814,26.524019637063468L388.387736699702,85.7264355017197L394.3313808520457,6.204475516511542L400.2750250043894,178.72119358926685L406.2186691567332,-82.18662868974064L412.1623133090769,123.44982772121271L418.1059574614207,279.89155576709527L424.0496016137645,42.35775719955899L429.9932457661082,177.040493268491L435.9368899184519,-54.17425520464731L441.88053407079565,112.93535356418354L447.8241782231395,123.29685283047029L453.7678223754832,284.7780108485246L459.71146652782693,50.81071259086885L465.65511068017065,134.09688011688527L471.5987548325145,119.3232288695663L477.5423989848582,23.156629502435017L483.48604313720193,306.555753715963L489.4296872895457,-222.20435732838993L495.37333144188943,294.46415430086705L501.3169755942332,-23.068875119114324L507.260619746577,-98.26787800667553L513.2042638989207,263.70276537176545L519.1479080512644,87.13779749193445L525.0915522036082,233.16789799163618L531.0351963559519,-91.66713287978345L536.9788405082957,332.691419370361L542.9224846606395,170.99841675934198L548.8661288129832,388.8967819324481L554.8097729653269,-161.6052024701296L560.7534171176708,309.7927509675301L566.6970612700145,-35.35192247507595L572.6407054223582,295.0671235836188L578.584349574702,96.6426913294607L584.5279937270457,166.76241523010117L590.4716378793895,215.8955219636983L596.4152820317332,152.08877772528348L602.358926184077,-114.82639819084733L608.3025703364207,236.19890524482256L614.2462144887644,242.56082608020637L620.1898586411082,264.2269809144683L626.133502793452,281.89927701391855L632.0771469457957,84.60208354461217L638.0207910981394,166.01186699631572L643.9644352504832,-335.6455180790412L649.908079402827,135.0194778882835L655.8517235551707,387.6601134903034L661.7953677075144,256.3559236613476L667.7390118598581,291.75668759261595L673.682656012202,132.83056098604115L679.6263001645457,339.1267249857835L685.5699443168894,244.51186298038948L691.5135884692331,150.92023302196142L697.457232621577,108.10150889491426L703.4008767739207,162.81523137377L709.3445209262644,208.81809952293722L715.2881650786082,313.5872027504057L721.231809230952,88.21768690584209L727.1754533832957,338.96328197200614L733.1190975356394,285.2114127259296L739.0627416879831,274.69461831482573L745.006385840327,263.7446918233022L750.9500299926708,340.68137615496346L756.8936741450145,-29.013797733807706L762.8373182973583,271.85646194682926L768.780962449702,393.6095821842013L774.7246066020457,134.81324507261593L780.6682507543894,276.80238028384883L786.6118949067331,200.7158262532976L792.5555390590769,226.48370465714868L798.4991832114206,266.72611039056545L804.4428273637645,91.80674224370502L810.3864715161083,380.4640748048952L816.330115668452,7.686955992087288L822.2737598207957,275.0034819037533L828.2174039731394,362.73474362272367L834.1610481254831,339.08412404178307L840.1046922778269,169.12464971578785L846.0483364301707,229.1729061094857L851.9919805825144,326.26356015173656L857.9356247348582,153.14503292326685L863.879268887202,294.6073895204352L869.8229130395457,91.46329068124453L875.7665571918894,316.1963554371638L881.7102013442333,-9.502403503431848L887.653845496577,195.76343278862757L893.5974896489207,216.80144628139652L899.5411338012644,328.78894087451664L905.4847779536082,241.8536612016791L911.4284221059519,318.3781496989906L917.3720662582956,191.8626000543943L923.3157104106396,422.156963091415L929.2593545629833,221.65150574949055L935.202998715327,340.8386408177743L941.1466428676707,122.89377613422832L947.0902870200144,326.01831469197487L953.0339311723582,140.43020247181283L958.9775753247019,141.56448295798444L964.9212194770456,397.51613461452575L970.8648636293893,145.59336134150573L976.8085077817333,264.03566787209536L982.752151934077,235.33199357121842L988.6957960864207,263.7885608131342L994.6394402387645,63.141352135061496L1000.5830843911082,243.50034012259144L1006.5267285434519,216.3502917623498L1012.4703726957956,218.54376823364606L1018.4140168481395,314.82044477083537L1024.3576610004832,51.960101708224904L1030.301305152827,238.25583746178947L1036.2449493051708,416.76299290068124L1042.1885934575146,239.25624468378751L1048.1322376098583,293.2593488827024L1054.075881762202,-10.484086814640648L1060.0195259145457,226.59248680167659L1065.9631700668895,115.36908425101085L1071.9068142192332,349.94847092952614L1077.850458371577,271.93753594095284L1083.7941025239206,262.0879764545317L1089.7377466762644,273.66337329739224L1095.6813908286083,233.5647693572131L1101.625034980952,95.08175389052002L1107.5686791332957,284.9186020576355L1113.5123232856395,260.3534786148598L1119.4559674379832,321.0464418849564L1125.399611590327,205.91759307160646L1131.3432557426706,38.16646103080497L1137.2868998950144,309.49699951209476L1143.230544047358,295.00763334833005L1149.174188199702,398.4924219860259L1155.1178323520458,-17.288474706140104L1161.0614765043895,112.15197103727051L1167.0051206567332,282.3606028793162L1172.948764809077,381.8662636976051L1178.8924089614206,216.8229760808343L1184.8360531137644,374.47544507856117L1190.779697266108,158.2892790242807L1196.7233414184518,232.3384880990077L1202.6669855707955,16.26304672755029L1208.6106297231395,446.26418709050813L1214.5542738754832,13.186443783825181L1220.497918027827,312.3583584208387L1226.4415621801706,301.83282258740667L1232.3852063325144,158.44063513311048L1238.328850484858,300.97316845271075L1244.2724946372018,274.39587211285203L1250.2161387895455,336.03169490795307L1256.1597829418895,272.9740150199038L1262.1034270942332,30.03785557538673L1268.047071246577,233.92484041397648L1273.9907153989207,203.10603868637398L1279.9343595512644,301.6530028966133L1285.878003703608,288.86753959437203L1291.821647855952,354.03130871013474L1297.7652920082958,277.0857480576526L1303.7089361606395,454.8583812036939L1309.6525803129832,273.1487085679738" fill="none"></path></g></g></g></g></g></g><g transform="translate(61, 376)" clip-path="url(#clip_1)"><clipPath id="clip_1"><rect width="1451" height="23"></rect></clipPath><g><g><line x1="0" y1="0" x2="0" y2="5" style="visibility: inherit;" fill="rgb(0, 0, 0)" stroke="rgb(200, 195, 188)" stroke-width="1px"></line><line x1="120.92374984423319" y1="0" x2="120.92374984423319" y2="5" style="visibility: inherit;" fill="rgb(0, 0, 0)" stroke="rgb(200, 195, 188)" stroke-width="1px"></line><line x1="241.84749968846637" y1="0" x2="241.84749968846637" y2="5" style="visibility: inherit;" fill="rgb(0, 0, 0)" stroke="rgb(200, 195, 188)" stroke-width="1px"></line><line x1="362.7712495326996" y1="0" x2="362.7712495326996" y2="5" style="visibility: inherit;" fill="rgb(0, 0, 0)" stroke="rgb(200, 195, 188)" stroke-width="1px"></line><line x1="483.69499937693274" y1="0" x2="483.69499937693274" y2="5" style="visibility: inherit;" fill="rgb(0, 0, 0)" stroke="rgb(200, 195, 188)" stroke-width="1px"></line><line x1="604.618749221166" y1="0" x2="604.618749221166" y2="5" style="visibility: inherit;" fill="rgb(0, 0, 0)" stroke="rgb(200, 195, 188)" stroke-width="1px"></line><line x1="725.5424990653992" y1="0" x2="725.5424990653992" y2="5" style="visibility: inherit;" fill="rgb(0, 0, 0)" stroke="rgb(200, 195, 188)" stroke-width="1px"></line><line x1="846.4662489096324" y1="0" x2="846.4662489096324" y2="5" style="visibility: inherit;" fill="rgb(0, 0, 0)" stroke="rgb(200, 195, 188)" stroke-width="1px"></line><line x1="967.3899987538655" y1="0" x2="967.3899987538655" y2="5" style="visibility: inherit;" fill="rgb(0, 0, 0)" stroke="rgb(200, 195, 188)" stroke-width="1px"></line><line x1="1088.3137485980988" y1="0" x2="1088.3137485980988" y2="5" style="visibility: inherit;" fill="rgb(0, 0, 0)" stroke="rgb(200, 195, 188)" stroke-width="1px"></line><line x1="1209.237498442332" y1="0" x2="1209.237498442332" y2="5" style="visibility: inherit;" fill="rgb(0, 0, 0)" stroke="rgb(200, 195, 188)" stroke-width="1px"></line><line x1="1330.161248286565" y1="0" x2="1330.161248286565" y2="5" style="visibility: inherit;" fill="rgb(0, 0, 0)" stroke="rgb(200, 195, 188)" stroke-width="1px"></line><line x1="1451.0849981307983" y1="0" x2="1451.0849981307983" y2="5" style="visibility: inherit;" fill="rgb(0, 0, 0)" stroke="rgb(200, 195, 188)" stroke-width="1px"></line></g><g transform="translate(0, 8)"><text style="text-anchor: middle; visibility: hidden; font-family: Roboto, sans-serif; font-size: 12px; font-weight: 200;" x="0" y="0" dx="0em" dy="0.95em" fill="rgb(232, 230, 227)" stroke="none" stroke-width="1px">-500k</text><text style="text-anchor: middle; visibility: inherit; font-family: Roboto, sans-serif; font-size: 12px; font-weight: 200;" x="120.92374984423319" y="0" dx="0em" dy="0.95em" fill="rgb(232, 230, 227)" stroke="none" stroke-width="1px">0</text><text style="text-anchor: middle; visibility: inherit; font-family: Roboto, sans-serif; font-size: 12px; font-weight: 200;" x="241.84749968846637" y="0" dx="0em" dy="0.95em" fill="rgb(232, 230, 227)" stroke="none" stroke-width="1px">500k</text><text style="text-anchor: middle; visibility: inherit; font-family: Roboto, sans-serif; font-size: 12px; font-weight: 200;" x="362.7712495326996" y="0" dx="0em" dy="0.95em" fill="rgb(232, 230, 227)" stroke="none" stroke-width="1px">1M</text><text style="text-anchor: middle; visibility: inherit; font-family: Roboto, sans-serif; font-size: 12px; font-weight: 200;" x="483.69499937693274" y="0" dx="0em" dy="0.95em" fill="rgb(232, 230, 227)" stroke="none" stroke-width="1px">1.5M</text><text style="text-anchor: middle; visibility: inherit; font-family: Roboto, sans-serif; font-size: 12px; font-weight: 200;" x="604.618749221166" y="0" dx="0em" dy="0.95em" fill="rgb(232, 230, 227)" stroke="none" stroke-width="1px">2M</text><text style="text-anchor: middle; visibility: inherit; font-family: Roboto, sans-serif; font-size: 12px; font-weight: 200;" x="725.5424990653992" y="0" dx="0em" dy="0.95em" fill="rgb(232, 230, 227)" stroke="none" stroke-width="1px">2.5M</text><text style="text-anchor: middle; visibility: inherit; font-family: Roboto, sans-serif; font-size: 12px; font-weight: 200;" x="846.4662489096324" y="0" dx="0em" dy="0.95em" fill="rgb(232, 230, 227)" stroke="none" stroke-width="1px">3M</text><text style="text-anchor: middle; visibility: inherit; font-family: Roboto, sans-serif; font-size: 12px; font-weight: 200;" x="967.3899987538655" y="0" dx="0em" dy="0.95em" fill="rgb(232, 230, 227)" stroke="none" stroke-width="1px">3.5M</text><text style="text-anchor: middle; visibility: inherit; font-family: Roboto, sans-serif; font-size: 12px; font-weight: 200;" x="1088.3137485980988" y="0" dx="0em" dy="0.95em" fill="rgb(232, 230, 227)" stroke="none" stroke-width="1px">4M</text><text style="text-anchor: middle; visibility: inherit; font-family: Roboto, sans-serif; font-size: 12px; font-weight: 200;" x="1209.237498442332" y="0" dx="0em" dy="0.95em" fill="rgb(232, 230, 227)" stroke="none" stroke-width="1px">4.5M</text><text style="text-anchor: middle; visibility: inherit; font-family: Roboto, sans-serif; font-size: 12px; font-weight: 200;" x="1330.161248286565" y="0" dx="0em" dy="0.95em" fill="rgb(232, 230, 227)" stroke="none" stroke-width="1px">5M</text><text style="text-anchor: middle; visibility: hidden; font-family: Roboto, sans-serif; font-size: 12px; font-weight: 200;" x="1451.0849981307983" y="0" dx="0em" dy="0.95em" fill="rgb(232, 230, 227)" stroke="none" stroke-width="1px">5.5M</text></g><line x1="0" y1="0" x2="1451.0849981307983" y2="0" fill="rgb(0, 0, 0)" stroke="rgb(200, 195, 188)" stroke-width="1px"></line></g></g></g></g></svg>