<svg viewBox="0 0 1513 400" xmlns="http://www.w3.org/2000/svg"><g><g><g><g><g><line x1="72.29800224304199" y1="376.5999994277954" x2="67.29800224304199" y2="376.5999994277954" style="visibility: inherit;" fill="rgb(0, 0, 0)" stroke="rgb(200, 195, 188)" stroke-width="1px"></line><line x1="72.29800224304199" y1="347.6307687025804" x2="67.29800224304199" y2="347.6307687025804" style="visibility: inherit;" fill="rgb(0, 0, 0)" stroke="rgb(200, 195, 188)" stroke-width="1px"></line><line x1="72.29800224304199" y1="318.66153797736536" x2="67.29800224304199" y2="318.66153797736536" style="visibility: inherit;" fill="rgb(0, 0, 0)" stroke="rgb(200, 195, 188)" stroke-width="1px"></line><line x1="72.29800224304199" y1="289.69230725215033" x2="67.29800224304199" y2="289.69230725215033" style="visibility: inherit;" fill="rgb(0, 0, 0)" stroke="rgb(200, 195, 188)" stroke-width="1px"></line><line x1="72.29800224304199" y1="260.7230765269353" x2="67.29800224304199" y2="260.7230765269353" style="visibility: inherit;" fill="rgb(0, 0, 0)" stroke="rgb(200, 195, 188)" stroke-width="1px"></line><line x1="72.29800224304199" y1="231.75384580172027" x2="67.29800224304199" y2="231.75384580172027" style="visibility: inherit;" fill="rgb(0, 0, 0)" stroke="rgb(200, 195, 188)" stroke-width="1px"></line><line x1="72.29800224304199" y1="202.78461507650525" x2="67.29800224304199" y2="202.78461507650525" style="visibility: inherit;" fill="rgb(0, 0, 0)" stroke="rgb(200, 195, 188)" stroke-width="1px"></line><line x1="72.29800224304199" y1="173.8153843512902" x2="67.29800224304199" y2="173.8153843512902" style="visibility: inherit;" fill="rgb(0, 0, 0)" stroke="rgb(200, 195, 188)" stroke-width="1px"></line><line x1="72.29800224304199" y1="144.84615362607514" x2="67.29800224304199" y2="144.84615362607514" style="visibility: inherit;" fill="rgb(0, 0, 0)" stroke="rgb(200, 195, 188)" stroke-width="1px"></line><line x1="72.29800224304199" y1="115.87692290086014" x2="67.29800224304199" y2="115.87692290086014" style="visibility: inherit;" fill="rgb(0, 0, 0)" stroke="rgb(200, 195, 188)" stroke-width="1px"></line><line x1="72.29800224304199" y1="86.90769217564512" x2="67.29800224304199" y2="86.90769217564512" style="visibility: inherit;" fill="rgb(0, 0, 0)" stroke="rgb(200, 195, 188)" stroke-width="1px"></line><line x1="72.29800224304199" y1="57.93846145043007" x2="67.29800224304199" y2="57.93846145043007" style="visibility: inherit;" fill="rgb(0, 0, 0)" stroke="rgb(200, 195, 188)" stroke-width="1px"></line><line x1="72.29800224304199" y1="28.969230725215013" x2="67.29800224304199" y2="28.969230725215013" style="visibility: inherit;" fill="rgb(0, 0, 0)" stroke="rgb(200, 195, 188)" stroke-width="1px"></line><line x1="72.29800224304199" y1="0" x2="67.29800224304199" y2="0" style="visibility: inherit;" fill="rgb(0, 0, 0)" stroke="rgb(200, 195, 188)" stroke-width="1px"></line></g><g transform="translate(62.29800224304199, 0)"><text style="text-anchor: end; visibility: hidden; font-family: Roboto, sans-serif; font-size: 12px; font-weight: 200;" x="0" y="376.5999994277954" dx="0em" dy="0.3em" fill="rgb(232, 230, 227)" stroke="none" stroke-width="1px">-0.013</text><text style="text-anchor: end; visibility: inherit; font-family: Roboto, sans-serif; font-size: 12px; font-weight: 200;" x="0" y="347.6307687025804" dx="0em" dy="0.3em" fill="rgb(232, 230, 227)" stroke="none" stroke-width="1px">-0.012</text><text style="text-anchor: end; visibility: inherit; font-family: Roboto, sans-serif; font-size: 12px; font-weight: 200;" x="0" y="318.66153797736536" dx="0em" dy="0.3em" fill="rgb(232, 230, 227)" stroke="none" stroke-width="1px">-0.011</text><text style="text-anchor: end; visibility: inherit; font-family: Roboto, sans-serif; font-size: 12px; font-weight: 200;" x="0" y="289.69230725215033" dx="0em" dy="0.3em" fill="rgb(232, 230, 227)" stroke="none" stroke-width="1px">-0.01</text><text style="text-anchor: end; visibility: inherit; font-family: Roboto, sans-serif; font-size: 12px; font-weight: 200;" x="0" y="260.7230765269353" dx="0em" dy="0.3em" fill="rgb(232, 230, 227)" stroke="none" stroke-width="1px">-9e-3</text><text style="text-anchor: end; visibility: inherit; font-family: Roboto, sans-serif; font-size: 12px; font-weight: 200;" x="0" y="231.75384580172027" dx="0em" dy="0.3em" fill="rgb(232, 230, 227)" stroke="none" stroke-width="1px">-8e-3</text><text style="text-anchor: end; visibility: inherit; font-family: Roboto, sans-serif; font-size: 12px; font-weight: 200;" x="0" y="202.78461507650525" dx="0em" dy="0.3em" fill="rgb(232, 230, 227)" stroke="none" stroke-width="1px">-7e-3</text><text style="text-anchor: end; visibility: inherit; font-family: Roboto, sans-serif; font-size: 12px; font-weight: 200;" x="0" y="173.8153843512902" dx="0em" dy="0.3em" fill="rgb(232, 230, 227)" stroke="none" stroke-width="1px">-6e-3</text><text style="text-anchor: end; visibility: inherit; font-family: Roboto, sans-serif; font-size: 12px; font-weight: 200;" x="0" y="144.84615362607514" dx="0em" dy="0.3em" fill="rgb(232, 230, 227)" stroke="none" stroke-width="1px">-5e-3</text><text style="text-anchor: end; visibility: inherit; font-family: Roboto, sans-serif; font-size: 12px; font-weight: 200;" x="0" y="115.87692290086014" dx="0em" dy="0.3em" fill="rgb(232, 230, 227)" stroke="none" stroke-width="1px">-4e-3</text><text style="text-anchor: end; visibility: inherit; font-family: Roboto, sans-serif; font-size: 12px; font-weight: 200;" x="0" y="86.90769217564512" dx="0em" dy="0.3em" fill="rgb(232, 230, 227)" stroke="none" stroke-width="1px">-3e-3</text><text style="text-anchor: end; visibility: inherit; font-family: Roboto, sans-serif; font-size: 12px; font-weight: 200;" x="0" y="57.93846145043007" dx="0em" dy="0.3em" fill="rgb(232, 230, 227)" stroke="none" stroke-width="1px">-2e-3</text><text style="text-anchor: end; visibility: inherit; font-family: Roboto, sans-serif; font-size: 12px; font-weight: 200;" x="0" y="28.969230725215013" dx="0em" dy="0.3em" fill="rgb(232, 230, 227)" stroke="none" stroke-width="1px">-1e-3</text><text style="text-anchor: end; visibility: hidden; font-family: Roboto, sans-serif; font-size: 12px; font-weight: 200;" x="0" y="0" dx="0em" dy="0.3em" fill="rgb(232, 230, 227)" stroke="none" stroke-width="1px">0</text></g><line x1="72.29800224304199" y1="0" x2="72.29800224304199" y2="376.5999994277954" fill="rgb(0, 0, 0)" stroke="rgb(200, 195, 188)" stroke-width="1px"></line></g></g><g transform="translate(72, 0)" clip-path="url(#clip_0)"><clipPath id="clip_0"><rect width="1440" height="376"></rect></clipPath><g><g><g><line x1="0" y1="0" x2="0" y2="376.5999994277954" fill="rgb(0, 0, 0)" stroke="rgb(194, 189, 181)" stroke-width="1px" opacity="0.25"></line><line x1="120.05849981307983" y1="0" x2="120.05849981307983" y2="376.5999994277954" fill="rgb(0, 0, 0)" stroke="rgb(194, 189, 181)" stroke-width="1px" opacity="0.25"></line><line x1="240.11699962615967" y1="0" x2="240.11699962615967" y2="376.5999994277954" fill="rgb(0, 0, 0)" stroke="rgb(194, 189, 181)" stroke-width="1px" opacity="0.25"></line><line x1="360.1754994392395" y1="0" x2="360.1754994392395" y2="376.5999994277954" fill="rgb(0, 0, 0)" stroke="rgb(194, 189, 181)" stroke-width="1px" opacity="0.25"></line><line x1="480.23399925231934" y1="0" x2="480.23399925231934" y2="376.5999994277954" fill="rgb(0, 0, 0)" stroke="rgb(194, 189, 181)" stroke-width="1px" opacity="0.25"></line><line x1="600.2924990653992" y1="0" x2="600.2924990653992" y2="376.5999994277954" fill="rgb(0, 0, 0)" stroke="rgb(194, 189, 181)" stroke-width="1px" opacity="0.25"></line><line x1="720.350998878479" y1="0" x2="720.350998878479" y2="376.5999994277954" fill="rgb(0, 0, 0)" stroke="rgb(194, 189, 181)" stroke-width="1px" opacity="0.25"></line><line x1="840.4094986915588" y1="0" x2="840.4094986915588" y2="376.5999994277954" fill="rgb(0, 0, 0)" stroke="rgb(194, 189, 181)" stroke-width="1px" opacity="0.25"></line><line x1="960.4679985046387" y1="0" x2="960.4679985046387" y2="376.5999994277954" fill="rgb(0, 0, 0)" stroke="rgb(194, 189, 181)" stroke-width="1px" opacity="0.25"></line><line x1="1080.5264983177185" y1="0" x2="1080.5264983177185" y2="376.5999994277954" fill="rgb(0, 0, 0)" stroke="rgb(194, 189, 181)" stroke-width="1px" opacity="0.25"></line><line x1="1200.5849981307983" y1="0" x2="1200.5849981307983" y2="376.5999994277954" fill="rgb(0, 0, 0)" stroke="rgb(194, 189, 181)" stroke-width="1px" opacity="0.25"></line><line x1="1320.6434979438782" y1="0" x2="1320.6434979438782" y2="376.5999994277954" fill="rgb(0, 0, 0)" stroke="rgb(194, 189, 181)" stroke-width="1px" opacity="0.25"></line><line x1="1440.701997756958" y1="0" x2="1440.701997756958" y2="376.5999994277954" fill="rgb(0, 0, 0)" stroke="rgb(194, 189, 181)" stroke-width="1px" opacity="0.25"></line></g><g><line x1="0" y1="376.5999994277954" x2="1440.701997756958" y2="376.5999994277954" fill="rgb(0, 0, 0)" stroke="rgb(194, 189, 181)" stroke-width="1px" opacity="0.25"></line><line x1="0" y1="347.6307687025804" x2="1440.701997756958" y2="347.6307687025804" fill="rgb(0, 0, 0)" stroke="rgb(194, 189, 181)" stroke-width="1px" opacity="0.25"></line><line x1="0" y1="318.66153797736536" x2="1440.701997756958" y2="318.66153797736536" fill="rgb(0, 0, 0)" stroke="rgb(194, 189, 181)" stroke-width="1px" opacity="0.25"></line><line x1="0" y1="289.69230725215033" x2="1440.701997756958" y2="289.69230725215033" fill="rgb(0, 0, 0)" stroke="rgb(194, 189, 181)" stroke-width="1px" opacity="0.25"></line><line x1="0" y1="260.7230765269353" x2="1440.701997756958" y2="260.7230765269353" fill="rgb(0, 0, 0)" stroke="rgb(194, 189, 181)" stroke-width="1px" opacity="0.25"></line><line x1="0" y1="231.75384580172027" x2="1440.701997756958" y2="231.75384580172027" fill="rgb(0, 0, 0)" stroke="rgb(194, 189, 181)" stroke-width="1px" opacity="0.25"></line><line x1="0" y1="202.78461507650525" x2="1440.701997756958" y2="202.78461507650525" fill="rgb(0, 0, 0)" stroke="rgb(194, 189, 181)" stroke-width="1px" opacity="0.25"></line><line x1="0" y1="173.8153843512902" x2="1440.701997756958" y2="173.8153843512902" fill="rgb(0, 0, 0)" stroke="rgb(194, 189, 181)" stroke-width="1px" opacity="0.25"></line><line x1="0" y1="144.84615362607514" x2="1440.701997756958" y2="144.84615362607514" fill="rgb(0, 0, 0)" stroke="rgb(194, 189, 181)" stroke-width="1px" opacity="0.25"></line><line x1="0" y1="115.87692290086014" x2="1440.701997756958" y2="115.87692290086014" fill="rgb(0, 0, 0)" stroke="rgb(194, 189, 181)" stroke-width="1px" opacity="0.25"></line><line x1="0" y1="86.90769217564512" x2="1440.701997756958" y2="86.90769217564512" fill="rgb(0, 0, 0)" stroke="rgb(194, 189, 181)" stroke-width="1px" opacity="0.25"></line><line x1="0" y1="57.93846145043007" x2="1440.701997756958" y2="57.93846145043007" fill="rgb(0, 0, 0)" stroke="rgb(194, 189, 181)" stroke-width="1px" opacity="0.25"></line><line x1="0" y1="28.969230725215013" x2="1440.701997756958" y2="28.969230725215013" fill="rgb(0, 0, 0)" stroke="rgb(194, 189, 181)" stroke-width="1px" opacity="0.25"></line><line x1="0" y1="0" x2="1440.701997756958" y2="0" fill="rgb(0, 0, 0)" stroke="rgb(194, 189, 181)" stroke-width="1px" opacity="0.25"></line></g></g></g><g><g><line x1="0" y1="0" x2="1440.701997756958" y2="0" fill="rgb(0, 0, 0)" stroke="rgb(168, 160, 149)" stroke-width="1.5px"></line></g></g><g><g><line x1="120.05849981307983" y1="0" x2="120.05849981307983" y2="376.5999994277954" fill="rgb(0, 0, 0)" stroke="rgb(168, 160, 149)" stroke-width="1.5px"></line></g></g><g><g><g><g><g><path style="fill: none;" stroke="rgb(255, 112, 67)" stroke-width="2px" d="M125.95961519589233,381.89056420416455L131.86073057870485,305.8442369041419L137.76184596151734,359.43441131078544L143.66296134432983,401.5527485648412L184.97076902401733,378.0004105433977L190.87188440682985,344.9460811208726L196.77299978964234,366.64678181126607L202.6741151724548,340.57808423882994L208.57523055526735,268.60759685233734L214.47634593807982,256.4723912247826L220.37746132089234,219.60386227476937L226.27857670370483,232.68385218100153L232.17969208651735,182.95181770654503L238.08080746932984,151.8823718786947L243.98192285214233,136.26074174384254L249.88303823495485,188.4598325501457L255.78415361776732,177.68279270558483L261.68526900057986,157.5955125772993L267.5863843833923,207.25544828933425L273.4874997662048,171.96986760040213L279.38861514901737,170.28255511156388L285.28973053182983,166.362106170761L291.19084591464235,155.31403008922757L297.0919612974548,214.28958151761825L302.99307668026734,216.0174882113589L308.89419206307986,186.0644413494521L314.7953074458923,189.5703767788563L320.69642282870484,171.81538455696582L326.5975382115173,147.4166915599943L332.4986535943299,143.41394170192027L338.39976897714234,113.48523167342285L344.3008843599548,146.65522808315436L350.2019997427673,177.28612927918397L356.10311512557985,150.41482941155283L362.00423050839237,123.62356983315048L367.90534589120483,148.63909195339386L373.8064612740173,128.6917217185623L379.7075766568298,136.9783136624338L385.6086920396424,122.65184963778971L391.50980742245486,112.8669813050038L397.4109228052673,140.06193907295554L403.31203818807984,142.98659067525153L409.2131535708923,114.17743823492573L415.1142689537049,170.5101524640962L421.01538433651734,118.95725320225374L426.9164997193298,98.82083702131366L432.8176151021423,111.05542268630941L438.7187304849548,104.21980210228834L444.61984586776737,94.59396685319696L450.52096125057983,121.69086495758793L456.42207663339235,96.89618999584557L462.3231920162048,74.02500626160894L468.2243073990174,64.19421331391872L474.12542278182985,74.29025387634759L480.0265381646423,87.27235274352199L485.92765354745484,139.16431623238518L491.8287689302673,97.2528616407357L497.7298843130799,56.3186085157808L503.63099969589234,66.7520173049732L509.53211507870486,67.97911043193716L515.4332304615173,106.8571381088644L521.3343458443298,113.4247217615034L527.2354612271424,128.21836291059742L533.1365766099549,163.1701564454937L539.0376919927673,126.49665147538327L544.9388073755798,217.22161247654725L550.8399227583923,205.38838981378007L556.7410381412049,165.78985528967274L562.6421535240173,176.24074951125328L568.5432689068298,166.7311787264711L574.4443842896424,139.99702483754447L580.3454996724548,115.96432561272746L586.2466150552674,123.45667564350012L592.1477304380799,95.65108809460516L598.0488458208923,134.45483784780188L603.9499612037048,100.91699270631607L609.8510765865173,93.44338273534684L615.7521919693298,90.89179684117477L621.6533073521423,98.96125267098196L627.5544227349549,96.87945258596503L633.4555381177673,92.17208509796313L639.3566535005799,141.11537667312325L645.2577688833924,119.86258889852776L651.1588842662048,175.92472290001436L657.0599996490173,122.22549234320722L662.9611150318298,152.26083138324748L668.8622304146423,102.5859741189469L674.7633457974548,123.6662429562217L680.6644611802674,96.05328405727496L686.5655765630798,69.10727799156842L692.4666919458923,101.71887219212559L698.3678073287049,97.81476442126682L704.2689227115173,80.77335529669996L710.1700380943298,103.52683137227154L716.0711534771423,84.19475706053794L721.9722688599549,81.81636944069636L727.8733842427673,89.45113502322594L733.7744996255798,81.99498567968087L739.6756150083925,65.47185513540212L745.5767303912049,94.74316956496993L751.4778457740174,109.60694695198308L757.3789611568299,117.69645100432761L763.2800765396423,145.6258518285291L769.1811919224548,156.0595319235171L775.0823073052674,165.06384511938327L780.9834226880798,138.4855563376892L786.8845380708923,112.94137009866989L792.7856534537048,110.87754665924899L798.6867688365174,89.24888946433735L804.5878842193299,115.74422439098504L810.4889996021424,126.50896397828366L816.3901149849548,114.80288661753444L822.2912303677673,114.17719781981349L828.1923457505799,84.18359828455924L834.0934611333923,65.1120372223518L839.9945765162048,60.4269768252225L845.8956918990173,63.22846522167109L851.7968072818297,39.5287228413483L857.6979226646424,60.32358006956005L863.5990380474549,75.75362206185741L869.5001534302673,93.29449564922807L875.4012688130798,93.58312182396372L881.3023841958924,96.31711608562227L887.2034995787049,81.01133196195144L893.1046149615173,58.00350644701454L899.0057303443298,42.658428856939665L904.9068457271422,36.23020694133141L910.8079611099547,76.57546762238152L916.7090764927674,100.63703078579071L922.6101918755799,89.19758602635221L928.5113072583923,86.47010930516767L934.4124226412049,105.96199717158838L940.3135380240174,78.77013699838385L946.2146534068298,57.80969686876556L952.1157687896423,55.343245194492376L958.0168841724548,72.28159150486384L963.9179995552672,50.48983286963115L969.8191149380799,68.23152963349713L975.7202303208924,73.83630293274888L981.6213457037048,54.0302367987253L987.5224610865174,50.05114629471137L993.4235764693299,70.32356982824889L999.3246918521423,57.577751517927766L1005.2258072349548,45.61181174171477L1011.1269226177673,62.24403203516295L1017.0280380005797,76.30851415200569L1022.9291533833923,67.23476203653205L1028.8302687662049,61.505938349904135L1034.7313841490175,54.5825581685411L1040.6324995318298,57.80496310350376L1046.5336149146424,84.30619240350336L1052.4347302974547,73.78217146327039L1058.3358456802673,61.04373349566922L1064.23696106308,50.558582056049346L1070.1380764458922,82.9654292437295L1076.0391918287048,59.65756794841195L1081.9403072115172,83.0790093503137L1087.84142259433,58.72163078296043L1093.7425379771423,68.33328063314345L1099.643653359955,66.71970420965592L1105.5447687427672,44.06415228725109L1111.4458841255798,48.53577369543032L1117.3469995083924,30.532220260305948L1123.2481148912048,53.872007978071764L1129.1492302740173,53.67054996630928L1135.0503456568297,58.571782815973734L1140.9514610396425,46.39053301809416L1146.8525764224548,60.956224618847585L1152.7536918052674,93.30063918797282L1158.6548071880798,59.56379065075651L1164.5559225708923,76.83188961292241L1170.457037953705,64.2542464114763L1176.3581533365173,65.64196742856011L1182.2592687193298,75.269113017743L1188.1603841021422,63.11478445012658L1194.0614994849548,83.56466668229892L1199.9626148677673,104.62090717217768L1205.86373025058,90.77726364792312L1211.7648456333923,67.9438345708203L1217.6659610162048,65.96949945176468L1223.5670763990174,46.97482505432823L1229.4681917818298,33.24488083708911L1235.3693071646424,33.78076893050338L1241.2704225474547,51.80074930780053L1247.1715379302673,58.64615797256462L1253.0726533130799,54.885463422469115L1258.9737686958924,38.70123057819474L1264.8748840787048,44.39193847053139L1270.7759994615174,66.8111259121322L1276.67711484433,57.225129747586315L1282.5782302271423,37.0929033444964L1288.4793456099549,32.933820381203155L1294.3804609927672,73.58461815320722L1300.2815763755798,47.91972517344508" fill="none"></path></g></g></g></g><g opacity="0.2"><g><g><g><path style="fill: none;" stroke="rgb(255, 112, 67)" stroke-width="2px" d="M125.95961519589233,381.89056420416455L131.86073057870485,260.2164405241283L137.76184596151734,410.8809787411633L167.26742287557983,411.3036157188494L173.16853825839235,376.2678331494794L179.06965364120484,386.0485674249157L184.97076902401733,335.6388892750279L190.87188440682985,295.544467188123L196.77299978964234,399.12697629394387L202.6741151724548,301.52610917253423L208.57523055526735,160.73646437885293L214.47634593807982,238.2781414706567L220.37746132089234,164.31667037559356L226.27857670370483,252.30051603232954L232.17969208651735,108.36134216975965L238.08080746932984,105.28104300733403L243.98192285214233,112.82915326888741L249.88303823495485,266.7567511262826L255.78415361776732,161.5174457125956L261.68526900057986,127.46483033785422L267.5863843833923,281.7449988958177L273.4874997662048,119.04164704388725L279.38861514901737,167.7515906956767L285.28973053182983,160.48143877836918L291.19084591464235,138.7419261437671L297.0919612974548,302.75287606531344L302.99307668026734,218.6093476789773L308.89419206307986,141.13487701624572L314.7953074458923,194.8292795044243L320.69642282870484,145.18289749588376L326.5975382115173,110.81865311311412L332.4986535943299,137.40981701802426L338.39976897714234,68.59216709372294L344.3008843599548,196.4102223898351L350.2019997427673,223.23248090262078L356.10311512557985,110.10787969990663L362.00423050839237,83.43668051926676L367.90534589120483,186.1623751036634L373.8064612740173,98.77066638071389L379.7075766568298,149.408201574652L385.6086920396424,101.1621536045465L391.50980742245486,98.18967880735059L397.4109228052673,180.85437572233894L403.31203818807984,147.37356807853143L409.2131535708923,70.96370957540715L415.1142689537049,255.00922380671358L421.01538433651734,41.62790431011509L426.9164997193298,68.61621275004991L432.8176151021423,129.40730118374972L438.7187304849548,93.96637122627452L444.61984586776737,80.15521397957518L450.52096125057983,162.3362121141486L456.42207663339235,59.7041775532462L462.3231920162048,39.718230660261696L468.2243073990174,49.44802389238539L474.12542278182985,89.43431471998971L480.0265381646423,106.74550104428269L485.92765354745484,217.00226146567772L491.8287689302673,34.38567975326257L497.7298843130799,-5.082771171651023L503.63099969589234,82.40213048876171L509.53211507870486,69.81975012238303L515.4332304615173,165.17417962425523L521.3343458443298,123.27609724046185L527.2354612271424,150.40882463423844L533.1365766099549,215.59784674783793L539.0376919927673,71.48639402021767L544.9388073755798,353.3090539782932L550.8399227583923,187.6385558196292L556.7410381412049,106.39205350351175L562.6421535240173,191.9170908436241L568.5432689068298,152.4668225492978L574.4443842896424,99.89579400415455L580.3454996724548,79.91527677550198L586.2466150552674,134.69520068965915L592.1477304380799,53.942706771262614L598.0488458208923,192.66046247759695L603.9499612037048,50.61022499408735L609.8510765865173,82.23296777889311L615.7521919693298,87.06441799991666L621.6533073521423,111.06543641569274L627.5544227349549,93.75675245843973L633.4555381177673,85.11103386596022L639.3566535005799,214.5303140358633L645.2577688833924,87.98340723663465L651.1588842662048,260.0179239022442L657.0599996490173,41.67664650799649L662.9611150318298,197.3138399433078L668.8622304146423,28.073688222496056L674.7633457974548,155.28664621213383L680.6644611802674,54.633845708854956L686.5655765630798,28.688268893008548L692.4666919458923,150.63626349296132L698.3678073287049,91.95860276497878L704.2689227115173,55.211241609849665L710.1700380943298,137.6570454856289L716.0711534771423,55.19664559293754L721.9722688599549,78.24878801093396L727.8733842427673,100.90328339702032L733.7744996255798,70.81076166436328L739.6756150083925,40.68715931898398L745.5767303912049,138.65014120932162L751.4778457740174,131.9026130325029L757.3789611568299,129.83070708284427L763.2800765396423,187.5199530648314L769.1811919224548,171.71005206599912L775.0823073052674,178.57031491318244L780.9834226880798,98.61812316514815L786.8845380708923,74.62509074014099L792.7856534537048,107.78181150011767L798.6867688365174,56.805903671969894L804.5878842193299,155.4872267809565L810.4889996021424,142.65607335923158L816.3901149849548,97.24377057641065L822.2912303677673,113.23866462323198L828.1923457505799,39.193198981677895L834.0934611333923,36.50469562904069L839.9945765162048,53.399386229528524L845.8956918990173,67.43069781634398L851.7968072818297,3.9791092708641207L857.6979226646424,91.51586591187768L863.5990380474549,98.89868505030344L869.5001534302673,119.60580603028397L875.4012688130798,94.01606108606728L881.3023841958924,100.41810747811009L887.2034995787049,58.05265577644525L893.1046149615173,23.491768174609152L899.0057303443298,19.64081247182734L904.9068457271422,26.58787406791902L910.8079611099547,137.0933586439567L916.7090764927674,136.72937553090446L922.6101918755799,72.0384188871944L928.5113072583923,82.37889422339101L934.4124226412049,135.19982897121932L940.3135380240174,37.98234673857715L946.2146534068298,26.3690366743381L952.1157687896423,51.64356768308253L958.0168841724548,97.68911097042118L963.9179995552672,17.802194916782057L969.8191149380799,94.84407477929614L975.7202303208924,82.2434628816266L981.6213457037048,24.321137597689834L987.5224610865174,44.08251053869059L993.4235764693299,100.7322051285551L999.3246918521423,38.45902405244611L1005.2258072349548,27.662902077395305L1011.1269226177673,87.19236247533522L1017.0280380005797,97.40523732726969L1022.9291533833923,53.62413386332169L1028.8302687662049,52.912702819962185L1034.7313841490175,44.19748789649661L1040.6324995318298,62.63857050594779L1046.5336149146424,124.0580363535028L1052.4347302974547,57.99614005292098L1058.3358456802673,41.93607654426748L1064.23696106308,34.83085489661952L1070.1380764458922,131.57570002524966L1076.0391918287048,24.69577600543563L1081.9403072115172,118.21117145316629L1087.84142259433,22.185562931930548L1093.7425379771423,82.75075540841794L1099.643653359955,64.29933957442455L1105.5447687427672,10.0808244036438L1111.4458841255798,55.243205807699226L1117.3469995083924,3.5268901076194314L1123.2481148912048,88.8816895547204L1129.1492302740173,53.36836294866568L1135.0503456568297,65.9236320904703L1140.9514610396425,28.118658321274825L1146.8525764224548,82.8047620199777L1152.7536918052674,141.81726104166066L1158.6548071880798,8.95851784493213L1164.5559225708923,102.73403805617126L1170.457037953705,45.38778160930709L1176.3581533365173,67.7235489541859L1182.2592687193298,89.70983140151733L1188.1603841021422,44.88329159870194L1194.0614994849548,114.23949003055746L1199.9626148677673,136.20526790699577L1205.86373025058,70.01179836154128L1211.7648456333923,33.69369095516608L1217.6659610162048,63.00799677318116L1223.5670763990174,18.482813458173574L1229.4681917818298,12.64996451123049L1235.3693071646424,34.58460107062481L1241.2704225474547,78.83071987374629L1247.1715379302673,68.91427096971076L1253.0726533130799,49.24442159732584L1258.9737686958924,14.424881311783038L1264.8748840787048,52.92800030903644L1270.7759994615174,100.43990707453335L1276.67711484433,42.84613550076755L1282.5782302271423,6.894563739861461L1288.4793456099549,26.69519593626326L1294.3804609927672,134.5608148112133L1300.2815763755798,9.422385703801906" fill="none"></path></g></g></g></g></g><g><g opacity="0.555067"><span fill="rgb(0, 0, 0)" stroke="none" stroke-width="1px">Alt + Scroll to Zoom</span></g></g></g><g transform="translate(72, 376)" clip-path="url(#clip_1)"><clipPath id="clip_1"><rect width="1440" height="23"></rect></clipPath><g><g><line x1="0" y1="0" x2="0" y2="5" style="visibility: inherit;" fill="rgb(0, 0, 0)" stroke="rgb(200, 195, 188)" stroke-width="1px"></line><line x1="120.05849981307983" y1="0" x2="120.05849981307983" y2="5" style="visibility: inherit;" fill="rgb(0, 0, 0)" stroke="rgb(200, 195, 188)" stroke-width="1px"></line><line x1="240.11699962615967" y1="0" x2="240.11699962615967" y2="5" style="visibility: inherit;" fill="rgb(0, 0, 0)" stroke="rgb(200, 195, 188)" stroke-width="1px"></line><line x1="360.1754994392395" y1="0" x2="360.1754994392395" y2="5" style="visibility: inherit;" fill="rgb(0, 0, 0)" stroke="rgb(200, 195, 188)" stroke-width="1px"></line><line x1="480.23399925231934" y1="0" x2="480.23399925231934" y2="5" style="visibility: inherit;" fill="rgb(0, 0, 0)" stroke="rgb(200, 195, 188)" stroke-width="1px"></line><line x1="600.2924990653992" y1="0" x2="600.2924990653992" y2="5" style="visibility: inherit;" fill="rgb(0, 0, 0)" stroke="rgb(200, 195, 188)" stroke-width="1px"></line><line x1="720.350998878479" y1="0" x2="720.350998878479" y2="5" style="visibility: inherit;" fill="rgb(0, 0, 0)" stroke="rgb(200, 195, 188)" stroke-width="1px"></line><line x1="840.4094986915588" y1="0" x2="840.4094986915588" y2="5" style="visibility: inherit;" fill="rgb(0, 0, 0)" stroke="rgb(200, 195, 188)" stroke-width="1px"></line><line x1="960.4679985046387" y1="0" x2="960.4679985046387" y2="5" style="visibility: inherit;" fill="rgb(0, 0, 0)" stroke="rgb(200, 195, 188)" stroke-width="1px"></line><line x1="1080.5264983177185" y1="0" x2="1080.5264983177185" y2="5" style="visibility: inherit;" fill="rgb(0, 0, 0)" stroke="rgb(200, 195, 188)" stroke-width="1px"></line><line x1="1200.5849981307983" y1="0" x2="1200.5849981307983" y2="5" style="visibility: inherit;" fill="rgb(0, 0, 0)" stroke="rgb(200, 195, 188)" stroke-width="1px"></line><line x1="1320.6434979438782" y1="0" x2="1320.6434979438782" y2="5" style="visibility: inherit;" fill="rgb(0, 0, 0)" stroke="rgb(200, 195, 188)" stroke-width="1px"></line><line x1="1440.701997756958" y1="0" x2="1440.701997756958" y2="5" style="visibility: inherit;" fill="rgb(0, 0, 0)" stroke="rgb(200, 195, 188)" stroke-width="1px"></line></g><g transform="translate(0, 8)"><text style="text-anchor: middle; visibility: hidden; font-family: Roboto, sans-serif; font-size: 12px; font-weight: 200;" x="0" y="0" dx="0em" dy="0.95em" fill="rgb(232, 230, 227)" stroke="none" stroke-width="1px">-500k</text><text style="text-anchor: middle; visibility: inherit; font-family: Roboto, sans-serif; font-size: 12px; font-weight: 200;" x="120.05849981307983" y="0" dx="0em" dy="0.95em" fill="rgb(232, 230, 227)" stroke="none" stroke-width="1px">0</text><text style="text-anchor: middle; visibility: inherit; font-family: Roboto, sans-serif; font-size: 12px; font-weight: 200;" x="240.11699962615967" y="0" dx="0em" dy="0.95em" fill="rgb(232, 230, 227)" stroke="none" stroke-width="1px">500k</text><text style="text-anchor: middle; visibility: inherit; font-family: Roboto, sans-serif; font-size: 12px; font-weight: 200;" x="360.1754994392395" y="0" dx="0em" dy="0.95em" fill="rgb(232, 230, 227)" stroke="none" stroke-width="1px">1M</text><text style="text-anchor: middle; visibility: inherit; font-family: Roboto, sans-serif; font-size: 12px; font-weight: 200;" x="480.23399925231934" y="0" dx="0em" dy="0.95em" fill="rgb(232, 230, 227)" stroke="none" stroke-width="1px">1.5M</text><text style="text-anchor: middle; visibility: inherit; font-family: Roboto, sans-serif; font-size: 12px; font-weight: 200;" x="600.2924990653992" y="0" dx="0em" dy="0.95em" fill="rgb(232, 230, 227)" stroke="none" stroke-width="1px">2M</text><text style="text-anchor: middle; visibility: inherit; font-family: Roboto, sans-serif; font-size: 12px; font-weight: 200;" x="720.350998878479" y="0" dx="0em" dy="0.95em" fill="rgb(232, 230, 227)" stroke="none" stroke-width="1px">2.5M</text><text style="text-anchor: middle; visibility: inherit; font-family: Roboto, sans-serif; font-size: 12px; font-weight: 200;" x="840.4094986915588" y="0" dx="0em" dy="0.95em" fill="rgb(232, 230, 227)" stroke="none" stroke-width="1px">3M</text><text style="text-anchor: middle; visibility: inherit; font-family: Roboto, sans-serif; font-size: 12px; font-weight: 200;" x="960.4679985046387" y="0" dx="0em" dy="0.95em" fill="rgb(232, 230, 227)" stroke="none" stroke-width="1px">3.5M</text><text style="text-anchor: middle; visibility: inherit; font-family: Roboto, sans-serif; font-size: 12px; font-weight: 200;" x="1080.5264983177185" y="0" dx="0em" dy="0.95em" fill="rgb(232, 230, 227)" stroke="none" stroke-width="1px">4M</text><text style="text-anchor: middle; visibility: inherit; font-family: Roboto, sans-serif; font-size: 12px; font-weight: 200;" x="1200.5849981307983" y="0" dx="0em" dy="0.95em" fill="rgb(232, 230, 227)" stroke="none" stroke-width="1px">4.5M</text><text style="text-anchor: middle; visibility: inherit; font-family: Roboto, sans-serif; font-size: 12px; font-weight: 200;" x="1320.6434979438782" y="0" dx="0em" dy="0.95em" fill="rgb(232, 230, 227)" stroke="none" stroke-width="1px">5M</text><text style="text-anchor: middle; visibility: hidden; font-family: Roboto, sans-serif; font-size: 12px; font-weight: 200;" x="1440.701997756958" y="0" dx="0em" dy="0.95em" fill="rgb(232, 230, 227)" stroke="none" stroke-width="1px">5.5M</text></g><line x1="0" y1="0" x2="1440.701997756958" y2="0" fill="rgb(0, 0, 0)" stroke="rgb(200, 195, 188)" stroke-width="1px"></line></g></g></g></g></svg>