<svg viewBox="0 0 2153.666748046875 400" xmlns="http://www.w3.org/2000/svg"><g><g><g><g><g><line x1="41.149001121520996" y1="376.5999994277954" x2="36.149001121520996" y2="376.5999994277954" style="visibility: inherit;" fill="rgb(0, 0, 0)" stroke="rgb(200, 195, 188)" stroke-width="1px"></line><line x1="41.149001121520996" y1="334.75555504692926" x2="36.149001121520996" y2="334.75555504692926" style="visibility: inherit;" fill="rgb(0, 0, 0)" stroke="rgb(200, 195, 188)" stroke-width="1px"></line><line x1="41.149001121520996" y1="292.9111106660631" x2="36.149001121520996" y2="292.9111106660631" style="visibility: inherit;" fill="rgb(0, 0, 0)" stroke="rgb(200, 195, 188)" stroke-width="1px"></line><line x1="41.149001121520996" y1="251.06666628519687" x2="36.149001121520996" y2="251.06666628519687" style="visibility: inherit;" fill="rgb(0, 0, 0)" stroke="rgb(200, 195, 188)" stroke-width="1px"></line><line x1="41.149001121520996" y1="209.22222190433078" x2="36.149001121520996" y2="209.22222190433078" style="visibility: inherit;" fill="rgb(0, 0, 0)" stroke="rgb(200, 195, 188)" stroke-width="1px"></line><line x1="41.149001121520996" y1="167.37777752346463" x2="36.149001121520996" y2="167.37777752346463" style="visibility: inherit;" fill="rgb(0, 0, 0)" stroke="rgb(200, 195, 188)" stroke-width="1px"></line><line x1="41.149001121520996" y1="125.5333331425984" x2="36.149001121520996" y2="125.5333331425984" style="visibility: inherit;" fill="rgb(0, 0, 0)" stroke="rgb(200, 195, 188)" stroke-width="1px"></line><line x1="41.149001121520996" y1="83.68888876173231" x2="36.149001121520996" y2="83.68888876173231" style="visibility: inherit;" fill="rgb(0, 0, 0)" stroke="rgb(200, 195, 188)" stroke-width="1px"></line><line x1="41.149001121520996" y1="41.84444438086609" x2="36.149001121520996" y2="41.84444438086609" style="visibility: inherit;" fill="rgb(0, 0, 0)" stroke="rgb(200, 195, 188)" stroke-width="1px"></line><line x1="41.149001121520996" y1="0" x2="36.149001121520996" y2="0" style="visibility: inherit;" fill="rgb(0, 0, 0)" stroke="rgb(200, 195, 188)" stroke-width="1px"></line></g><g transform="translate(31.149001121520996, 0)"><text style="text-anchor: end; visibility: hidden; font-family: Roboto, sans-serif; font-size: 12px; font-weight: 200;" x="0" y="376.5999994277954" dx="0em" dy="0.3em" fill="rgb(232, 230, 227)" stroke="none" stroke-width="1px">2</text><text style="text-anchor: end; visibility: inherit; font-family: Roboto, sans-serif; font-size: 12px; font-weight: 200;" x="0" y="334.75555504692926" dx="0em" dy="0.3em" fill="rgb(232, 230, 227)" stroke="none" stroke-width="1px">2.2</text><text style="text-anchor: end; visibility: inherit; font-family: Roboto, sans-serif; font-size: 12px; font-weight: 200;" x="0" y="292.9111106660631" dx="0em" dy="0.3em" fill="rgb(232, 230, 227)" stroke="none" stroke-width="1px">2.4</text><text style="text-anchor: end; visibility: inherit; font-family: Roboto, sans-serif; font-size: 12px; font-weight: 200;" x="0" y="251.06666628519687" dx="0em" dy="0.3em" fill="rgb(232, 230, 227)" stroke="none" stroke-width="1px">2.6</text><text style="text-anchor: end; visibility: inherit; font-family: Roboto, sans-serif; font-size: 12px; font-weight: 200;" x="0" y="209.22222190433078" dx="0em" dy="0.3em" fill="rgb(232, 230, 227)" stroke="none" stroke-width="1px">2.8</text><text style="text-anchor: end; visibility: inherit; font-family: Roboto, sans-serif; font-size: 12px; font-weight: 200;" x="0" y="167.37777752346463" dx="0em" dy="0.3em" fill="rgb(232, 230, 227)" stroke="none" stroke-width="1px">3</text><text style="text-anchor: end; visibility: inherit; font-family: Roboto, sans-serif; font-size: 12px; font-weight: 200;" x="0" y="125.5333331425984" dx="0em" dy="0.3em" fill="rgb(232, 230, 227)" stroke="none" stroke-width="1px">3.2</text><text style="text-anchor: end; visibility: inherit; font-family: Roboto, sans-serif; font-size: 12px; font-weight: 200;" x="0" y="83.68888876173231" dx="0em" dy="0.3em" fill="rgb(232, 230, 227)" stroke="none" stroke-width="1px">3.4</text><text style="text-anchor: end; visibility: inherit; font-family: Roboto, sans-serif; font-size: 12px; font-weight: 200;" x="0" y="41.84444438086609" dx="0em" dy="0.3em" fill="rgb(232, 230, 227)" stroke="none" stroke-width="1px">3.6</text><text style="text-anchor: end; visibility: hidden; font-family: Roboto, sans-serif; font-size: 12px; font-weight: 200;" x="0" y="0" dx="0em" dy="0.3em" fill="rgb(232, 230, 227)" stroke="none" stroke-width="1px">3.8</text></g><line x1="41.149001121520996" y1="0" x2="41.149001121520996" y2="376.5999994277954" fill="rgb(0, 0, 0)" stroke="rgb(200, 195, 188)" stroke-width="1px"></line></g></g><g transform="translate(41, 0)" clip-path="url(#clip_0)"><clipPath id="clip_0"><rect width="2112" height="376"></rect></clipPath><g><g><g><line x1="0" y1="0" x2="0" y2="376.5999994277954" fill="rgb(0, 0, 0)" stroke="rgb(194, 189, 181)" stroke-width="1px" opacity="0.25"></line><line x1="176.04341657320657" y1="0" x2="176.04341657320657" y2="376.5999994277954" fill="rgb(0, 0, 0)" stroke="rgb(194, 189, 181)" stroke-width="1px" opacity="0.25"></line><line x1="352.08683314641314" y1="0" x2="352.08683314641314" y2="376.5999994277954" fill="rgb(0, 0, 0)" stroke="rgb(194, 189, 181)" stroke-width="1px" opacity="0.25"></line><line x1="528.1302497196198" y1="0" x2="528.1302497196198" y2="376.5999994277954" fill="rgb(0, 0, 0)" stroke="rgb(194, 189, 181)" stroke-width="1px" opacity="0.25"></line><line x1="704.1736662928263" y1="0" x2="704.1736662928263" y2="376.5999994277954" fill="rgb(0, 0, 0)" stroke="rgb(194, 189, 181)" stroke-width="1px" opacity="0.25"></line><line x1="880.217082866033" y1="0" x2="880.217082866033" y2="376.5999994277954" fill="rgb(0, 0, 0)" stroke="rgb(194, 189, 181)" stroke-width="1px" opacity="0.25"></line><line x1="1056.2604994392395" y1="0" x2="1056.2604994392395" y2="376.5999994277954" fill="rgb(0, 0, 0)" stroke="rgb(194, 189, 181)" stroke-width="1px" opacity="0.25"></line><line x1="1232.3039160124463" y1="0" x2="1232.3039160124463" y2="376.5999994277954" fill="rgb(0, 0, 0)" stroke="rgb(194, 189, 181)" stroke-width="1px" opacity="0.25"></line><line x1="1408.3473325856526" y1="0" x2="1408.3473325856526" y2="376.5999994277954" fill="rgb(0, 0, 0)" stroke="rgb(194, 189, 181)" stroke-width="1px" opacity="0.25"></line><line x1="1584.3907491588593" y1="0" x2="1584.3907491588593" y2="376.5999994277954" fill="rgb(0, 0, 0)" stroke="rgb(194, 189, 181)" stroke-width="1px" opacity="0.25"></line><line x1="1760.434165732066" y1="0" x2="1760.434165732066" y2="376.5999994277954" fill="rgb(0, 0, 0)" stroke="rgb(194, 189, 181)" stroke-width="1px" opacity="0.25"></line><line x1="1936.4775823052723" y1="0" x2="1936.4775823052723" y2="376.5999994277954" fill="rgb(0, 0, 0)" stroke="rgb(194, 189, 181)" stroke-width="1px" opacity="0.25"></line><line x1="2112.520998878479" y1="0" x2="2112.520998878479" y2="376.5999994277954" fill="rgb(0, 0, 0)" stroke="rgb(194, 189, 181)" stroke-width="1px" opacity="0.25"></line></g><g><line x1="0" y1="376.5999994277954" x2="2112.520998878479" y2="376.5999994277954" fill="rgb(0, 0, 0)" stroke="rgb(194, 189, 181)" stroke-width="1px" opacity="0.25"></line><line x1="0" y1="334.75555504692926" x2="2112.520998878479" y2="334.75555504692926" fill="rgb(0, 0, 0)" stroke="rgb(194, 189, 181)" stroke-width="1px" opacity="0.25"></line><line x1="0" y1="292.9111106660631" x2="2112.520998878479" y2="292.9111106660631" fill="rgb(0, 0, 0)" stroke="rgb(194, 189, 181)" stroke-width="1px" opacity="0.25"></line><line x1="0" y1="251.06666628519687" x2="2112.520998878479" y2="251.06666628519687" fill="rgb(0, 0, 0)" stroke="rgb(194, 189, 181)" stroke-width="1px" opacity="0.25"></line><line x1="0" y1="209.22222190433078" x2="2112.520998878479" y2="209.22222190433078" fill="rgb(0, 0, 0)" stroke="rgb(194, 189, 181)" stroke-width="1px" opacity="0.25"></line><line x1="0" y1="167.37777752346463" x2="2112.520998878479" y2="167.37777752346463" fill="rgb(0, 0, 0)" stroke="rgb(194, 189, 181)" stroke-width="1px" opacity="0.25"></line><line x1="0" y1="125.5333331425984" x2="2112.520998878479" y2="125.5333331425984" fill="rgb(0, 0, 0)" stroke="rgb(194, 189, 181)" stroke-width="1px" opacity="0.25"></line><line x1="0" y1="83.68888876173231" x2="2112.520998878479" y2="83.68888876173231" fill="rgb(0, 0, 0)" stroke="rgb(194, 189, 181)" stroke-width="1px" opacity="0.25"></line><line x1="0" y1="41.84444438086609" x2="2112.520998878479" y2="41.84444438086609" fill="rgb(0, 0, 0)" stroke="rgb(194, 189, 181)" stroke-width="1px" opacity="0.25"></line><line x1="0" y1="0" x2="2112.520998878479" y2="0" fill="rgb(0, 0, 0)" stroke="rgb(194, 189, 181)" stroke-width="1px" opacity="0.25"></line></g></g></g><g><g><line x1="0" y1="795.044443236457" x2="2112.520998878479" y2="795.044443236457" fill="rgb(0, 0, 0)" stroke="rgb(168, 160, 149)" stroke-width="1.5px"></line></g></g><g><g><line x1="176.04341657320657" y1="0" x2="176.04341657320657" y2="376.5999994277954" fill="rgb(0, 0, 0)" stroke="rgb(168, 160, 149)" stroke-width="1.5px"></line></g></g><g><g><g><g><g><path style="fill: none;" stroke="rgb(255, 112, 67)" stroke-width="2px" d="M245.2665046644566,-11.732971837550725L253.91939067586284,6.920312600996457L262.5722766872691,28.62120281340065L271.2251626986753,36.73107318445761L279.8780487100816,46.10367507051906L288.5309347214878,53.47220093935869L297.18382073289405,58.341838194991546L305.83670674430033,63.283744691048675L314.48959275570655,61.95366397571061L323.1424787671129,67.04525810791544L331.7953647785191,69.95758326612665L340.4482507899254,76.13665719771707L349.1011368013316,77.76921290992999L357.75402281273784,81.40085734851219L366.4069088241441,89.21259509619888L375.05979483555035,102.28392275374125L383.71268084695663,106.6827316361547L392.36556685836285,106.67684871187952L401.0184528697691,113.9916876367845L409.67133888117536,121.58515554649868L418.3242248925816,124.04878035030063L426.97711090398786,127.0209545904309L435.6299969153941,127.99298979873947L444.2828829268003,131.5675428828897L452.9357689382066,136.87063282655012L461.5886549496128,143.4033711892868L470.2415409610191,152.42080253246695L478.8944269724253,156.42405686206533L487.5473129838316,159.08314354830796L496.2001989952378,158.93913412300796L504.8530850066441,166.74389500317977L513.5059710180503,174.07547049688444L522.1588570294566,176.26577985945923L530.8117430408629,178.30062742207573L539.4646290522691,179.45030379874242L548.1175150636753,186.48591737024793L556.7704010750815,186.3396966056143L565.4232870864879,187.2950064872421L574.0761730978941,191.18555590661862L582.7290591093004,194.17939160255926L591.3819451207066,198.720405813744L600.0348311321128,204.388618497961L608.6877171435192,213.60751756232307L617.3406031549254,219.14218914954552L625.9934891663316,222.58400696161962L634.6463751777378,225.52680954760083L643.2992611891441,224.40665083596284L651.9521472005504,224.53351307219734L660.6050332119567,225.1440511894934L669.2579192233628,224.67121132997516L677.9108052347691,223.73181239013417L686.5636912461754,223.6189109787309L695.2165772575817,224.7621767078587L703.8694632689878,228.344890691868L712.5223492803941,231.1622058509564L721.1752352918003,233.19157622463172L729.8281213032067,234.3269322877851L738.4810073146128,231.81271513253137L747.1338933260191,232.4015629099907L755.7867793374253,232.11501922317694L764.4396653488316,233.903713316032L773.092551360238,235.2956388162472L781.7454373716441,237.48795631439413L790.3983233830504,239.07087644883512L799.0512093944566,242.23357429470553L807.7040954058629,242.93991992935796L816.3569814172691,243.18630535912516L825.0098674286754,243.73704726217602L833.6627534400816,247.91065697988992L842.3156394514879,251.52734144786263L850.968525462894,254.26814719757942L859.6214114743004,259.81054621672644L868.2742974857066,265.62472156515463L876.9271834971129,265.6160070686453L885.580069508519,263.7779170348031L894.2329555199253,262.65159830302633L902.8858415313316,261.36847807776144L911.5387275427379,264.50390411671907L920.191613554144,266.16573675365476L928.8444995655503,266.4027672422072L937.4973855769567,264.8975273448046L946.1502715883629,263.3162612260307L954.8031575997692,269.51591815843767L963.4560436111753,272.68498995280936L972.1089296225816,276.846447888483L980.7618156339879,277.4406857221004L989.4147016453942,277.6130025030391L998.0675876568004,275.2659464146912L1006.7204736682066,276.77463977700546L1015.3733596796128,275.35439514144343L1024.026245691019,273.10585859172005L1032.6791317024254,272.0864597546298L1041.3320177138316,272.6125596639547L1049.984903725238,274.817168788978L1058.637789736644,280.79668184178934L1067.2906757480503,284.57777401325654L1075.9435617594565,285.0816675212313L1084.596447770863,284.3977075777608L1093.249333782269,286.0142556889177L1101.9022197936754,286.60096750754906L1110.5551058050817,286.87896902087135L1119.207991816488,290.8454170424017L1127.8608778278942,291.987841572973L1136.5137638393003,293.9549763435032L1145.1666498507066,293.3290730120934L1153.8195358621128,292.6716950867721L1162.4724218735191,298.0707375186725L1171.1253078849254,299.9186616909832L1179.7781938963317,304.08648828156606L1188.431079907738,303.9130651065593L1197.0839659191442,304.84814275659323L1205.7368519305503,307.5563102111865L1214.3897379419566,309.19461909049755L1223.0426239533629,310.173693632839L1231.6955099647691,311.3602267612472L1240.3483959761752,314.5215751929201L1249.0012819875815,315.8786759350932L1257.654167998988,318.67568454675364L1266.3070540103943,319.30216782458047L1274.9599400218003,323.7657661629039L1283.6128260332066,325.7734250261967L1292.2657120446129,326.2930542896611L1300.9185980560192,326.32662736470627L1309.5714840674254,325.6404355072747L1318.2243700788315,327.3978294479001L1326.8772560902378,330.9803889434711L1335.530142101644,334.6008587646909L1344.1830281130506,341.04766883645465L1352.8359141244566,342.12814316610036L1361.488800135863,343.39361352514345L1370.1416861472692,340.34754207305207L1378.7945721586755,338.60926862584563L1387.4474581700815,339.34678930535233L1396.1003441814878,338.7992145974714L1404.753230192894,339.6175274988988L1413.4061162043004,341.3603057189968L1422.0590022157066,341.262626650426L1430.711888227113,343.84896707318813L1439.3647742385192,346.8458663339237L1448.0176602499255,347.2559963760758L1456.6705462613315,347.25208344046024L1465.3234322727378,344.70547058226555L1473.976318284144,343.78068163247104L1482.6292042955504,345.57908337795243L1491.2820903069567,347.1631943584712L1499.9349763183627,344.71560758136366L1508.5878623297692,341.00994668391365L1517.2407483411755,340.5024071717978L1525.8936343525818,343.2459215504969L1534.5465203639878,342.5289182402872L1543.1994063753941,344.71415365185317L1551.8522923868004,342.5420422833882L1560.5051783982067,341.30914964373767L1569.1580644096127,340.7282398280709L1577.810950421019,340.4462770527699L1586.4638364324253,341.8303595314762L1595.1167224438318,346.6288593336142L1603.7696084552379,347.0353253376147L1612.4224944666441,348.5637582221786L1621.0753804780504,349.53503021572993L1629.7282664894567,351.2003227113295L1638.3811525008628,352.0712204620478L1647.034038512269,353.40428930754314L1655.6869245236753,352.07165524195125L1664.3398105350816,350.6038892092646L1672.992696546488,347.99400406271513L1681.6455825578942,349.99149668771776L1690.2984685693004,347.9349219945836L1698.9513545807067,343.2011436319781L1707.604240592113,342.1856968970155L1716.257126603519,342.56290448116664L1724.9100126149253,344.6408860803542L1733.5628986263316,349.5588648298888L1742.215784637738,352.59491118855334L1750.868670649144,353.24799238187353L1759.5215566605505,354.2034730448446L1768.1744426719567,353.73723082787035L1776.827328683363,352.62883799138325L1785.480214694769,352.81457765720666L1794.1331007061754,354.9292812926089L1802.7859867175816,354.5578283582565L1811.438872728988,356.90817347707673L1820.091758740394,357.7254975239945L1828.7446447518003,359.25131225179723L1837.3975307632065,360.3958613671293L1846.050416774613,359.3879238810483L1854.7033027860193,361.08439911741283L1863.3561887974254,363.0177272543956L1872.0090748088317,364.6770675628488L1880.661960820238,367.0700791185901L1889.3148468316442,367.73462333331065L1897.9677328430503,368.6546814789181L1906.6206188544566,370.0945244759125" fill="none"></path></g></g></g></g><g opacity="0.2"><g><g><g><path style="fill: none;" stroke="rgb(255, 112, 67)" stroke-width="2px" d="M236.61361865305034,-1.8499809978775055L245.2665046644566,14.710398747027696L253.91939067586284,34.43028393388428L262.5722766872691,60.844495670272124L271.2251626986753,48.82232281366402L279.8780487100816,60.11157261404148L288.5309347214878,64.50093022718775L297.18382073289405,65.63675395211604L305.83670674430033,70.69079540956041L314.48959275570655,59.95948097867452L323.1424787671129,74.68049471422506L331.7953647785191,74.32533156440121L340.4482507899254,85.40432677538155L349.1011368013316,80.21789725619102L357.75402281273784,86.8481248383734L366.4069088241441,100.92994466917074L375.05979483555035,121.89065616949203L383.71268084695663,113.28089285169021L392.36556685836285,106.66802436728011L401.0184528697691,124.96391482969547L409.67133888117536,132.97533798146677L418.3242248925816,127.74421377375906L426.97711090398786,131.4792132128337L435.6299969153941,129.45104207397296L444.2828829268003,136.92937132375442L452.9357689382066,144.82526668690323L461.5886549496128,153.2024779535142L470.2415409610191,165.94694890133712L478.8944269724253,162.42893818441604L487.5473129838316,163.07177350910428L496.2001989952378,158.7231199872862L504.8530850066441,178.4510362509857L513.5059710180503,185.0728336966063L522.1588570294566,179.5512438960019L530.8117430408629,181.35289876192022L539.4646290522691,181.17481836235962L548.1175150636753,197.03933772242735L556.7704010750815,186.1203654587272L565.4232870864879,188.72797130943542L574.0761730978941,197.0213800350767L582.7290591093004,198.67014514619024L591.3819451207066,205.53192713026624L600.0348311321128,212.8909375240956L608.6877171435192,227.43586615868014L617.3406031549254,227.44419653031224L625.9934891663316,227.74673367970573L634.6463751777378,229.94101342655998L643.2992611891441,222.72641276850868L651.9521472005504,224.723806426549L660.6050332119567,226.05985836543698L669.2579192233628,223.9619515406979L677.9108052347691,222.3227139803732L686.5636912461754,223.44955886162617L695.2165772575817,226.4770753015503L703.8694632689878,233.7189616678816L712.5223492803941,235.38817858958888L721.1752352918003,236.23563178514476L729.8281213032067,236.029966382515L738.4810073146128,228.04138939965088L747.1338933260191,233.28483457617975L755.7867793374253,231.6852036929562L764.4396653488316,236.58675445531472L773.092551360238,237.38352706656985L781.7454373716441,240.77643256161474L790.3983233830504,241.44525665049653L799.0512093944566,246.9776210635113L807.7040954058629,243.9994383813366L816.3569814172691,243.55588350377568L825.0098674286754,244.56316011675224L833.6627534400816,254.17107155646073L842.3156394514879,256.95236814982155L850.968525462894,258.37935582215465L859.6214114743004,268.1241447454469L868.2742974857066,274.34598458779675L876.9271834971129,265.60293532388124L885.580069508519,261.0207819840399L894.2329555199253,260.96212020536115L902.8858415313316,259.4437977398641L911.5387275427379,269.20704317515566L920.191613554144,268.65848570905837L928.8444995655503,266.7583129750358L937.4973855769567,262.63966749870053L946.1502715883629,260.9443620478699L954.8031575997692,278.8154035570479L963.4560436111753,277.43859764436695L972.1089296225816,283.0886347919933L980.7618156339879,278.3320424725264L989.4147016453942,277.8714776744472L998.0675876568004,271.7453622821693L1006.7204736682066,279.037679820477L1015.3733596796128,273.2240281881003L1024.026245691019,269.73305376713495L1032.6791317024254,270.55736149899445L1041.3320177138316,273.401709527942L1049.984903725238,278.12408247651297L1058.637789736644,289.7659514210063L1067.2906757480503,290.2494122704575L1075.9435617594565,285.83750778319325L1084.596447770863,283.37176766255516L1093.249333782269,288.43907785565307L1101.9022197936754,287.48103523549617L1110.5551058050817,287.2959712908548L1119.207991816488,296.79508907469733L1127.8608778278942,293.70147836882984L1136.5137638393003,296.90567849929835L1145.1666498507066,292.3902180149787L1153.8195358621128,291.68562819879025L1162.4724218735191,306.1693011665231L1171.1253078849254,302.6905479494492L1179.7781938963317,310.33822816744015L1188.431079907738,303.65293034404914L1197.0839659191442,306.2507592316442L1205.7368519305503,311.6185613930763L1214.3897379419566,311.65208240946413L1223.0426239533629,311.64230544635103L1231.6955099647691,313.14002645385966L1240.3483959761752,319.26359784042955L1249.0012819875815,317.9143270483529L1257.654167998988,322.87119746424435L1266.3070540103943,320.2418927413208L1274.9599400218003,330.461163670389L1283.6128260332066,328.78491332113606L1292.2657120446129,327.07249818485747L1300.9185980560192,326.376986977274L1309.5714840674254,324.6111477211273L1318.2243700788315,330.03392035883826L1326.8772560902378,336.3542281868274L1335.530142101644,340.03156349652056L1344.1830281130506,350.7178839441002L1352.8359141244566,343.74885466056895L1361.488800135863,345.2918190637082L1370.1416861472692,335.778434894915L1378.7945721586755,336.00185845503586L1387.4474581700815,340.4530703246121L1396.1003441814878,337.9778525356501L1404.753230192894,340.8449968510399L1413.4061162043004,343.97447304914385L1422.0590022157066,341.1161080475698L1430.711888227113,347.7284777073313L1439.3647742385192,351.341215225027L1448.0176602499255,347.8711914393041L1456.6705462613315,347.2462140370368L1465.3234322727378,340.8855512949735L1473.976318284144,342.39349820777903L1482.6292042955504,348.2766859961746L1491.2820903069567,349.53936082924923L1499.9349763183627,341.0442274157024L1508.5878623297692,335.4514553377386L1517.2407483411755,339.7410979036239L1525.8936343525818,347.36119311854577L1534.5465203639878,341.4534132749728L1543.1994063753941,347.992006769202L1551.8522923868004,339.28387523069057L1560.5051783982067,339.45981068426204L1569.1580644096127,339.8568751045707L1577.810950421019,340.0233328898182L1586.4638364324253,343.9064832495357L1595.1167224438318,353.8266090368211L1603.7696084552379,347.64502434361566L1612.4224944666441,350.8564075490244L1621.0753804780504,350.99193820605694L1629.7282664894567,353.6982614547288L1638.3811525008628,353.37756708812526L1647.034038512269,355.4038925757861L1655.6869245236753,350.0727041435634L1664.3398105350816,348.40224016023456L1672.992696546488,344.07917634289106L1681.6455825578942,352.9877356252217L1690.2984685693004,344.85005995488234L1698.9513545807067,336.10047608806985L1707.604240592113,340.6625267945715L1716.257126603519,343.12871585739333L1724.9100126149253,347.7578584791355L1733.5628986263316,356.9358329541907L1742.215784637738,357.1489807265499L1750.868670649144,354.227614171854L1759.5215566605505,355.63669403930123L1768.1744426719567,353.03786750240886L1776.827328683363,350.9662487366526L1785.480214694769,353.09318715594185L1794.1331007061754,358.1013367457124L1802.7859867175816,354.0006489567278L1811.438872728988,360.4336911553071L1820.091758740394,358.95148359437087L1828.7446447518003,361.5400343435014L1837.3975307632065,362.11268504012753L1846.050416774613,357.87601765192665L1854.7033027860193,363.6291119719598L1863.3561887974254,365.9177194598698L1872.0090748088317,367.1660780255287L1880.661960820238,370.6595964522021L1889.3148468316442,368.73143965539145L1897.9677328430503,370.03476869732935L1906.6206188544566,372.2542889714042" fill="none"></path></g></g></g></g></g></g><g transform="translate(41, 376)" clip-path="url(#clip_1)"><clipPath id="clip_1"><rect width="2112" height="23"></rect></clipPath><g><g><line x1="0" y1="0" x2="0" y2="5" style="visibility: inherit;" fill="rgb(0, 0, 0)" stroke="rgb(200, 195, 188)" stroke-width="1px"></line><line x1="176.04341657320657" y1="0" x2="176.04341657320657" y2="5" style="visibility: inherit;" fill="rgb(0, 0, 0)" stroke="rgb(200, 195, 188)" stroke-width="1px"></line><line x1="352.08683314641314" y1="0" x2="352.08683314641314" y2="5" style="visibility: inherit;" fill="rgb(0, 0, 0)" stroke="rgb(200, 195, 188)" stroke-width="1px"></line><line x1="528.1302497196198" y1="0" x2="528.1302497196198" y2="5" style="visibility: inherit;" fill="rgb(0, 0, 0)" stroke="rgb(200, 195, 188)" stroke-width="1px"></line><line x1="704.1736662928263" y1="0" x2="704.1736662928263" y2="5" style="visibility: inherit;" fill="rgb(0, 0, 0)" stroke="rgb(200, 195, 188)" stroke-width="1px"></line><line x1="880.217082866033" y1="0" x2="880.217082866033" y2="5" style="visibility: inherit;" fill="rgb(0, 0, 0)" stroke="rgb(200, 195, 188)" stroke-width="1px"></line><line x1="1056.2604994392395" y1="0" x2="1056.2604994392395" y2="5" style="visibility: inherit;" fill="rgb(0, 0, 0)" stroke="rgb(200, 195, 188)" stroke-width="1px"></line><line x1="1232.3039160124463" y1="0" x2="1232.3039160124463" y2="5" style="visibility: inherit;" fill="rgb(0, 0, 0)" stroke="rgb(200, 195, 188)" stroke-width="1px"></line><line x1="1408.3473325856526" y1="0" x2="1408.3473325856526" y2="5" style="visibility: inherit;" fill="rgb(0, 0, 0)" stroke="rgb(200, 195, 188)" stroke-width="1px"></line><line x1="1584.3907491588593" y1="0" x2="1584.3907491588593" y2="5" style="visibility: inherit;" fill="rgb(0, 0, 0)" stroke="rgb(200, 195, 188)" stroke-width="1px"></line><line x1="1760.434165732066" y1="0" x2="1760.434165732066" y2="5" style="visibility: inherit;" fill="rgb(0, 0, 0)" stroke="rgb(200, 195, 188)" stroke-width="1px"></line><line x1="1936.4775823052723" y1="0" x2="1936.4775823052723" y2="5" style="visibility: inherit;" fill="rgb(0, 0, 0)" stroke="rgb(200, 195, 188)" stroke-width="1px"></line><line x1="2112.520998878479" y1="0" x2="2112.520998878479" y2="5" style="visibility: inherit;" fill="rgb(0, 0, 0)" stroke="rgb(200, 195, 188)" stroke-width="1px"></line></g><g transform="translate(0, 8)"><text style="text-anchor: middle; visibility: hidden; font-family: Roboto, sans-serif; font-size: 12px; font-weight: 200;" x="0" y="0" dx="0em" dy="0.95em" fill="rgb(232, 230, 227)" stroke="none" stroke-width="1px">-500k</text><text style="text-anchor: middle; visibility: inherit; font-family: Roboto, sans-serif; font-size: 12px; font-weight: 200;" x="176.04341657320657" y="0" dx="0em" dy="0.95em" fill="rgb(232, 230, 227)" stroke="none" stroke-width="1px">0</text><text style="text-anchor: middle; visibility: inherit; font-family: Roboto, sans-serif; font-size: 12px; font-weight: 200;" x="352.08683314641314" y="0" dx="0em" dy="0.95em" fill="rgb(232, 230, 227)" stroke="none" stroke-width="1px">500k</text><text style="text-anchor: middle; visibility: inherit; font-family: Roboto, sans-serif; font-size: 12px; font-weight: 200;" x="528.1302497196198" y="0" dx="0em" dy="0.95em" fill="rgb(232, 230, 227)" stroke="none" stroke-width="1px">1M</text><text style="text-anchor: middle; visibility: inherit; font-family: Roboto, sans-serif; font-size: 12px; font-weight: 200;" x="704.1736662928263" y="0" dx="0em" dy="0.95em" fill="rgb(232, 230, 227)" stroke="none" stroke-width="1px">1.5M</text><text style="text-anchor: middle; visibility: inherit; font-family: Roboto, sans-serif; font-size: 12px; font-weight: 200;" x="880.217082866033" y="0" dx="0em" dy="0.95em" fill="rgb(232, 230, 227)" stroke="none" stroke-width="1px">2M</text><text style="text-anchor: middle; visibility: inherit; font-family: Roboto, sans-serif; font-size: 12px; font-weight: 200;" x="1056.2604994392395" y="0" dx="0em" dy="0.95em" fill="rgb(232, 230, 227)" stroke="none" stroke-width="1px">2.5M</text><text style="text-anchor: middle; visibility: inherit; font-family: Roboto, sans-serif; font-size: 12px; font-weight: 200;" x="1232.3039160124463" y="0" dx="0em" dy="0.95em" fill="rgb(232, 230, 227)" stroke="none" stroke-width="1px">3M</text><text style="text-anchor: middle; visibility: inherit; font-family: Roboto, sans-serif; font-size: 12px; font-weight: 200;" x="1408.3473325856526" y="0" dx="0em" dy="0.95em" fill="rgb(232, 230, 227)" stroke="none" stroke-width="1px">3.5M</text><text style="text-anchor: middle; visibility: inherit; font-family: Roboto, sans-serif; font-size: 12px; font-weight: 200;" x="1584.3907491588593" y="0" dx="0em" dy="0.95em" fill="rgb(232, 230, 227)" stroke="none" stroke-width="1px">4M</text><text style="text-anchor: middle; visibility: inherit; font-family: Roboto, sans-serif; font-size: 12px; font-weight: 200;" x="1760.434165732066" y="0" dx="0em" dy="0.95em" fill="rgb(232, 230, 227)" stroke="none" stroke-width="1px">4.5M</text><text style="text-anchor: middle; visibility: inherit; font-family: Roboto, sans-serif; font-size: 12px; font-weight: 200;" x="1936.4775823052723" y="0" dx="0em" dy="0.95em" fill="rgb(232, 230, 227)" stroke="none" stroke-width="1px">5M</text><text style="text-anchor: middle; visibility: hidden; font-family: Roboto, sans-serif; font-size: 12px; font-weight: 200;" x="2112.520998878479" y="0" dx="0em" dy="0.95em" fill="rgb(232, 230, 227)" stroke="none" stroke-width="1px">5.5M</text></g><line x1="0" y1="0" x2="2112.520998878479" y2="0" fill="rgb(0, 0, 0)" stroke="rgb(200, 195, 188)" stroke-width="1px"></line></g></g></g></g></svg>